<svg xmlns="http://www.w3.org/2000/svg" width="399.167" height="60" viewBox="0 0 399.167 60">
  <g id="back_end_logos" data-name="back_end logos" transform="translate(-586 -627)">
    <g id="angularjs-original" transform="translate(581.447 630.974)">
      <path id="Path_329" data-name="Path 329" d="M30.43,1.026,4.553,10.133l4.089,33.9,21.816,11.99L52.385,43.874l4.087-33.9Z" fill="#b3b3b3"/>
      <path id="Path_330" data-name="Path 330" d="M87.194,15.651,63.672,7.629V56.881l19.713-10.91Z" transform="translate(-33.302 -3.72)" fill="#a6120d"/>
      <path id="Path_331" data-name="Path 331" d="M11.2,15.794l3.5,30.321L34.114,56.88V7.627Z" transform="translate(-3.745 -3.718)" fill="#dd1b16"/>
      <path id="Path_332" data-name="Path 332" d="M49.508,36.155l-6.475,3.028H36.209L33,47.207l-5.966.111,16-35.594Zm-.626-1.524L43.076,23.136l-4.763,11.3h4.719Z" transform="translate(-12.664 -6.026)" fill="#f2f2f2"/>
      <path id="Path_333" data-name="Path 333" d="M63.671,11.724l.043,11.412,5.4,11.3H63.683l-.012,4.734,7.515.007L74.7,47.318l5.709.106Z" transform="translate(-33.302 -6.026)" fill="#b3b3b3"/>
    </g>
    <g id="react-original" transform="translate(863.047 626.9)">
      <circle id="Ellipse_78" data-name="Ellipse 78" cx="4.894" cy="4.894" r="4.894" transform="translate(23.382 27.206)" fill="#61dafb"/>
      <path id="Path_334" data-name="Path 334" d="M46.867,24.028c-.945-.343-1.932-.687-2.962-.987.258-1.03.472-2.061.644-3.048.9-5.667-.086-9.66-2.834-11.206A5.333,5.333,0,0,0,38.967,8.1c-3.005,0-6.826,2.233-10.691,5.968C24.413,10.333,20.591,8.1,17.586,8.1a5.333,5.333,0,0,0-2.748.687C12.091,10.375,11.1,14.368,12,19.993c.172.987.386,2.018.644,3.048a29.942,29.942,0,0,0-2.962.987C4.319,26.089,1.4,28.923,1.4,32.1s2.962,6.011,8.286,8.072c.945.343,1.932.687,2.962.987-.258,1.03-.472,2.061-.644,3.048-.9,5.667.086,9.66,2.834,11.206a5.333,5.333,0,0,0,2.748.687c3.048,0,6.869-2.233,10.691-5.968,3.864,3.735,7.685,5.968,10.691,5.968a5.333,5.333,0,0,0,2.748-.687c2.748-1.589,3.735-5.581,2.834-11.206-.172-.987-.386-2.018-.644-3.048a29.941,29.941,0,0,0,2.962-.987c5.367-2.061,8.286-4.894,8.286-8.072S52.234,26.089,46.867,24.028ZM40.513,10.934c1.76,1.03,2.361,4.208,1.631,8.716a25.854,25.854,0,0,1-.6,2.834,51.007,51.007,0,0,0-7.084-1.073,61.946,61.946,0,0,0-4.465-5.581c3.177-3.134,6.4-5.281,9.016-5.281a2.9,2.9,0,0,1,1.5.386ZM35.7,36.393c-.773,1.374-1.674,2.748-2.619,4.122-1.589.129-3.177.172-4.809.172-1.674,0-3.263-.043-4.809-.172q-1.417-2.061-2.576-4.122c-.816-1.417-1.589-2.877-2.275-4.293.687-1.417,1.46-2.877,2.275-4.293.773-1.374,1.674-2.748,2.619-4.122,1.589-.129,3.177-.172,4.809-.172,1.674,0,3.263.043,4.809.172q1.417,2.061,2.576,4.122c.816,1.417,1.589,2.877,2.275,4.293C37.25,33.517,36.52,34.934,35.7,36.393Zm3.564-1.417c.644,1.5,1.159,2.962,1.631,4.422-1.46.343-3.005.6-4.637.816.515-.816,1.073-1.674,1.546-2.576.515-.9.987-1.8,1.46-2.662ZM28.277,46.612c-1.03-1.116-2.018-2.318-2.962-3.564.987.043,1.975.086,2.962.086s1.975-.043,2.962-.086C30.294,44.293,29.307,45.5,28.277,46.612Zm-7.986-6.44c-1.631-.215-3.177-.472-4.637-.816.472-1.417.987-2.919,1.631-4.422.472.859.945,1.76,1.46,2.619.515.945,1.03,1.76,1.546,2.619ZM17.286,29.223c-.644-1.5-1.159-2.962-1.631-4.422,1.46-.343,3.005-.6,4.637-.816-.515.816-1.073,1.674-1.546,2.576C18.23,27.463,17.758,28.365,17.286,29.223ZM28.277,17.588c1.03,1.116,2.018,2.318,2.962,3.564-.987-.043-1.975-.086-2.962-.086s-1.975.043-2.962.086c.945-1.245,1.932-2.447,2.962-3.564ZM37.808,26.6l-1.546-2.576c1.631.215,3.177.472,4.637.816-.472,1.417-.987,2.919-1.631,4.422C38.8,28.365,38.323,27.463,37.808,26.6Zm-23.4-6.955c-.73-4.508-.129-7.685,1.631-8.716a2.9,2.9,0,0,1,1.5-.386c2.576,0,5.8,2.1,9.016,5.281a56.437,56.437,0,0,0-4.465,5.581,58.371,58.371,0,0,0-7.084,1.073c-.258-.987-.429-1.932-.6-2.834ZM3.8,32.1c0-2.018,2.447-4.165,6.741-5.753a25.742,25.742,0,0,1,2.748-.9,62.579,62.579,0,0,0,2.576,6.7A54.1,54.1,0,0,0,13.293,38.8C7.368,37.08,3.8,34.5,3.8,32.1ZM16.04,53.266c-1.76-1.03-2.361-4.208-1.631-8.716a25.853,25.853,0,0,1,.6-2.834,51.007,51.007,0,0,0,7.084,1.073,61.946,61.946,0,0,0,4.465,5.581c-3.177,3.134-6.4,5.281-9.016,5.281a2.9,2.9,0,0,1-1.5-.386Zm26.1-8.716c.73,4.508.129,7.685-1.631,8.716a2.9,2.9,0,0,1-1.5.386c-2.576,0-5.8-2.1-9.016-5.281a56.437,56.437,0,0,0,4.465-5.581,58.371,58.371,0,0,0,7.084-1.073C41.8,42.7,41.972,43.649,42.144,44.551Zm3.864-6.7a25.741,25.741,0,0,1-2.748.9,62.579,62.579,0,0,0-2.576-6.7A54.1,54.1,0,0,0,43.26,25.4c5.925,1.717,9.488,4.293,9.488,6.7C52.749,34.118,50.259,36.265,46.008,37.853Z" fill="#61dafb"/>
    </g>
    <g id="express-original" transform="translate(673.7 613.399)">
      <path id="Path_335" data-name="Path 335" d="M93.372,60.67a3.623,3.623,0,0,1-4.494-1.7c-2.576-3.859-5.419-7.542-8.163-11.292-.354-.485-.721-.961-1.179-1.565-3.247,4.381-6.49,8.553-9.533,12.893-1.088,1.551-2.231,2.227-4.263,1.678L77.948,44.3,66.584,29.5c1.955-.381,3.306-.186,4.5,1.565,2.644,3.864,5.56,7.542,8.467,11.433,2.925-3.877,5.8-7.56,8.526-11.387a3.39,3.39,0,0,1,4.231-1.569c-1.487,1.973-2.943,3.914-4.408,5.841-1.977,2.6-3.918,5.229-5.968,7.773a1.594,1.594,0,0,0,.041,2.354C85.767,50.494,89.513,55.528,93.372,60.67Z" transform="translate(-35.216 -0.944)"/>
      <path id="Path_336" data-name="Path 336" d="M1.314,43.083c.327-1.637.544-3.306,1-4.911,2.721-9.719,13.877-13.759,21.541-7.737,4.49,3.533,5.605,8.512,5.383,14.127H3.93C3.549,54.634,10.8,60.715,20.043,57.613c3.243-1.088,5.152-3.628,6.109-6.8.485-1.592,1.288-1.841,2.784-1.388-.766,3.973-2.5,7.292-6.131,9.369-5.442,3.111-13.21,2.1-17.3-2.218a15.664,15.664,0,0,1-3.891-9.115c-.068-.544-.209-1.079-.317-1.619Q1.314,44.462,1.314,43.083Zm2.662-.676h22.87c-.15-7.283-4.685-12.458-10.884-12.5C9.159,29.85,4.27,34.9,3.976,42.407Z"/>
    </g>
    <path id="nodejs-original" d="M60.995,16.836,39.114,4.13a4.719,4.719,0,0,0-4.568,0L12.432,16.836A4.754,4.754,0,0,0,10,20.842V46.218a4.794,4.794,0,0,0,2.458,4.011L18.3,53.548c2.793,1.375,3.78,1.375,5.05,1.375,4.135,0,6.5-2.5,6.5-6.861V23.008c0-.354-.184-.88-.531-.88h-2.79c-.353,0-1.144.526-1.144.88V48.061c0,1.933-1.749,3.857-5.017,2.223L14.328,46.8a.685.685,0,0,1-.359-.586V20.842c0-.239.275-.479.487-.6L36.5,7.556a.772.772,0,0,1,.714,0l21.774,12.68c.208.126.135.358.135.6V46.218c0,.242.091.478-.115.594L37.133,59.5a.621.621,0,0,1-.626,0L30.9,56.155a.541.541,0,0,0-.532-.043,14.6,14.6,0,0,1-3.313,1.51c-.36.126-.892.343.2.957L34.6,62.923a4.627,4.627,0,0,0,4.622,0L60.994,50.229a4.47,4.47,0,0,0,2.1-4.011V20.842a4.456,4.456,0,0,0-2.1-4.006ZM43.7,42.2c-5.818,0-7.1-1.605-7.527-4.5-.05-.312-.314-.684-.631-.684H32.695c-.352,0-.635.427-.635.777,0,3.7,2.014,8.193,11.637,8.193,6.966,0,10.96-2.707,10.96-7.5,0-4.75-3.209-6-9.965-6.89-6.829-.9-7.522-1.359-7.522-2.958,0-1.319.588-3.078,5.644-3.078,4.518,0,6.183.97,6.868,4.015a.626.626,0,0,0,.615.492h2.855a.653.653,0,0,0,.466-.2.642.642,0,0,0,.166-.486C53.344,24.141,49.86,21.7,42.814,21.7c-6.268,0-10.006,2.647-10.006,7.083,0,4.812,3.72,6.142,9.736,6.737,7.2.706,7.757,1.758,7.757,3.173,0,2.459-1.974,3.506-6.6,3.506Z" transform="translate(758 623.459)" fill="#83cd29"/>
    <g id="mongodb-original" transform="translate(923.408 623.988)">
      <path id="Path_337" data-name="Path 337" d="M75.6,42.812a26.245,26.245,0,0,1,1.442,6.563,28.865,28.865,0,0,1-.472,8.329,1.919,1.919,0,0,1-.075.22,3.722,3.722,0,0,0-.555.006c-1.528.24-3.055.489-4.582.736-1.578.256-3.159.5-4.735.775-.558.1-1.249-.019-1.475.753-.006.021-.071.025-.108.037l.076-4.615q-.039-5.567-.078-11.134l.735-.126c1.2-.2,2.406-.4,3.61-.588q2.155-.342,4.312-.673C74.325,43,74.96,42.907,75.6,42.812Z" transform="translate(-15.384 -21.527)" fill="#439934" fill-rule="evenodd"/>
      <path id="Path_338" data-name="Path 338" d="M48.133,72.739c-.776-.667-1.579-1.3-2.323-2.006a28.733,28.733,0,0,1-8.371-13.574,21.965,21.965,0,0,1-.747-4.5,25.391,25.391,0,0,1-.071-3.2,37.627,37.627,0,0,1,1.436-8.331l.045-.063a1.341,1.341,0,0,1,.237.322q1.211,3.567,2.407,7.14,3.759,11.225,7.518,22.45a1.789,1.789,0,0,0,.268.4Z" transform="translate(0 -20.583)" fill="#45a538" fill-rule="evenodd"/>
      <path id="Path_339" data-name="Path 339" d="M75.037,21.992c-.635.095-1.271.185-1.9.283q-2.156.334-4.312.673c-1.2.191-2.407.391-3.61.588l-.735.126-.006-.48c-.024-.394-.066-.788-.071-1.183-.032-2.515-.051-5.03-.083-7.545q-.029-2.361-.08-4.722c-.02-.978-.041-1.956-.085-2.933-.024-.525-.108-1.047-.143-1.572-.019-.3.007-.606.013-.909.375.727.742,1.459,1.128,2.18A13.94,13.94,0,0,0,67.6,9.4a32.316,32.316,0,0,1,7.434,12.595Z" transform="translate(-14.825 -0.707)" fill="#46a037" fill-rule="evenodd"/>
      <path id="Path_340" data-name="Path 340" d="M64.646,78.025c.037-.012.1-.016.108-.037.225-.772.916-.657,1.475-.753,1.576-.273,3.156-.519,4.735-.775,1.527-.247,3.054-.5,4.582-.736a3.661,3.661,0,0,1,.555-.006c-.286,1.019-.511,2.06-.873,3.052a34.046,34.046,0,0,1-1.437,3.3,22.561,22.561,0,0,1-2.917,4.482,41.3,41.3,0,0,1-2.847,3.006c-.544.535-1.185.971-1.782,1.451l-.155-.106-.557-.477-.577-1.264a19.008,19.008,0,0,1-.64-4.517l.011-.258.079-1.114c.026-.38.061-.76.077-1.141.059-1.369.111-2.738.165-4.107Z" transform="translate(-14.995 -39.322)" fill="#409433" fill-rule="evenodd"/>
      <path id="Path_341" data-name="Path 341" d="M53.2,49.636c-.054,1.369-.106,2.738-.164,4.108-.016.381-.051.761-.077,1.141l-.351.133c-.78-2.3-1.561-4.569-2.324-6.847-1.263-3.769-2.51-7.544-3.771-11.313q-1.527-4.564-3.076-9.121a1.548,1.548,0,0,0-.283-.379L45.4,23.224a2.411,2.411,0,0,1,.228.4q1.56,4.616,3.107,9.236,2.008,6.012,4.007,12.028a4.844,4.844,0,0,0,.225.488l.308-.358q-.039,2.308-.077,4.615Z" transform="translate(-3.549 -10.932)" fill="#4faa41" fill-rule="evenodd"/>
      <path id="Path_342" data-name="Path 342" d="M41.385,32.227a1.559,1.559,0,0,1,.283.379q1.548,4.558,3.076,9.121c1.261,3.77,2.508,7.545,3.771,11.313.763,2.278,1.544,4.55,2.324,6.847l.351-.133-.079,1.114-.071.257c-.122,1.219-.225,2.442-.374,3.658-.075.61-.234,1.208-.354,1.812a1.8,1.8,0,0,1-.268-.4q-3.765-11.223-7.518-22.45-1.2-3.572-2.407-7.14a1.329,1.329,0,0,0-.237-.322l1.5-4.059Z" transform="translate(-1.78 -15.802)" fill="#4aa73c" fill-rule="evenodd"/>
      <path id="Path_343" data-name="Path 343" d="M55.924,40.714l-.308.358a4.892,4.892,0,0,1-.225-.488q-2.006-6.013-4.007-12.028-1.544-4.622-3.107-9.236a2.331,2.331,0,0,0-.228-.4l2.78-3.657a1.5,1.5,0,0,1,.258.353Q52.245,19,53.384,22.4c.71,2.114,1.41,4.231,2.128,6.342.048.141.216.241.328.361l.006.48Q55.886,35.146,55.924,40.714Z" transform="translate(-6.197 -6.625)" fill="#57ae47" fill-rule="evenodd"/>
      <path id="Path_344" data-name="Path 344" d="M59.117,22.475c-.112-.119-.28-.219-.328-.361-.719-2.111-1.418-4.228-2.128-6.342q-1.14-3.4-2.3-6.785a1.5,1.5,0,0,0-.258-.353c.9-.885,1.78-1.8,2.72-2.646a3.768,3.768,0,0,0,1.539-2.74,1.454,1.454,0,0,1,.067-.236l.238.6c-.006.3-.033.607-.013.909.034.525.119,1.047.143,1.572.044.977.065,1.955.085,2.933q.048,2.361.08,4.722c.031,2.515.051,5.03.083,7.545,0,.4.045.789.07,1.183Z" transform="translate(-9.473)" fill="#60b24f" fill-rule="evenodd"/>
      <path id="Path_345" data-name="Path 345" d="M62.127,100.635c.121-.6.28-1.2.354-1.812.149-1.216.252-2.439.374-3.658l.03,0,.03.005a19.008,19.008,0,0,0,.64,4.517,1.381,1.381,0,0,0-.238.322c-.334.941-.648,1.89-.984,2.831a1.4,1.4,0,0,1-.264.342L61.728,102l.4-1.363Z" transform="translate(-13.596 -49.842)" fill="#a9aa88" fill-rule="evenodd"/>
      <path id="Path_346" data-name="Path 346" d="M62.476,108.5a1.392,1.392,0,0,0,.264-.342c.336-.941.651-1.889.984-2.831a1.369,1.369,0,0,1,.238-.322l.576,1.264a2.245,2.245,0,0,0-.334.487L63.1,110c-.045.13-.2.222-.3.331l-.319-1.83Z" transform="translate(-14 -55.17)" fill="#b6b598" fill-rule="evenodd"/>
      <path id="Path_347" data-name="Path 347" d="M63.171,111.822c.1-.109.259-.2.3-.331l1.1-3.241a2.24,2.24,0,0,1,.334-.487l.558.476a.98.98,0,0,0-.329.963l-.169.555a1.143,1.143,0,0,0-.227.286c-.385,1.1-.753,2.212-1.141,3.316a1.526,1.526,0,0,1-.282.373q-.075-.955-.152-1.909Z" transform="translate(-14.376 -56.659)" fill="#c2c1a7" fill-rule="evenodd"/>
      <path id="Path_348" data-name="Path 348" d="M63.5,116.08a1.568,1.568,0,0,0,.282-.373c.388-1.1.756-2.212,1.141-3.316a1.141,1.141,0,0,1,.227-.286l-.234,2.546c-.062.072-.153.135-.183.219-.264.741-.513,1.488-.778,2.229a2.847,2.847,0,0,1-.241.431c-.073-.1-.2-.187-.208-.286-.023-.386-.007-.775-.006-1.163Z" transform="translate(-14.548 -59.007)" fill="#cecdb7" fill-rule="evenodd"/>
      <path id="Path_349" data-name="Path 349" d="M63.969,120.528a2.892,2.892,0,0,0,.241-.431c.265-.741.514-1.487.778-2.229.03-.084.121-.146.183-.219l.006,1.671-.559,1.434Z" transform="translate(-14.808 -62.007)" fill="#dbdac7" fill-rule="evenodd"/>
      <path id="Path_350" data-name="Path 350" d="M65.38,122.725l.559-1.434.115,1.7Z" transform="translate(-15.571 -63.976)" fill="#ebe9dc" fill-rule="evenodd"/>
      <path id="Path_351" data-name="Path 351" d="M67.433,109.764a.979.979,0,0,1,.329-.963l.155.106Z" transform="translate(-16.667 -57.22)" fill="#cecdb7" fill-rule="evenodd"/>
      <path id="Path_352" data-name="Path 352" d="M64.245,94.869l-.03-.005-.03,0,.071-.257-.011.257Z" transform="translate(-14.924 -49.546)" fill="#4faa41" fill-rule="evenodd"/>
    </g>
  </g>
</svg>
