<svg xmlns="http://www.w3.org/2000/svg" xmlns:xlink="http://www.w3.org/1999/xlink" width="407" height="47" viewBox="0 0 407 47">
  <defs>
    <clipPath id="clip-path">
      <rect id="Rectangle_74" data-name="Rectangle 74" width="47" height="47" transform="translate(130 754)" fill="#fff" stroke="#707070" stroke-width="1"/>
    </clipPath>
    <clipPath id="clip-path-2">
      <rect id="Rectangle_75" data-name="Rectangle 75" width="47" height="47" transform="translate(220 754)" fill="#fff" stroke="#707070" stroke-width="1"/>
    </clipPath>
    <clipPath id="clip-path-3">
      <rect id="Rectangle_76" data-name="Rectangle 76" width="47" height="47" transform="translate(310 754)" fill="#fff" stroke="#707070" stroke-width="1"/>
    </clipPath>
    <clipPath id="clip-path-4">
      <rect id="Rectangle_77" data-name="Rectangle 77" width="47" height="47" transform="translate(400 754)" fill="#fff" stroke="#707070" stroke-width="1"/>
    </clipPath>
    <clipPath id="clip-path-5">
      <rect id="Rectangle_78" data-name="Rectangle 78" width="47" height="47" transform="translate(490 754)" fill="#fff" stroke="#707070" stroke-width="1"/>
    </clipPath>
  </defs>
  <g id="front-end_logos" data-name="front-end logos" transform="translate(-130 -754)">
    <g id="Group_27" data-name="Group 27">
      <g id="Mask_Group_11" data-name="Mask Group 11" clip-path="url(#clip-path)">
        <g id="html5-original" transform="translate(129.374 753.374)">
          <path id="Path_291" data-name="Path 291" d="M7.176,42.928,3.4.626H44.847l-3.776,42.3L24.1,47.626Z" fill="#e44d26"/>
          <path id="Path_292" data-name="Path 292" d="M24.126,44.03l13.713-3.8L41.066,4.085H24.126Z" fill="#f16529"/>
          <path id="Path_293" data-name="Path 293" d="M24.126,19.774H17.261l-.474-5.313h7.34V9.273H11.116l.124,1.392,1.275,14.3h11.61Zm0,13.474-.023.006-5.778-1.561-.369-4.137H12.748l.727,8.146L24.1,38.653l.024-.006Z" fill="#ebebeb"/>
          <path id="Path_294" data-name="Path 294" d="M24.108,19.774v5.188H30.5l-.6,6.729-5.787,1.562v5.4L34.744,35.7l.078-.876,1.219-13.659.126-1.393H24.108Zm0-10.5v5.188H36.64l.1-1.166.237-2.631L37.1,9.273Z" fill="#fff"/>
        </g>
      </g>
      <g id="Mask_Group_12" data-name="Mask Group 12" clip-path="url(#clip-path-2)">
        <g id="css3-original" transform="translate(219.493 753.493)">
          <path id="Path_295" data-name="Path 295" d="M7.057,42.809,3.286.507H44.728L40.953,42.8l-16.971,4.7-16.925-4.7Z" fill="#1572b6"/>
          <path id="Path_296" data-name="Path 296" d="M24.007,43.911l13.714-3.8L40.947,3.966H24.007V43.911Z" fill="#33a9dc"/>
          <path id="Path_297" data-name="Path 297" d="M24.007,19.291h6.865l.474-5.313H24.007V8.791h13.01l-.125,1.392-1.275,14.3H24.007V19.291Z" fill="#fff"/>
          <path id="Path_298" data-name="Path 298" d="M24.038,32.765l-.023.007-5.778-1.56-.369-4.138H12.661l.727,8.146L24.014,38.17l.024-.007v-5.4Z" fill="#ebebeb"/>
          <path id="Path_299" data-name="Path 299" d="M30.431,24.26l-.625,6.948L24.02,32.77v5.4L34.656,35.22l.078-.877.9-10.083H30.431Z" fill="#fff"/>
          <path id="Path_300" data-name="Path 300" d="M24.025,8.791v5.188H11.493l-.1-1.166-.236-2.63-.124-1.392h13Zm-.018,10.5V24.48H18.3l-.1-1.166-.237-2.63-.124-1.392Z" fill="#ebebeb"/>
        </g>
      </g>
      <g id="Mask_Group_13" data-name="Mask Group 13" clip-path="url(#clip-path-3)">
        <path id="bootstrap-plain-wordmark" d="M3.608,42.625H5.184a3.033,3.033,0,0,1,1.563.307,1.067,1.067,0,0,1,.486.975,1.227,1.227,0,0,1-.213.744.852.852,0,0,1-.566.35v.034a1.116,1.116,0,0,1,.694.4,1.306,1.306,0,0,1,.213.783,1.289,1.289,0,0,1-.5,1.081,2.164,2.164,0,0,1-1.359.388H3.608V42.625ZM4.682,44.63H5.3a1.142,1.142,0,0,0,.632-.135.5.5,0,0,0,.2-.447.447.447,0,0,0-.213-.417,1.367,1.367,0,0,0-.674-.126H4.682V44.63Zm0,.852V46.8h.7a1.039,1.039,0,0,0,.655-.17.625.625,0,0,0,.211-.519q0-.63-.9-.63H4.682Zm8.286-.332a2.749,2.749,0,0,1-.623,1.932,2.31,2.31,0,0,1-1.787.675,2.31,2.31,0,0,1-1.787-.675,2.757,2.757,0,0,1-.623-1.939,2.719,2.719,0,0,1,.625-1.93,2.337,2.337,0,0,1,1.792-.667,2.306,2.306,0,0,1,1.785.672,2.757,2.757,0,0,1,.617,1.932Zm-3.694,0A2.112,2.112,0,0,0,9.6,46.427a1.126,1.126,0,0,0,.962.429q1.285,0,1.285-1.707t-1.278-1.711a1.134,1.134,0,0,0-.966.431A2.106,2.106,0,0,0,9.273,45.149Zm9.339,0a2.749,2.749,0,0,1-.623,1.932,2.31,2.31,0,0,1-1.787.675,2.31,2.31,0,0,1-1.787-.675,2.757,2.757,0,0,1-.623-1.939,2.719,2.719,0,0,1,.625-1.93,2.337,2.337,0,0,1,1.792-.667,2.306,2.306,0,0,1,1.785.672,2.759,2.759,0,0,1,.617,1.932Zm-3.695,0a2.112,2.112,0,0,0,.322,1.278,1.126,1.126,0,0,0,.962.429q1.285,0,1.285-1.707t-1.278-1.711a1.134,1.134,0,0,0-.966.431A2.106,2.106,0,0,0,14.918,45.149Zm6.7,2.538H20.541V43.518H19.166v-.893h3.823v.893H21.614Zm5.142-1.406a1.308,1.308,0,0,1-.493,1.081,2.144,2.144,0,0,1-1.373.395,3.226,3.226,0,0,1-1.433-.3v-1a5.938,5.938,0,0,0,.867.322,2.559,2.559,0,0,0,.649.094.925.925,0,0,0,.542-.135.461.461,0,0,0,.189-.4.445.445,0,0,0-.083-.265.927.927,0,0,0-.244-.223,6.256,6.256,0,0,0-.656-.343,3.1,3.1,0,0,1-.7-.419,1.574,1.574,0,0,1-.371-.467,1.335,1.335,0,0,1-.139-.623,1.309,1.309,0,0,1,.455-1.056,1.892,1.892,0,0,1,1.259-.384,2.965,2.965,0,0,1,.753.094,5.184,5.184,0,0,1,.75.263l-.346.834a5.1,5.1,0,0,0-.67-.232,2.154,2.154,0,0,0-.521-.066.69.69,0,0,0-.468.142.468.468,0,0,0-.163.371.458.458,0,0,0,.066.248.725.725,0,0,0,.209.2,6.5,6.5,0,0,0,.68.355,2.711,2.711,0,0,1,.973.68,1.325,1.325,0,0,1,.263.835Zm2.871,1.406H28.554V43.518H27.179v-.893H31v.893H29.627v4.169Zm3.227-1.943v1.943H31.781V42.625h1.475A2.526,2.526,0,0,1,34.783,43a1.5,1.5,0,0,1,.249,1.936,1.625,1.625,0,0,1-.7.545q1.143,1.707,1.489,2.206H34.634l-1.208-1.943h-.572Zm0-.873H33.2a1.325,1.325,0,0,0,.752-.17.606.606,0,0,0,.242-.533.555.555,0,0,0-.248-.513,1.5,1.5,0,0,0-.767-.152h-.326Zm6.707,2.815-.367-1.205H37.348l-.367,1.205H35.825L37.611,42.6h1.312l1.794,5.083Zm-.624-2.105q-.509-1.638-.573-1.852c-.043-.143-.073-.256-.092-.339q-.114.443-.655,2.192ZM44.852,44.2a1.547,1.547,0,0,1-.511,1.25,2.182,2.182,0,0,1-1.453.433h-.46v1.8H41.355V42.625h1.617a2.152,2.152,0,0,1,1.4.4,1.447,1.447,0,0,1,.479,1.183Zm-2.424.8h.353a1.175,1.175,0,0,0,.741-.2.685.685,0,0,0,.246-.569.7.7,0,0,0-.206-.558.966.966,0,0,0-.646-.18h-.488v1.5ZM28,21.489a11.41,11.41,0,0,0-3.243-.287H19.687v7.572h5.461a10.9,10.9,0,0,0,2-.165,4.774,4.774,0,0,0,1.693-.635,3.254,3.254,0,0,0,1.119-1.247,3.889,3.889,0,0,0,.438-1.874,3.563,3.563,0,0,0-.635-2.116A3.284,3.284,0,0,0,28,21.489Zm-.778-3.26A3.152,3.152,0,0,0,28.9,17.091a3.226,3.226,0,0,0,.567-1.951,3.6,3.6,0,0,0-.529-1.951,2.674,2.674,0,0,0-1.511-1.146,12.7,12.7,0,0,0-3.372-.306H19.687v6.815h4.735a10.036,10.036,0,0,0,2.8-.323ZM44.3,6.105A5.348,5.348,0,0,0,38.948.757H9.513A5.348,5.348,0,0,0,4.165,6.105V35.541a5.348,5.348,0,0,0,5.348,5.348H38.948A5.348,5.348,0,0,0,44.3,35.541ZM32.775,27.74A5.6,5.6,0,0,1,31.15,29.8a6.859,6.859,0,0,1-2.427,1.173,14.4,14.4,0,0,1-3.575.447h-8.49V9.086h8.354a10.276,10.276,0,0,1,4.074.683,5.255,5.255,0,0,1,2.4,2.076,5.473,5.473,0,0,1,.869,2.928,5.035,5.035,0,0,1-.771,2.677,5.5,5.5,0,0,1-2.328,2.026,5.79,5.79,0,0,1,3.092,2.011,5.387,5.387,0,0,1,1.081,3.357,6.472,6.472,0,0,1-.658,2.895Z" transform="translate(309.27 753.243)" fill="#7d49cf"/>
      </g>
      <g id="Mask_Group_14" data-name="Mask Group 14" clip-path="url(#clip-path-4)">
        <g id="javascript-original" transform="translate(399.472 753.471)">
          <path id="Path_301" data-name="Path 301" d="M.529.529h47v47h-47Z" fill="#f0db4f"/>
          <path id="Path_302" data-name="Path 302" d="M43.682,36.319c-.344-2.144-1.742-3.945-5.884-5.625-1.439-.661-3.043-1.135-3.521-2.225a2.426,2.426,0,0,1-.085-1.376c.308-1.246,1.8-1.635,2.975-1.278A3.274,3.274,0,0,1,39.08,27.59c2.028-1.313,2.024-1.3,3.44-2.207a8.793,8.793,0,0,0-1.135-1.519c-1.22-1.362-2.882-2.064-5.54-2.011l-1.385.179A6.283,6.283,0,0,0,31.128,24a6.153,6.153,0,0,0,1.117,8.761c2.667,2,6.585,2.457,7.086,4.329.487,2.292-1.684,3.034-3.842,2.77a5.036,5.036,0,0,1-3.431-2.609c-1.76,1.019-1.76,1.019-3.57,2.059a7.943,7.943,0,0,0,1.6,2.176c3.4,3.453,11.924,3.284,13.452-1.943a6.464,6.464,0,0,0,.143-3.222ZM26.079,22.13h-4.4L21.665,33.5c0,2.417.125,4.633-.268,5.312-.643,1.336-2.31,1.17-3.069.911a3.772,3.772,0,0,1-1.622-1.684,2.215,2.215,0,0,0-.25-.4l-3.574,2.189a7.062,7.062,0,0,0,2.591,2.966,8.532,8.532,0,0,0,6.282.773A5.547,5.547,0,0,0,25.3,40.782c1-1.845.786-4.079.777-6.549C26.1,30.2,26.079,26.173,26.079,22.13Z" fill="#323330"/>
        </g>
      </g>
      <g id="Mask_Group_15" data-name="Mask Group 15" clip-path="url(#clip-path-5)">
        <path id="sass-original" d="M.456,21.021a2.073,2.073,0,0,0,.121.606,7.444,7.444,0,0,0,1.613,2.9,19.117,19.117,0,0,0,3.576,3.138c1.119.8,2.26,1.59,3.383,2.388.193.137.375.295.584.463-.18.1-.33.183-.486.262a25.987,25.987,0,0,0-4.222,2.615,8.636,8.636,0,0,0-2.1,2.124,4.569,4.569,0,0,0-.53,4.4,2.6,2.6,0,0,0,.886,1.143,1.31,1.31,0,0,0,.435.225c.4.093.8.154,1.2.228H6.055A7.064,7.064,0,0,0,9.486,40.26a7.529,7.529,0,0,0,3.169-4.525,7.987,7.987,0,0,0-.047-4.175c-.037-.129-.084-.255-.133-.38s-.106-.246-.173-.4l2.574-1.48.039.033c-.047.153-.1.306-.139.46a10.424,10.424,0,0,0-.436,3.413,6.549,6.549,0,0,0,1.146,3.424,1.66,1.66,0,0,0,2.6.028,6,6,0,0,0,.595-.941c.42-.867.808-1.749,1.209-2.625l.07-.16c-.029.415-.063.779-.078,1.144a4.359,4.359,0,0,0,.2,1.677,1.158,1.158,0,0,0,.981.871,1.233,1.233,0,0,0,.919-.335,3.887,3.887,0,0,0,1.007-1.2c.712-1.307,1.442-2.606,2.087-3.946.7-1.449,1.308-2.94,1.956-4.414l.107-.261c.153.6.26,1.191.456,1.749a16.526,16.526,0,0,0,.819,1.893.566.566,0,0,1-.073.722c-.845,1.018-1.674,2.049-2.505,3.078a6.915,6.915,0,0,0-.52.707,1.385,1.385,0,0,0-.18.511.65.65,0,0,0,.518.738,3.617,3.617,0,0,0,1.014.072,5.937,5.937,0,0,0,3.143-1.182,3.3,3.3,0,0,0,1.3-3.557,8.263,8.263,0,0,0-.354-1.151.425.425,0,0,1,.046-.448A36.629,36.629,0,0,0,33.36,25.27a.892.892,0,0,1,.115-.18,11.246,11.246,0,0,0,1.291,3.666c-.341.329-.679.627-.985.956a6.591,6.591,0,0,0-1.562,2.469,2.917,2.917,0,0,0-.173,1.275,1.074,1.074,0,0,0,1.326.975,6.028,6.028,0,0,0,3.6-2.218,2.916,2.916,0,0,0,.412-2.663c-.07-.258-.154-.511-.244-.806.356-.11.7-.243,1.062-.325a9.413,9.413,0,0,1,5.5.322,4.154,4.154,0,0,1,2.4,2.085,2.406,2.406,0,0,1-.918,3.265,2.045,2.045,0,0,0-.331.226.325.325,0,0,0-.077.251c.008.046.13.1.2.1a1.825,1.825,0,0,0,1.015-.42,3.126,3.126,0,0,0,1.442-2.178l.024-.07-.029-.61c-.012-.035.009-.07.006-.1a4.785,4.785,0,0,0-1.951-3.252,7.118,7.118,0,0,0-4.211-1.418,9.509,9.509,0,0,0-3.655.563c-.336.122-.669.266-1.006.4-.045-.082-.094-.161-.134-.242a6.842,6.842,0,0,1-.859-2.2,4.929,4.929,0,0,1-.009-1.727c.132-.55.3-1.09.466-1.633a.4.4,0,0,0-.242-.562,1.068,1.068,0,0,0-.294-.1,4.532,4.532,0,0,0-1.936.144.555.555,0,0,0-.438.44c-.028.143-.086.279-.127.42a10.5,10.5,0,0,1-.551,1.739c-.672,1.4-1.438,2.744-2.223,4.079-.085.144-.174.286-.282.46a6.034,6.034,0,0,1-.658-1.7,5.218,5.218,0,0,1-.009-2.051c.127-.508.293-1.006.445-1.507a.349.349,0,0,0-.177-.489,1.039,1.039,0,0,0-.355-.138,4.359,4.359,0,0,0-2,.164.541.541,0,0,0-.372.407,15.692,15.692,0,0,1-.595,1.84c-1.038,2.381-2.107,4.749-3.174,7.117-.223.495-.484.972-.735,1.453a3.374,3.374,0,0,1-.236.344.281.281,0,0,1-.088-.179,4.929,4.929,0,0,1,.024-.912c.176-.89.378-1.775.591-2.657.176-.728.381-1.45.576-2.174a.682.682,0,0,0-.107-.672A1,1,0,0,0,21.84,27.1l-.16.091.031-.258a4.024,4.024,0,0,0-.06-1.651,1.314,1.314,0,0,0-1.38-1.049,2.964,2.964,0,0,0-.978.186,7.4,7.4,0,0,0-3.1,2.459.97.97,0,0,1-.283.245c-1.083.6-2.169,1.193-3.255,1.789l-1.209.662c-.324-.309-.619-.63-.953-.9C9.47,27.842,8.432,27.03,7.4,26.206a12.164,12.164,0,0,1-2.469-2.456,4.4,4.4,0,0,1-.857-2.394,5.619,5.619,0,0,1,.858-3.13A12.008,12.008,0,0,1,7.786,15.11a26.4,26.4,0,0,1,3.746-2.485,28.26,28.26,0,0,1,5.745-2.536,15.88,15.88,0,0,1,6.351-.722,6.525,6.525,0,0,1,2.443.709,2.521,2.521,0,0,1,1.283,1.391,3.478,3.478,0,0,1,.061,1.948A7.436,7.436,0,0,1,25.47,16.8a13.142,13.142,0,0,1-5.372,3.4,14.778,14.778,0,0,1-3.655.78,6.884,6.884,0,0,1-2.989-.36,3.888,3.888,0,0,1-1.647-1.118c-.08-.094-.183-.2-.332-.107a.284.284,0,0,0-.123.366,3.59,3.59,0,0,0,.285.688,3.919,3.919,0,0,0,1.3,1.235,6.379,6.379,0,0,0,3.242.89,16.308,16.308,0,0,0,5.111-.651,12.539,12.539,0,0,0,6.133-3.7,9.421,9.421,0,0,0,2.59-5.4,5.225,5.225,0,0,0-.488-2.974,5.375,5.375,0,0,0-2.345-2.293,9.929,9.929,0,0,0-4.616-1.2H20.954a16.7,16.7,0,0,0-5.669,1.226A38.94,38.94,0,0,0,11.217,9.35,26.3,26.3,0,0,0,3.463,14.9,11.581,11.581,0,0,0,.9,18.942c-.156.451-.3.935-.416,1.4M10.91,33.825a5.95,5.95,0,0,1-2.118,4.118A4.817,4.817,0,0,1,6.37,39.153a1.778,1.778,0,0,1-1.008-.07,1.029,1.029,0,0,1-.579-1.053,3.811,3.811,0,0,1,.569-1.941,6.939,6.939,0,0,1,1.775-1.949A27.2,27.2,0,0,1,10.6,31.8l.091-.037A6.089,6.089,0,0,1,10.91,33.825Zm9.418-7.254a12.594,12.594,0,0,1-.354,1.583A46.67,46.67,0,0,1,18,33.384a9.023,9.023,0,0,1-.514.9.632.632,0,0,1-.106.125c-.216.214-.422.2-.531-.077a5.894,5.894,0,0,1-.273-1.017,5.388,5.388,0,0,1-.049-.71,8.9,8.9,0,0,1,1.4-4.634,4.333,4.333,0,0,1,1.347-1.518,2.347,2.347,0,0,1,.6-.264c.318-.089.514.058.461.377Zm6.425,8.186,2.309-2.7C29.159,33.062,27.456,35.061,26.753,34.757Zm7.376-1.814c-.163.094-.341.161-.508.247s-.2,0-.208-.133a.893.893,0,0,1,.035-.27,5.805,5.805,0,0,1,1.74-2.8l.06-.031a2.474,2.474,0,0,1-1.118,2.988Z" transform="translate(489.544 753.561)" fill="#cb6699" fill-rule="evenodd"/>
      </g>
    </g>
  </g>
</svg>
