<svg id="illustartion_skills" xmlns="http://www.w3.org/2000/svg" width="825" height="625.364" viewBox="0 0 825 625.364">
  <path id="Path_109" data-name="Path 109" d="M349.224,575.286C526.841,561.8,738.658,424.452,727.875,283.034S511.944,9.965,334.326,23.454,54.466,301.232,65.25,442.651,171.607,588.776,349.224,575.286Z" transform="translate(76.527 -22.5)" fill="#f2f2f2"/>
  <ellipse id="Ellipse_27" data-name="Ellipse 27" cx="370.661" cy="22.715" rx="370.661" ry="22.715" transform="translate(40.303 530.106)" fill="#3f3d56"/>
  <ellipse id="Ellipse_28" data-name="Ellipse 28" cx="315.705" cy="15.021" rx="315.705" ry="15.021" transform="translate(95.259 537.434)" opacity="0.1"/>
  <ellipse id="Ellipse_29" data-name="Ellipse 29" cx="155.485" cy="13.556" rx="155.485" ry="13.556" transform="translate(514.03 598.252)" fill="#3f3d56"/>
  <ellipse id="Ellipse_30" data-name="Ellipse 30" cx="132.438" cy="8.964" rx="132.438" ry="8.964" transform="translate(537.077 602.625)" opacity="0.1"/>
  <rect id="Rectangle_38" data-name="Rectangle 38" width="551.027" height="432.322" transform="translate(130.327 117.569)" fill="#3f3d56"/>
  <path id="Path_110" data-name="Path 110" d="M414.422,263.926H550.36a1.65,1.65,0,1,0,0-3.3H414.422a1.65,1.65,0,1,0,0,3.3Z" transform="translate(-2.339 -86.458)" fill="#f2f2f2"/>
  <path id="Path_111" data-name="Path 111" d="M511.233,288.692H725.038a1.65,1.65,0,0,0,0-3.3H511.233a1.65,1.65,0,1,0,0,3.3Z" transform="translate(-247.919 -93.11)" fill="#f2f2f2"/>
  <path id="Path_112" data-name="Path 112" d="M415.322,313.458H551.26a1.65,1.65,0,0,0,0-3.3H415.322a1.65,1.65,0,0,0,0,3.3Z" transform="translate(-3.899 -99.761)" fill="#f2f2f2"/>
  <path id="Path_113" data-name="Path 113" d="M617.5,313.908H753.438a1.65,1.65,0,0,0,0-3.3H617.5a1.65,1.65,0,1,0,0,3.3Z" transform="translate(-354.176 -99.882)" fill="#f2f2f2"/>
  <path id="Path_114" data-name="Path 114" d="M415.772,338.223H551.71a1.65,1.65,0,0,0,0-3.3H415.772a1.65,1.65,0,0,0,0,3.3Z" transform="translate(-4.679 -106.413)" fill="#f2f2f2"/>
  <path id="Path_115" data-name="Path 115" d="M416.223,362.989H552.161a1.65,1.65,0,1,0,0-3.3H416.223a1.65,1.65,0,0,0,0,3.3Z" transform="translate(-5.459 -113.065)" fill="#f2f2f2"/>
  <path id="Path_116" data-name="Path 116" d="M632.81,264.376h38.934a1.65,1.65,0,0,0,0-3.3H632.81a1.65,1.65,0,0,0,0,3.3Z" transform="translate(-283.713 -86.579)" fill="#f2f2f2"/>
  <path id="Path_117" data-name="Path 117" d="M632.81,338.223h38.934a1.65,1.65,0,0,0,0-3.3H632.81a1.65,1.65,0,0,0,0,3.3Z" transform="translate(-283.713 -106.413)" fill="#f2f2f2"/>
  <path id="Path_118" data-name="Path 118" d="M632.81,362.539h38.934a1.65,1.65,0,0,0,0-3.3H632.81a1.65,1.65,0,0,0,0,3.3Z" transform="translate(-283.713 -112.944)" fill="#f2f2f2"/>
  <path id="Path_119" data-name="Path 119" d="M721.967,362.539H760.9a1.65,1.65,0,0,0,0-3.3H721.967a1.65,1.65,0,0,0,0,3.3Z" transform="translate(-438.181 -112.944)" fill="#f2f2f2"/>
  <path id="Path_120" data-name="Path 120" d="M413.971,288.692H452.9a1.65,1.65,0,1,0,0-3.3H413.971a1.65,1.65,0,0,0,0,3.3Z" transform="translate(95.435 -93.11)" fill="#f2f2f2"/>
  <path id="Path_121" data-name="Path 121" d="M414.647,628.658H550.585a1.65,1.65,0,0,0,0-3.3H414.647a1.65,1.65,0,1,0,0,3.3Z" transform="translate(-2.729 -184.42)" fill="#f2f2f2"/>
  <path id="Path_122" data-name="Path 122" d="M413.746,678.189H549.684a1.65,1.65,0,0,0,0-3.3H413.746a1.65,1.65,0,1,0,0,3.3Z" transform="translate(-1.169 -197.724)" fill="#f2f2f2"/>
  <path id="Path_123" data-name="Path 123" d="M414.2,702.955H550.134a1.65,1.65,0,1,0,0-3.3H414.2a1.65,1.65,0,0,0,0,3.3Z" transform="translate(-1.948 -204.375)" fill="#f2f2f2"/>
  <path id="Path_124" data-name="Path 124" d="M625.832,678.639h38.933a1.65,1.65,0,1,0,0-3.3H625.831a1.65,1.65,0,0,0,0,3.3Z" transform="translate(-271.622 -197.844)" fill="#f2f2f2"/>
  <path id="Path_125" data-name="Path 125" d="M625.832,702.955h38.933a1.65,1.65,0,1,0,0-3.3H625.831a1.65,1.65,0,1,0,0,3.3Z" transform="translate(-271.622 -204.375)" fill="#f2f2f2"/>
  <path id="Path_126" data-name="Path 126" d="M714.987,678.639h38.934a1.65,1.65,0,1,0,0-3.3H714.987a1.65,1.65,0,1,0,0,3.3Z" transform="translate(-426.088 -197.844)" fill="#f2f2f2"/>
  <path id="Path_127" data-name="Path 127" d="M511.458,653.423h213.8a1.65,1.65,0,0,0,0-3.3h-213.8a1.65,1.65,0,1,0,0,3.3Z" transform="translate(-248.309 -191.072)" fill="#f2f2f2"/>
  <path id="Path_128" data-name="Path 128" d="M414.2,653.423H453.13a1.65,1.65,0,1,0,0-3.3H414.2a1.65,1.65,0,0,0,0,3.3Z" transform="translate(95.045 -191.072)" fill="#f2f2f2"/>
  <path id="Path_129" data-name="Path 129" d="M511.458,728.171h213.8a1.65,1.65,0,0,0,0-3.3h-213.8a1.65,1.65,0,1,0,0,3.3Z" transform="translate(-248.309 -211.346)" fill="#f2f2f2"/>
  <path id="Path_130" data-name="Path 130" d="M414.2,728.171H453.13a1.65,1.65,0,1,0,0-3.3H414.2a1.65,1.65,0,0,0,0,3.3Z" transform="translate(95.045 -211.346)" fill="#f2f2f2"/>
  <path id="Path_131" data-name="Path 131" d="M459.222,401.13l52.792,52.131-52.792,52.131-11.878-11.878,39.923-39.924-40.253-40.254Z" transform="translate(-14.468 -107.842)" fill="#6c63ff"/>
  <path id="Path_132" data-name="Path 132" d="M661.458,401.13l-52.792,52.131,52.792,52.131,11.878-11.878-39.924-39.924,40.254-40.254Z" transform="translate(-294.538 -107.842)" fill="#6c63ff"/>
  <circle id="Ellipse_31" data-name="Ellipse 31" cx="6.595" cy="6.595" r="6.595" transform="translate(659.989 122.874)" fill="#6c63ff"/>
  <circle id="Ellipse_32" data-name="Ellipse 32" cx="6.595" cy="6.595" r="6.595" transform="translate(642.449 122.874)" fill="#6c63ff"/>
  <circle id="Ellipse_33" data-name="Ellipse 33" cx="6.595" cy="6.595" r="6.595" transform="translate(624.868 122.874)" fill="#6c63ff"/>
  <rect id="Rectangle_39" data-name="Rectangle 39" width="551.027" height="2.198" transform="translate(130.327 140.432)" opacity="0.1"/>
  <path id="Path_133" data-name="Path 133" d="M993.747,591.23c0,46.728,27.779,63.044,62.047,63.044s62.047-16.316,62.047-63.044-62.047-106.174-62.047-106.174S993.747,544.5,993.747,591.23Z" transform="translate(-993.747 -146.961)" fill="#f2f2f2"/>
  <path id="Path_134" data-name="Path 134" d="M1031.482,624.625l-.637-39.108L1004.4,537.137l26.342,42.247-.286-17.585-18.224-35,18.15,30.35h0l-.513-31.626-19.52-27.867,19.44,22.894-.323-57.99,2.015,76.769-.161-3.167,19.843-30.373-19.528,36.453,1.854,35.321.051-.938,22.876-31.963-22.8,35.275.227,4.417.044.067-.022.363,4.69,89.612h-6.265l-.747-46.286-22.752-35.19Z" transform="translate(-967.172 -124.755)" fill="#3f3d56"/>
  <path id="Path_135" data-name="Path 135" d="M148.976,772.022a31.6,31.6,0,0,0,5.992,2.566c3.721,1.017,7.7.644,11.458,1.511,1.539.355,3.214,1.1,3.7,2.6a5.462,5.462,0,0,1-.406,3.388c-4.154,12.178-6.657,25.109-13.281,36.14a54.692,54.692,0,0,1-10.253,12.448c-1.506,1.357-3.212,2.685-5.228,2.9a5.311,5.311,0,0,1-5.4-7.461c.594-1.32,1.7-2.342,2.41-3.6a13.744,13.744,0,0,0,1.333-5.122c.654-5.209,1.285-10.652-.52-15.582-1.21-3.306-3.431-6.125-5.28-9.121s-3.387-6.428-2.975-9.924a17.237,17.237,0,0,1,2.675-6.634c1.232-2.068,3.667-7.627,6.143-8.317C141.916,767.093,146.735,770.874,148.976,772.022Z" transform="translate(586.173 -222.797)" fill="#2f2e41"/>
  <path id="Path_136" data-name="Path 136" d="M298.077,825.716a10.273,10.273,0,0,0,.486,3.477c.775,2.046,2.7,3.448,3.69,5.4,1.381,2.712.755,5.989-.16,8.892-.574,1.82-1.326,3.713-2.867,4.838a9.448,9.448,0,0,1-4.363,1.4c-13.216,1.829-26.641.78-39.978,1.163-2.431.07-5,.155-7.126-1.033s-3.434-4.174-1.991-6.132c1.3-1.758,3.858-1.741,6.039-1.845a24.849,24.849,0,0,0,15.324-6.312,11.071,11.071,0,0,0,2.149-2.474,15.2,15.2,0,0,0,1.124-2.577,114.9,114.9,0,0,1,6.656-14.742,7.81,7.81,0,0,1,2.862-3.427,7.563,7.563,0,0,1,3.106-.678c3.324-.215,11.932-1.347,14.5,1.238C299.908,815.288,298.024,822.683,298.077,825.716Z" transform="translate(369.384 -234.426)" fill="#2f2e41"/>
  <circle id="Ellipse_34" data-name="Ellipse 34" cx="21.231" cy="21.231" r="21.231" transform="translate(625.776 254.314)" fill="#fbbebe"/>
  <path id="Path_137" data-name="Path 137" d="M267.651,419.554a15.96,15.96,0,0,0,6.522,8.375l-29.365,5.99a31.108,31.108,0,0,0,.412-13.093,7.548,7.548,0,0,1-.176-3.231c.552-2.13,2.95-3.156,5.1-3.645,5.359-1.222,10.1-1.877,15.079-4.244C266.742,412.312,266.529,416.549,267.651,419.554Z" transform="translate(398.526 -126.517)" fill="#fbbebe"/>
  <path id="Path_138" data-name="Path 138" d="M263.251,422.982a22.963,22.963,0,0,0-20.014.523c-3.765,1.984-6.882,4.979-9.944,7.933-2.823,2.723-5.834,5.842-6.035,9.759a27.346,27.346,0,0,0,.794,5.63,18.88,18.88,0,0,1-10.1,19.4c-2.333,3.886-2.814,8.594-2.85,13.127-.136,17.173,5.283,34.557,1.415,51.289-.908,3.928-2.317,7.733-3.1,11.688-1.016,5.123-.966,10.39-1.5,15.585a69.808,69.808,0,0,1-3.747,16.484c1.278,2.032,3.937,2.812,6.333,2.647a17.889,17.889,0,0,0,6.772-2.3c10.349-5.3,19.828-12.279,30.546-16.78,7.091-2.978,14.646-4.832,21.525-8.271s13.277-8.9,15.381-16.295a38.143,38.143,0,0,0,1.015-9.894c.209-14.006.4-28.164-2.645-41.835-2.688-12.056-7.871-23.59-9-35.891-.368-4-.376-8.29-2.613-11.631C272.325,429.425,265.5,428.2,263.251,422.982Z" transform="translate(409.688 -129.689)" fill="#2f2e41"/>
  <path id="Path_139" data-name="Path 139" d="M257.9,387.817c-1.251-1.632-3.664-1.854-5.663-1.372s-3.842,1.513-5.86,1.9a3.426,3.426,0,0,1-2.743-.385,3.989,3.989,0,0,1-1.184-2.616,49.945,49.945,0,0,1-.492-12.736,3.771,3.771,0,0,0-.116-1.786c-.5-1.2-2.024-1.491-3.27-1.877a9.757,9.757,0,0,1-6.6-9.99,3.972,3.972,0,0,1,1.214-2.741,4.993,4.993,0,0,1,3.177-.754q8.561-.069,17.122,0c2.112.018,4.331.07,6.162,1.123a29.94,29.94,0,0,1,3.576,3.013c3.17,2.558,7.458,3.079,11.315,4.39a11.217,11.217,0,0,1,4.959,2.957,5.224,5.224,0,0,1,1.094,5.417A19.238,19.238,0,0,1,279.2,374.5c-2.275,3.637-.76,8.356-1.1,12.632-.424,5.341-8.328,14-13.687,15.268C255.765,404.438,260.764,391.324,257.9,387.817Z" transform="translate(401.18 -111.955)" fill="#2f2e41"/>
  <path id="Path_140" data-name="Path 140" d="M273.555,705.6c-.546,3.9-1.246,7.812-1.059,11.745.261,5.491,2.242,10.782,2.608,16.266.273,4.1-.359,8.238.21,12.3.364,2.6,1.213,5.113,1.739,7.689a31.8,31.8,0,0,1-5.109,24.375,3.992,3.992,0,0,1-1.483,1.437,4.187,4.187,0,0,1-1.838.243,131.871,131.871,0,0,1-18.443-1.676,1.769,1.769,0,0,1-1.184-.522,1.66,1.66,0,0,1-.257-.7c-1.131-5.815,1.448-11.646,2.1-17.534.7-6.287-.808-12.587-2.305-18.733a83.2,83.2,0,0,0-2.541-8.96c-.724-1.976-1.6-3.9-2.225-5.908a45.037,45.037,0,0,1-1.613-9.674q-.653-7.749-.692-15.533a65.184,65.184,0,0,1,1.22-14.662c1.376-6.11,4.194-11.783,6.987-17.388a11.011,11.011,0,0,1,4.116,1.956,91.874,91.874,0,0,0,11.248,6.214c2.613,1.214,7.71,2.076,9.369,4.606,1.636,2.495.58,7.585.455,10.336Q274.54,698.571,273.555,705.6Z" transform="translate(397.511 -196.247)" fill="#2f2e41"/>
  <path id="Path_141" data-name="Path 141" d="M273.555,705.6c-.546,3.9-1.246,7.812-1.059,11.745.261,5.491,2.242,10.782,2.608,16.266.273,4.1-.359,8.238.21,12.3.364,2.6,1.213,5.113,1.739,7.689a31.8,31.8,0,0,1-5.109,24.375,3.992,3.992,0,0,1-1.483,1.437,4.187,4.187,0,0,1-1.838.243,131.871,131.871,0,0,1-18.443-1.676,1.769,1.769,0,0,1-1.184-.522,1.66,1.66,0,0,1-.257-.7c-1.131-5.815,1.448-11.646,2.1-17.534.7-6.287-.808-12.587-2.305-18.733a83.2,83.2,0,0,0-2.541-8.96c-.724-1.976-1.6-3.9-2.225-5.908a45.037,45.037,0,0,1-1.613-9.674q-.653-7.749-.692-15.533a65.184,65.184,0,0,1,1.22-14.662c1.376-6.11,4.194-11.783,6.987-17.388a11.011,11.011,0,0,1,4.116,1.956,91.874,91.874,0,0,0,11.248,6.214c2.613,1.214,7.71,2.076,9.369,4.606,1.636,2.495.58,7.585.455,10.336Q274.54,698.571,273.555,705.6Z" transform="translate(397.511 -196.247)" opacity="0.1"/>
  <path id="Path_142" data-name="Path 142" d="M232.137,605.518c2.819,7.591-1.325,15.793-4.926,23.046-8.871,17.869-15.031,36.936-21.158,55.921-.459,1.422-.918,2.974-.406,4.378a5.734,5.734,0,0,0,2.068,2.452c4.225,3.209,9.6,4.352,14.636,6.03a66.078,66.078,0,0,1,13.88,6.507c3.647,2.26,7.063,4.868,10.472,7.472l10.853,8.289a7.257,7.257,0,0,1,1.814,1.756c1.047,1.642.618,3.786.1,5.663a96.313,96.313,0,0,1-5.314,14.5,5.064,5.064,0,0,1-1.927,2.526c-1.694.91-3.766-.3-5.06-1.72s-2.413-3.194-4.236-3.8-3.826.129-5.728-.138c-3.077-.432-5.119-3.266-7.337-5.442-9.061-8.889-24.188-8.244-34.155-16.1a43.393,43.393,0,0,0-4.566-3.567c-1.685-1-3.6-1.543-5.344-2.423-5.317-2.678-8.66-8.213-10.451-13.891s-2.3-11.671-3.588-17.484a76.021,76.021,0,0,1-1.837-9.041,48.429,48.429,0,0,1,.185-8.548l3.6-44.489c.293-3.622.586-7.249,1.155-10.838,10.681.382,21.354.812,32.041.938C215.408,607.611,224.068,608.206,232.137,605.518Z" transform="translate(467.592 -179.449)" fill="#2f2e41"/>
  <path id="Path_143" data-name="Path 143" d="M264.347,613.357c-1.449,2.33-4.975,2.282-7.4,1s-4.315-3.424-6.749-4.69c-3.271-1.7-7.141-1.638-10.827-1.534-5.835.165-11.742.34-17.357,1.939-5.807,1.654-11.46,4.839-17.464,4.2a3.592,3.592,0,0,1-2.756-1.294,4.063,4.063,0,0,1-.454-2.078l-.2-5.246a4.737,4.737,0,0,1,.418-2.656,4.456,4.456,0,0,1,1.99-1.524c8.546-4.137,18.293-4.908,27.782-5.233q7.236-.248,14.477-.2c4.1.025,9.015-.568,13,.527C264.151,598.042,267.059,609,264.347,613.357Z" transform="translate(439.308 -176.53)" fill="#2f2e41"/>
  <path id="Path_144" data-name="Path 144" d="M203.283,429.421c11.2-.1,21.346-7.491,32.543-7.671a8.438,8.438,0,0,1,3.951.682c1.56.786,2.586,2.306,3.771,3.589,3.311,3.585,8.105,5.5,11.506,9,3.189,3.281,4.963,8.17,3.7,12.569s-6.011,7.773-10.463,6.716a26.966,26.966,0,0,0-10.506-14.274,53.408,53.408,0,0,0-8.211-4.31c-5.032-2.28-10.66-4.6-15.914-2.895a22.449,22.449,0,0,0-5.429,2.961l-8.759,5.884C200.5,437.645,201.416,433.13,203.283,429.421Z" transform="translate(446.709 -129.755)" fill="#6c63ff"/>
  <path id="Path_145" data-name="Path 145" d="M261,453.736c1.487,1.855-.655,4.543-.327,6.9.218,1.565,1.505,2.759,2.041,4.245.555,1.539.261,3.244.471,4.866a20.877,20.877,0,0,0,.934,3.466,62.263,62.263,0,0,1,1.968,10.277l1.96,14.637a55.458,55.458,0,0,1,.62,6.652A19.862,19.862,0,0,0,269,509.75a36.728,36.728,0,0,0,2.042,4.525,5.3,5.3,0,0,1,.073,4.781,8.357,8.357,0,0,1,1.749,10.431,5.788,5.788,0,0,0-.9,1.66,4.265,4.265,0,0,0,.4,2.448l1.982,5.281c.507,1.352.668,3.41-.743,3.718a12.46,12.46,0,0,1,2.676,4.226,5.031,5.031,0,0,1-.713,4.767,6.073,6.073,0,0,0-1.242,1.507,4.011,4.011,0,0,0,.143,2.376,8.724,8.724,0,0,1-1.079,6.839,6.134,6.134,0,0,1-6.169,2.644c-3.965-.894-7.527-2.306-11.524-1.572-8.607,1.579-17.241,3.165-25.577,5.827-9.514,3.037-18.726,7.492-28.669,8.427a2.783,2.783,0,0,1-1.917-.3,2.88,2.88,0,0,1-.887-1.823L195.567,561.1a148.285,148.285,0,0,1-2.825-16.141c-.35-3.5-.45-7.026-.549-10.546L191.4,506.4a27.989,27.989,0,0,1,1.612-12.178l4.556-14.544c2.6-8.3,8.564-15.66,10.688-24.094,1.344-5.338,2.337-11.067,5.941-15.227,5.138-5.932,14.028-6.854,21.809-5.834a26.055,26.055,0,0,1,10.1,3.079c3.516,2.108,6.106,5.429,8.612,8.673C256.785,448.951,258.887,451.1,261,453.736Z" transform="translate(435.293 -133.228)" fill="#6c63ff"/>
  <path id="Path_146" data-name="Path 146" d="M258.686,566.7c-.641,2.764-1.987,5.313-2.812,8.029-1.381,4.549-1.264,9.449-2.642,14-.578,1.91-1.416,3.744-1.832,5.7-.968,4.551.445,9.259,2.2,13.567s3.893,8.557,4.463,13.175c.4,3.252-.175,6.925-2.682,9.035-2.6,2.191-6.384,2.043-9.774,1.751a10.271,10.271,0,0,1-3.547-.739c-2.592-1.226-3.684-4.294-4.29-7.1-2.031-9.393-1.451-19.129-.86-28.721l1.543-25.085c.3-4.829.615-9.759,2.1-14.4.541-1.687,1.485-5.1,3.026-6.172s5.884-1.114,7.773-1.2C260.221,548.118,260.122,560.491,258.686,566.7Z" transform="translate(419.479 -163.887)" fill="#fbbebe"/>
  <path id="Path_147" data-name="Path 147" d="M245.91,446.729a6.1,6.1,0,0,1,5.841.516,18,18,0,0,1,4.376,4.249c3.912,4.775,8.053,10.255,7.473,16.4a41.588,41.588,0,0,1-1.7,6.721c-2.623,9.8.278,20.173-.055,30.316-.192,5.861-1.468,11.626-2.738,17.351-.259,1.168-.674,2.521-1.8,2.914a3.919,3.919,0,0,1-2.606-.4,20.789,20.789,0,0,0-19.025,2.4c-2.1-1.12-1.313-4.662-.842-6.995,1.4-6.93-.5-14.079-2.805-20.763s-5.064-13.358-5.446-20.418c-.433-8,2.219-15.806,4.836-23.377a7.517,7.517,0,0,1,6.332-6.269C240.528,448.548,243.342,448.073,245.91,446.729Z" transform="translate(422.432 -136.38)" fill="#2f2e41"/>
</svg>
