<svg xmlns="http://www.w3.org/2000/svg" xmlns:xlink="http://www.w3.org/1999/xlink" width="403.062" height="82.453" viewBox="0 0 403.062 82.453">
  <defs>
    <linearGradient id="linear-gradient" x1="0.758" y1="16.144" x2="2.083" y2="15.015" gradientUnits="objectBoundingBox">
      <stop offset="0" stop-color="#5a9fd4"/>
      <stop offset="1" stop-color="#306998"/>
    </linearGradient>
    <linearGradient id="linear-gradient-2" x1="2.241" y1="13.881" x2="1.769" y2="14.539" gradientUnits="objectBoundingBox">
      <stop offset="0" stop-color="#ffd43b"/>
      <stop offset="1" stop-color="#ffe873"/>
    </linearGradient>
    <radialGradient id="radial-gradient" cx="-17.696" cy="-37.263" r="16.935" gradientTransform="matrix(0, -0.194, -0.852, 0, -77.8, -137.983)" gradientUnits="userSpaceOnUse">
      <stop offset="0" stop-color="#b8b8b8" stop-opacity="0.498"/>
      <stop offset="1" stop-color="#7f7f7f" stop-opacity="0"/>
    </radialGradient>
  </defs>
  <g id="othrt_langauage_logo" transform="translate(-123 -742)">
    <g id="Group_28" data-name="Group 28">
      <g id="Group_27" data-name="Group 27">
        <g id="github-original" transform="translate(288.888 750.897)">
          <path id="Path_319" data-name="Path 319" d="M32.75,5.1a29.236,29.236,0,0,0-9.212,56.95c1.456.271,1.99-.634,1.99-1.406,0-.7-.027-3-.04-5.44-8.106,1.768-9.817-3.448-9.817-3.448-1.325-3.378-3.235-4.276-3.235-4.276-2.644-1.814.2-1.776.2-1.776A6.126,6.126,0,0,1,17.1,48.719c2.6,4.466,6.817,3.175,8.479,2.429a6.231,6.231,0,0,1,1.85-3.908C20.96,46.5,14.156,44,14.156,32.8a11.329,11.329,0,0,1,3-7.844,10.522,10.522,0,0,1,.282-7.733s2.446-.785,8.015,3a27.54,27.54,0,0,1,14.594,0c5.561-3.781,8-3,8-3a10.514,10.514,0,0,1,.286,7.733,11.307,11.307,0,0,1,3,7.844c0,11.224-6.817,13.694-13.3,14.418,1.046.907,1.977,2.686,1.977,5.411,0,3.91-.034,7.057-.034,8.019,0,.778.525,1.689,2,1.4A29.237,29.237,0,0,0,32.75,5.1Z" transform="translate(0 0)" fill="#181616" fill-rule="evenodd"/>
          <path id="Path_320" data-name="Path 320" d="M25.68,91.3c-.067.151-.3.2-.521.093s-.345-.3-.273-.456.3-.2.523-.095.347.307.27.458Zm-.374-.277,1.6,1.65c-.144.134-.428.072-.62-.141A.463.463,0,0,1,26.2,91.9c.15-.134.425-.07.624.141s.238.5.086.632Zm-.289-.311,1.488,2.061c-.186.13-.491.009-.679-.262s-.186-.6.005-.725.488-.013.679.255.185.6-.005.731Zm0,0,1.641,1.691c-.166.184-.521.134-.781-.116a.586.586,0,0,1-.173-.777c.169-.184.526-.133.787.116s.345.594.168.776Zm0,0,2.264.982c-.074.238-.415.346-.76.245s-.569-.382-.5-.623.414-.352.761-.244S32.086,96.852,32.015,97.094Zm0,0,2.487.182c.009.251-.283.458-.644.463s-.658-.195-.662-.441.286-.458.649-.465.657.195.657.443Zm0,0,2.314-.394c.043.244-.208.5-.567.562s-.679-.087-.725-.329.212-.5.565-.567.681.086.727.334Zm0,0" transform="translate(-11.106 -44.44)" fill="#181616"/>
        </g>
        <g id="java-original" transform="translate(459.031 740.413)">
          <path id="Path_321" data-name="Path 321" d="M43.085,91.737s-2.54,1.478,1.81,1.977a38.074,38.074,0,0,0,13.773-.582,24.137,24.137,0,0,0,3.663,1.786c-13.024,5.58-29.475-.323-19.246-3.181Zm-1.592-7.282s-2.85,2.11,1.5,2.561a53.741,53.741,0,0,0,17.775-.853,7.858,7.858,0,0,0,2.735,1.669C47.763,92.436,30.228,88.194,41.492,84.455Z" transform="translate(-9.316 -38.706)" fill="#0074bd"/>
          <path id="Path_322" data-name="Path 322" d="M67.223,45.3c3.211,3.7-.842,7.019-.842,7.019s8.148-4.205,4.407-9.474c-3.5-4.911-6.175-7.35,8.332-15.764C79.12,27.085,56.348,32.77,67.223,45.3Z" transform="translate(-21.631 -11.909)" fill="#ea2d2e"/>
          <path id="Path_323" data-name="Path 323" d="M62.817,89.949S64.7,91.5,60.745,92.7c-7.515,2.277-31.286,2.963-37.888.091-2.372-1.033,2.078-2.465,3.478-2.767a9.087,9.087,0,0,1,2.293-.258c-2.64-1.858-17.06,3.651-7.324,5.231C47.855,99.3,69.7,93.056,62.817,89.949ZM34.992,69.732S22.9,72.6,30.711,73.648A90.811,90.811,0,0,0,46.7,73.475c5-.42,10.026-1.318,10.026-1.318a21.347,21.347,0,0,0-3.04,1.627c-12.28,3.23-36,1.726-29.167-1.576a22.856,22.856,0,0,1,10.469-2.474ZM56.681,81.855c12.482-6.484,6.71-12.715,2.682-11.876a9.356,9.356,0,0,0-1.427.384A2.268,2.268,0,0,1,59,69.54c7.969-2.8,14.1,8.262-2.57,12.644A1.132,1.132,0,0,0,56.681,81.855Z" transform="translate(0 -31.53)" fill="#0074bd"/>
          <path id="Path_324" data-name="Path 324" d="M63.013,1.587S69.924,8.5,56.457,19.132c-10.8,8.53-2.463,13.392,0,18.95-6.3-5.688-10.93-10.7-7.828-15.356C53.181,15.887,65.8,12.569,63.013,1.587Z" transform="translate(-13.856)" fill="#ea2d2e"/>
          <path id="Path_325" data-name="Path 325" d="M43.971,120.679c11.978.766,30.377-.426,30.812-6.094,0,0-.837,2.149-9.9,3.854a98.426,98.426,0,0,1-30.316.466s1.532,1.269,9.4,1.775Z" transform="translate(-7.752 -52.779)" fill="#0074bd"/>
        </g>
        <g id="python-original" transform="translate(200.188 759.013)">
          <path id="Path_326" data-name="Path 326" d="M38.689,1.988a36.079,36.079,0,0,0-6.037.515c-5.346.944-6.316,2.921-6.316,6.568v4.815H38.969v1.6H21.594A7.888,7.888,0,0,0,13.7,21.9a23.609,23.609,0,0,0,0,12.839c.9,3.74,3.043,6.4,6.714,6.4H24.76V35.368a8.028,8.028,0,0,1,7.892-7.848H45.271a6.365,6.365,0,0,0,6.316-6.42V9.071c0-3.424-2.889-6-6.316-6.568a39.463,39.463,0,0,0-6.582-.516ZM31.857,5.86a2.408,2.408,0,1,1-2.37,2.415,2.4,2.4,0,0,1,2.37-2.415Z" transform="translate(0 0)" fill="url(#linear-gradient)"/>
          <path id="Path_327" data-name="Path 327" d="M66.072,28.38v5.61A8.1,8.1,0,0,1,58.18,42H45.561a6.445,6.445,0,0,0-6.316,6.42V60.45c0,3.423,2.977,5.437,6.316,6.419a21.146,21.146,0,0,0,12.619,0c3.18-.921,6.316-2.774,6.316-6.419V55.635H51.878V54.029H70.814c3.671,0,5.04-2.561,6.317-6.4,1.319-3.957,1.262-7.763,0-12.839-.908-3.655-2.64-6.406-6.317-6.406H66.072Zm-7.1,30.465a2.408,2.408,0,1,1-2.37,2.4A2.384,2.384,0,0,1,58.975,58.845Z" transform="translate(-12.909 -12.889)" fill="url(#linear-gradient-2)"/>
          <path id="Path_328" data-name="Path 328" d="M64.986,116.463c0,1.813-7.58,3.283-16.93,3.283s-16.93-1.47-16.93-3.283,7.58-3.283,16.93-3.283S64.986,114.649,64.986,116.463Z" transform="translate(-8.944 -54.305)" opacity="0.444" fill="url(#radial-gradient)"/>
        </g>
      </g>
      <path id="npm-original-wordmark" d="M2,38.5H94.392V71.068H48.2V76.5H27.661V71.068H2ZM7.134,65.644H17.4V49.356h5.134V65.644h5.134V43.932H7.134ZM32.795,43.932V71.068H43.062V65.644H53.33V43.932Zm10.267,5.432H48.2V60.212H43.062Zm15.4-5.432V65.644H68.731V49.356h5.134V65.644H79V49.356h5.134V65.644h5.134V43.932Z" transform="translate(367.608 734.5)" fill="#cb3837"/>
      <path id="atom-original" d="M19.617,36.281c-.393.817-.736,1.507-1.061,2.207A45.159,45.159,0,0,0,14.882,49.4a14.618,14.618,0,0,0-.045,6.386c.476,1.829,1.466,2.769,3.16,2.846a7.2,7.2,0,0,0,2.238-.326,17.309,17.309,0,0,0,5.181-2.718,1.3,1.3,0,0,1,1.277-.266,1.181,1.181,0,0,1,.447,2.008c-2.626,1.956-5.4,3.643-8.807,3.748a5.517,5.517,0,0,1-5.693-4.065,13.738,13.738,0,0,1-.459-6.066c.723-6.089,3.073-11.621,5.9-16.983a1.479,1.479,0,0,0,.085-1.319c-.7-2.024-1.36-4.065-2-6.109-.122-.387-.247-.5-.668-.405a26.421,26.421,0,0,0-7.941,2.8,12.269,12.269,0,0,0-2.613,2.053,3.119,3.119,0,0,0-.254,4.3,10.842,10.842,0,0,0,3.5,3.034c.418.256.858.473,1.279.724A1.239,1.239,0,0,1,9.965,40.7,1.21,1.21,0,0,1,8.3,41.2a16.5,16.5,0,0,1-5.028-3.714,6.743,6.743,0,0,1-1.7-3.4,5.552,5.552,0,0,1,1.191-4.369,11.515,11.515,0,0,1,3.794-3.076,30.37,30.37,0,0,1,8.2-2.857c.2-.042.388-.1.653-.161-.134-.76-.278-1.5-.393-2.241a22.855,22.855,0,0,1,.06-9.06,7.855,7.855,0,0,1,1.557-3.267,5.651,5.651,0,0,1,6.105-1.79,15.517,15.517,0,0,1,6.122,3.367,1.191,1.191,0,0,1,.109,1.689,1.218,1.218,0,0,1-1.687.171c-.921-.627-1.817-1.3-2.775-1.864a7.073,7.073,0,0,0-3.587-1.115,2.924,2.924,0,0,0-2.545,1.314,7.765,7.765,0,0,0-1.21,3.717,26.777,26.777,0,0,0,.6,8.255c.058.29.169.392.474.362,2.2-.22,4.4-.439,6.606-.623a1.408,1.408,0,0,0,1.089-.588,54.255,54.255,0,0,1,9.7-9.764A21.242,21.242,0,0,1,42.372,8.53,7.519,7.519,0,0,1,47.1,8.449a5.738,5.738,0,0,1,3.641,4.124,15.484,15.484,0,0,1,.264,6.237c-.063.536-.157,1.069-.258,1.6a1.185,1.185,0,0,1-1.392,1.019,1.143,1.143,0,0,1-1.013-1.334c.1-1.008.325-2.011.335-3.017a16.343,16.343,0,0,0-.261-3.568c-.517-2.4-2.18-3.348-4.641-2.805a15.1,15.1,0,0,0-5.042,2.3,43.53,43.53,0,0,0-8.472,7.6c-.472.53-.926,1.077-1.384,1.619-.028.032-.026.09-.061.227h.664a71.88,71.88,0,0,1,19.264,2.654,33.609,33.609,0,0,1,8.55,3.643,13.841,13.841,0,0,1,3.744,3.23,5.812,5.812,0,0,1-.491,8.188,15.669,15.669,0,0,1-5.772,3.483,1.189,1.189,0,0,1-1.5-.686,1.237,1.237,0,0,1,.669-1.608c.987-.478,2.013-.892,2.946-1.46a10.285,10.285,0,0,0,2.121-1.707,3.209,3.209,0,0,0,.247-4.465,10.533,10.533,0,0,0-3.142-2.762A34.7,34.7,0,0,0,46.575,27.1a57.007,57.007,0,0,0-10.616-1.829c-2.864-.2-5.738-.262-8.607-.4a.932.932,0,0,0-.928.458c-1.682,2.594-3.383,5.176-5.056,7.776a.918.918,0,0,0-.09.73A70.522,70.522,0,0,0,32.452,52.452a29.745,29.745,0,0,0,6.822,6.169,8.737,8.737,0,0,0,4.036,1.515A3.041,3.041,0,0,0,46.338,58.5a8.362,8.362,0,0,0,1.006-3.527,32.469,32.469,0,0,0-1.466-11.648,68.59,68.59,0,0,0-4.326-11.289,2.116,2.116,0,0,1-.24-.959,1.17,1.17,0,0,1,1.049-1.074,1.217,1.217,0,0,1,1.273.731c.622,1.331,1.253,2.66,1.822,4.014a58.114,58.114,0,0,1,3.92,12.962,23.951,23.951,0,0,1,.047,9.415,10.847,10.847,0,0,1-.7,2.054,5.6,5.6,0,0,1-6.63,3.28,15.283,15.283,0,0,1-6.2-3.217,45.322,45.322,0,0,1-8.682-9.532,75.436,75.436,0,0,1-7.283-12.8c-.076-.167-.162-.33-.311-.632ZM18.384,25.57l1.56,4.96,3.616-5.52-5.176.561Zm13.845,12.8a3.545,3.545,0,1,1,3.59-3.549A3.549,3.549,0,0,1,32.229,38.373Z" transform="translate(121.494 747.974)" fill="#5519ff" fill-rule="evenodd"/>
    </g>
  </g>
</svg>
