<svg xmlns="http://www.w3.org/2000/svg" xmlns:xlink="http://www.w3.org/1999/xlink" width="395.158" height="49" viewBox="0 0 395.158 49">
  <defs>
    <clipPath id="clip-path">
      <rect id="Rectangle_76" data-name="Rectangle 76" width="47" height="47" transform="translate(310 754)" fill="#fff" stroke="#707070" stroke-width="1"/>
    </clipPath>
    <clipPath id="clip-path-2">
      <rect id="Rectangle_79" data-name="Rectangle 79" width="47" height="47" transform="translate(303 754)" fill="#fff" stroke="#707070" stroke-width="1"/>
    </clipPath>
  </defs>
  <g id="ui_design_logos" data-name="ui_design logos" transform="translate(-127 -753)">
    <g id="Group_27" data-name="Group 27">
      <g id="sketch-2" transform="translate(220.515 755.58)">
        <path id="Path_304" data-name="Path 304" d="M9.474,0,23.391,27.238,0,0Z" transform="translate(0.17 15.515)" fill="#ea6c00" fill-rule="evenodd"/>
        <path id="Path_305" data-name="Path 305" d="M9.474,27.238,23.391,0,0,27.238Z" transform="translate(46.955 42.753) rotate(180)" fill="#ea6c00" fill-rule="evenodd"/>
        <path id="Path_306" data-name="Path 306" d="M0,0H27.832L13.916,27.238Z" transform="translate(9.644 15.515)" fill="#fdad00" fill-rule="evenodd"/>
        <path id="Path_307" data-name="Path 307" d="M13.916,0,.732,1.394,0,15.1Z" transform="translate(9.644 0.42)" fill="#fdd231" fill-rule="evenodd"/>
        <path id="Path_308" data-name="Path 308" d="M13.916,15.1.732,13.7,0,0Z" transform="translate(37.476 15.515) rotate(180)" fill="#fdd231" fill-rule="evenodd"/>
        <path id="Path_309" data-name="Path 309" d="M0,0,10.207,13.7,9.474,0Z" transform="translate(46.955 15.515) rotate(180)" fill="#fdad00" fill-rule="evenodd"/>
        <path id="Path_310" data-name="Path 310" d="M0,13.7,10.207,0,9.474,13.7Z" transform="translate(0.17 1.814)" fill="#fdad00" fill-rule="evenodd"/>
        <path id="Path_311" data-name="Path 311" d="M13.916,0,0,15.1H27.832Z" transform="translate(9.644 0.42)" fill="#feeeb7" fill-rule="evenodd"/>
      </g>
      <g id="adobe-xd" transform="translate(127 754)">
        <path id="Path_312" data-name="Path 312" d="M10,10H55.128V53.9H10Z" transform="translate(-7.949 -7.949)" fill="#2e001e"/>
        <path id="Path_313" data-name="Path 313" d="M0,0V48H49.231V0ZM2.051,2.051H47.179v43.9H2.051Z" fill="#ff2bc2"/>
        <path id="Path_314" data-name="Path 314" d="M71.687,64.279a2.817,2.817,0,0,0-1.19-.205c-2.585,0-4.308,1.99-4.308,5.292,0,3.774,1.764,5.292,4.062,5.292a3.87,3.87,0,0,0,1.415-.226V64.279ZM62.5,69.531c0-4.779,3.077-8.513,8.123-8.513a9.1,9.1,0,0,1,1.067.041V55.726a.206.206,0,0,1,.205-.205h3.3c.164,0,.205.062.205.164V74.433a14.611,14.611,0,0,0,.1,2.01c0,.144,0,.164-.123.226a12.219,12.219,0,0,1-5.251,1.19C65.677,77.859,62.5,75.11,62.5,69.531ZM55.5,66.208l5.744,11.138c.1.164.041.328-.123.328H57.554a.4.4,0,0,1-.431-.267q-1.969-4.062-4.021-8.431h-.041c-1.231,2.749-2.585,5.744-3.9,8.451a.394.394,0,0,1-.369.226H45.39c-.205,0-.226-.164-.123-.287l5.621-10.81L45.451,55.808a.182.182,0,0,1,.144-.308h3.528c.205,0,.308.041.369.226,1.292,2.728,2.605,5.415,3.836,8.164h.041c1.19-2.708,2.5-5.436,3.754-8.123.1-.164.164-.267.369-.267h3.3c.164,0,.226.123.123.308Z" transform="translate(-35.933 -44.115)" fill="#ff2bc2"/>
      </g>
      <g id="android-original" transform="translate(389.029 752.159)">
        <path id="Path_315" data-name="Path 315" d="M14.574,58.543a3.605,3.605,0,0,1-3.6-3.6V43.91a3.6,3.6,0,0,1,7.2,0V54.94a3.6,3.6,0,0,1-3.6,3.6m0-17.267a2.635,2.635,0,0,0-2.634,2.634l0,11.029a2.634,2.634,0,1,0,5.268,0V43.909a2.636,2.636,0,0,0-2.636-2.633" transform="translate(0 -24.663)" fill="#fff"/>
        <path id="Path_316" data-name="Path 316" d="M53.888,17.158h-.968l-23.726,0h-.969v-.969a11.642,11.642,0,0,1,5.712-9.858L32.556,3.817a1.324,1.324,0,0,1-.113-1.01,1.339,1.339,0,0,1,.651-.8,1.294,1.294,0,0,1,.631-.16,1.337,1.337,0,0,1,1.172.694l1.444,2.63a13.86,13.86,0,0,1,9.439,0l1.441-2.634A1.334,1.334,0,1,1,49.56,3.82L48.181,6.337a11.659,11.659,0,0,1,5.705,9.853v.969ZM46.874,6.708l1.838-3.357A.365.365,0,1,0,48.072,3L46.215,6.39a12.839,12.839,0,0,0-10.31,0L34.046,3a.364.364,0,1,0-.639.35l1.839,3.354a10.757,10.757,0,0,0-6.053,9.487l23.726,0a10.761,10.761,0,0,0-6.045-9.483M35.658,11.9a.995.995,0,1,1,1-.994.995.995,0,0,1-1,.994m10.8,0a1,1,0,1,1,.993-.994.993.993,0,0,1-.993.994M36.652,46.451a3.606,3.606,0,0,1-3.6-3.6V37.981H32.1a3.777,3.777,0,0,1-3.779-3.78l0-17.091v-.969h.969l23.548,0h.969v.969l0,17.093a3.784,3.784,0,0,1-3.779,3.78h-.952v4.867a3.606,3.606,0,0,1-3.6,3.6,3.6,3.6,0,0,1-3.6-3.6V37.98H40.255v4.868a3.608,3.608,0,0,1-3.6,3.6" transform="translate(-11.062)" fill="#fff"/>
        <path id="Path_317" data-name="Path 317" d="M31.2,58.858a2.806,2.806,0,0,0,2.81,2.812h1.914l0,5.836a2.633,2.633,0,1,0,5.265,0V61.67h3.556V67.5a2.635,2.635,0,0,0,5.27,0l0-5.834h1.921a2.812,2.812,0,0,0,2.81-2.812l0-17.093-23.548,0Zm27.2-.327a3.6,3.6,0,0,1-3.6-3.6l0-11.03a3.6,3.6,0,1,1,7.2,0V54.928a3.605,3.605,0,0,1-3.6,3.6m0-17.266A2.633,2.633,0,0,0,55.758,43.9V54.93a2.634,2.634,0,1,0,5.268,0l0-11.029a2.632,2.632,0,0,0-2.633-2.634" transform="translate(-12.966 -24.656)" fill="#fff"/>
        <path id="Path_318" data-name="Path 318" d="M16.3,18.341a2.635,2.635,0,0,0-2.634,2.634l0,11.029a2.634,2.634,0,1,0,5.268,0V20.974A2.636,2.636,0,0,0,16.3,18.341m21.241-9.9L39.377,5.08a.365.365,0,1,0-.64-.352L36.881,8.12a12.834,12.834,0,0,0-10.31-.005L24.711,4.731a.364.364,0,1,0-.639.35l1.839,3.355a10.756,10.756,0,0,0-6.053,9.487l23.726,0a10.761,10.761,0,0,0-6.045-9.483M26.323,13.625a.995.995,0,1,1,1-.994.995.995,0,0,1-1,.994m10.8,0a1,1,0,1,1,.993-.994.994.994,0,0,1-.993.994M19.955,18.839l0,17.093a2.807,2.807,0,0,0,2.81,2.81h1.914l0,5.836a2.634,2.634,0,1,0,5.267,0V38.743h3.556v5.836a2.634,2.634,0,1,0,5.268,0l0-5.834h1.921a2.812,2.812,0,0,0,2.812-2.811l0-17.093-23.549,0Zm29.832,2.133a2.634,2.634,0,1,0-5.267,0l0,11.03a2.633,2.633,0,1,0,5.267,0l0-11.03Z" transform="translate(-1.727 -1.729)" fill="#a4c439"/>
      </g>
      <path id="apple-original" d="M46.125,27.432a10.63,10.63,0,0,0,6.454,9.73A26.317,26.317,0,0,1,49.251,44c-2,2.93-4.085,5.848-7.362,5.909-3.22.059-4.255-1.91-7.937-1.91s-4.831,1.849-7.879,1.969c-3.163.12-5.572-3.168-7.593-6.087-4.13-5.971-7.286-16.872-3.048-24.23a11.773,11.773,0,0,1,9.951-6.027c3.106-.059,6.038,2.09,7.937,2.09s5.46-2.584,9.206-2.2a11.234,11.234,0,0,1,8.8,4.771,10.878,10.878,0,0,0-5.2,9.151M40.073,9.561a10.594,10.594,0,0,0,2.5-7.678A10.778,10.778,0,0,0,35.49,5.528a10.065,10.065,0,0,0-2.551,7.438,8.919,8.919,0,0,0,7.134-3.4" transform="translate(469.579 751.117)"/>
      <g id="Mask_Group_16" data-name="Mask Group 16" clip-path="url(#clip-path-2)">
        <g id="figma-1" transform="translate(310.833 754)">
          <path id="path0_fill" d="M7.833,47a7.836,7.836,0,0,0,7.833-7.833V31.333H7.833A7.833,7.833,0,1,0,7.833,47Z" fill="#0acf83"/>
          <path id="path1_fill" d="M0,23.5a7.836,7.836,0,0,1,7.833-7.833h7.833V31.333H7.833A7.836,7.836,0,0,1,0,23.5Z" fill="#a259ff"/>
          <path id="path1_fill_1_" d="M0,7.833A7.836,7.836,0,0,1,7.833,0h7.833V15.667H7.833A7.836,7.836,0,0,1,0,7.833Z" fill="#f24e1e"/>
          <path id="path2_fill" d="M15.667,0H23.5a7.833,7.833,0,1,1,0,15.667H15.667Z" fill="#ff7262"/>
          <path id="path3_fill" d="M31.333,23.5A7.833,7.833,0,1,1,23.5,15.667,7.836,7.836,0,0,1,31.333,23.5Z" fill="#1abcfe"/>
        </g>
      </g>
    </g>
  </g>
</svg>
