<?xml version="1.0" encoding="UTF-8"?>
<svg id="canvas" xmlns="http://www.w3.org/2000/svg" version="1.1" viewBox="0 0 660.3 83.85">
  <!-- Generator: Adobe Illustrator 29.7.0, SVG Export Plug-In . SVG Version: 2.1.1 Build 138)  -->
  <defs>
    <style>
      .st0 {
        stroke: #000;
      }
    </style>
  </defs>
  <path class="st0" d="M26.46,3.34c-.7.55-.97,1.35-1.68,3.05-.72,1.7-1.17,2.79-1.91,5.46-.74,2.67-.88,4.46-1.78,7.89-.9,3.42-1.45,5.38-2.73,9.24-1.27,3.85-2.15,5.92-3.65,10.02-1.51,4.1-2.35,6.35-3.87,10.49-1.52,4.15-2.41,6.38-3.74,10.22-1.33,3.85-2.1,5.8-2.92,9.02-.82,3.22-1.24,4.83-1.17,7.07.07,2.23.46,3.15,1.52,4.11,1.06.97,1.99,1.16,3.78.71,1.78-.45,3.07-1.05,5.15-2.96,2.08-1.92,3-3.71,5.26-6.62,2.26-2.9,3.47-4.67,6.04-7.91,2.56-3.24,3.96-4.98,6.76-8.28,2.81-3.29,4.33-4.98,7.27-8.19s4.49-4.86,7.44-7.85c2.96-2.99,4.46-4.51,7.34-7.1,2.89-2.6,4.39-3.7,7.09-5.87,2.69-2.17,4.06-3.21,6.41-5,2.34-1.78,3.37-2.6,5.3-3.92,1.93-1.33,2.81-1.74,4.34-2.68,1.54-.95,2.34-1.33,3.34-2.05,1-.73,1.21-1.02,1.65-1.56.45-.55.58-.76.6-1.16,0-.4-.17-.66-.51-.84-.34-.19-.5-.16-1.2-.09-.7.07-1.1-.02-2.28.43-1.18.45-1.96.92-3.61,1.84-1.64.92-2.6,1.37-4.62,2.74-2.03,1.38-3.16,2.23-5.5,4.15-2.34,1.92-3.55,3.13-6.19,5.46-2.63,2.33-4.12,3.49-6.99,6.19-2.87,2.7-4.38,4.27-7.35,7.33-2.96,3.05-4.5,4.72-7.47,7.94-2.98,3.22-4.52,4.92-7.42,8.17s-4.35,4.99-7.1,8.08c-2.75,3.08-4.18,4.72-6.65,7.34s-3.95,3.82-5.68,5.75c-1.73,1.92-2.19,2.93-2.95,3.89-.77.96-.83,1.26-.88.9-.05-.35.22-.84.62-2.67.4-1.82.64-3.36,1.37-6.43.74-3.08,1.14-5.11,2.31-8.93,1.16-3.82,2.03-6.05,3.53-10.17,1.49-4.12,2.34-6.36,3.92-10.44,1.58-4.08,2.5-6.13,3.99-9.95,1.49-3.82,2.21-5.77,3.46-9.16s2.08-5.04,2.81-7.79c.72-2.75.74-4.05.81-5.96.07-1.91-.02-2.8-.47-3.58-.45-.78-1.1-.87-1.79-.33"/>
  <path class="st0" d="M44.67,47.89c-.58.24-.93.47-1.26,1.34-.33.86-.57,1.64-.39,2.98.18,1.33.57,2.23,1.29,3.68.73,1.45,1.32,2.15,2.35,3.57,1.03,1.41,1.58,2.11,2.82,3.49,1.25,1.37,1.91,2.12,3.41,3.38,1.49,1.27,2.31,1.93,4.08,2.93,1.77,1,2.73,1.44,4.75,2.07,2.03.64,3.07.94,5.36,1.09,2.3.16,3.63.09,6.14-.3,2.5-.4,3.81-.79,6.38-1.67,2.57-.88,3.89-1.49,6.46-2.73,2.56-1.25,3.84-2,6.38-3.5,2.54-1.5,3.82-2.4,6.32-3.99s3.88-2.43,6.19-3.96,3.36-2.31,5.35-3.7c1.98-1.38,2.94-2.05,4.57-3.23s2.4-1.7,3.56-2.66c1.16-.96,1.64-1.32,2.23-2.15.6-.83.8-1.2.75-2s-.33-1.41-.99-2c-.65-.58-1.25-.85-2.29-.92-1.05-.08-1.65.08-2.92.53-1.28.46-2,.91-3.45,1.75-1.45.85-2.29,1.35-3.81,2.47-1.51,1.12-2.28,1.73-3.75,3.14-1.47,1.4-2.28,2.23-3.58,3.89-1.3,1.67-1.92,2.61-2.93,4.43-1,1.82-1.5,2.83-2.1,4.67-.6,1.85-.83,2.86-.89,4.57s.04,2.58.6,3.98c.56,1.4,1.05,2.09,2.2,3.01,1.15.92,1.95,1.33,3.55,1.59,1.6.26,2.58.17,4.43-.29,1.84-.45,2.88-.95,4.8-2,1.93-1.06,2.92-1.81,4.84-3.28,1.92-1.47,2.9-2.35,4.76-4.07,1.87-1.72,2.93-2.73,4.58-4.55,1.65-1.82,2.59-2.94,3.68-4.55,1.1-1.62,1.53-2.5,1.78-3.53s0-1.46-.53-1.63c-.52-.17-1.28.02-2.1.78-.83.77-1.43,1.54-2.02,3.04-.6,1.5-.8,2.64-.95,4.46-.15,1.82-.19,2.97.21,4.66.39,1.7.81,2.58,1.76,3.83.95,1.25,1.57,1.79,2.98,2.44,1.41.65,2.32.8,4.08.8s2.77-.18,4.76-.81c1.99-.62,3.09-1.21,5.19-2.32,2.1-1.1,3.18-1.83,5.3-3.21s3.25-2.19,5.29-3.68c2.05-1.49,3.18-2.38,4.92-3.77,1.74-1.38,2.65-2.15,3.79-3.15,1.13-1,1.54-1.46,1.9-1.83.35-.38.15-.44-.12-.05-.28.39-.73.84-1.26,2-.52,1.15-.87,2.08-1.38,3.78-.5,1.71-.74,2.87-1.14,4.72-.4,1.84-.66,2.9-.86,4.52-.2,1.62-.38,2.43-.15,3.56.23,1.14.54,1.66,1.28,2.12.73.47,1.42.52,2.38.22.95-.3,1.57-.7,2.39-1.72.81-1.02,1.07-1.91,1.68-3.38.61-1.48.77-2.36,1.38-3.98.61-1.62.96-2.53,1.68-4.12.73-1.6,1.15-2.39,1.93-3.85.77-1.45,1.2-2.19,1.95-3.43.74-1.25,1.06-1.89,1.77-2.79.71-.9.97-1.18,1.78-1.71.81-.52,1.23-.62,2.27-.91,1.04-.28,1.58-.32,2.94-.52,1.36-.19,2.11-.19,3.86-.45,1.75-.26,2.83-.36,4.9-.84,2.07-.49,3.15-.83,5.44-1.58,2.28-.76,3.48-1.18,5.98-2.21,2.5-1.03,3.92-1.61,6.53-2.94,2.61-1.33,3.95-2.14,6.54-3.7,2.6-1.56,3.93-2.4,6.44-4.09,2.52-1.69,3.83-2.63,6.14-4.35,2.31-1.73,3.42-2.6,5.43-4.28,2-1.68,3.09-2.53,4.6-4.11,1.52-1.59,2.36-2.54,2.98-3.83.61-1.29.5-2.01.09-2.62-.4-.61-1.06-.79-2.13-.41-1.06.37-1.89.84-3.18,2.29-1.29,1.45-1.99,2.64-3.26,4.96s-1.81,3.82-3.09,6.63c-1.28,2.8-1.98,4.34-3.32,7.39-1.33,3.05-2.05,4.72-3.36,7.85-1.31,3.12-2.05,4.82-3.21,7.78-1.16,2.95-1.77,4.47-2.6,6.99-.82,2.51-1.08,3.73-1.52,5.58-.43,1.85-.57,2.57-.64,3.65-.07,1.08.02,1.36.28,1.77.26.41.74.33,1.03.29.3-.04.68-.4.45-.48-.23-.08-1.37-.07-1.59.07-.22.15.14.52.5.65.36.13.8.31,1.3.02.49-.28.66-.49,1.16-1.45.5-.97.67-1.64,1.32-3.37.65-1.74,1.07-2.87,1.92-5.32.84-2.44,1.25-3.99,2.32-6.92,1.06-2.92,1.71-4.63,3-7.69,1.3-3.07,2.02-4.72,3.46-7.64,1.45-2.92,2.26-4.37,3.78-6.95,1.52-2.58,2.48-3.79,3.8-5.95,1.33-2.16,2.05-3.19,2.82-4.85.77-1.66,1-2.41,1.03-3.47.04-1.05-.23-1.55-.87-1.8-.63-.24-1.17-.14-2.29.58-1.13.72-1.79,1.64-3.32,3.02-1.53,1.38-2.41,2.29-4.34,3.89-1.92,1.59-3.04,2.41-5.28,4.1-2.23,1.68-3.45,2.68-5.87,4.32-2.43,1.64-3.72,2.44-6.24,3.88-2.53,1.44-3.85,2.11-6.38,3.31-2.53,1.2-3.88,1.73-6.27,2.7-2.38.96-3.52,1.43-5.65,2.13-2.14.7-3.11.93-5.04,1.37-1.92.44-2.89.5-4.6.82-1.7.33-2.46.43-3.93.79-1.47.37-2.12.51-3.42,1.03-1.3.52-1.93.79-3.09,1.57-1.16.77-1.69,1.22-2.71,2.3-1.02,1.07-1.45,1.75-2.38,3.08-.93,1.33-1.36,2.06-2.26,3.57-.91,1.51-1.39,2.34-2.26,3.97-.87,1.63-1.27,2.59-2.08,4.18-.8,1.59-1.29,2.35-1.93,3.78-.64,1.43-1.05,2.22-1.27,3.35-.21,1.14-.04,1.68.21,2.32.25.65.59.91,1.04.89.46-.03.77-.22,1.25-1.02.48-.79.64-1.52,1.16-2.94.51-1.43.82-2.41,1.42-4.19.59-1.77,1.15-2.84,1.56-4.69.41-1.85.6-2.94.49-4.54-.12-1.6-.35-2.44-1.08-3.48-.73-1.03-1.31-1.49-2.59-1.67-1.28-.19-2.16.03-3.81.76-1.65.73-2.56,1.58-4.43,2.88-1.88,1.3-2.91,2.2-4.92,3.62-2.01,1.42-3.11,2.19-5.13,3.47-2.03,1.27-3.1,1.89-5,2.89-1.89,1-2.88,1.47-4.47,2.11-1.59.64-2.3.83-3.47,1.08-1.17.25-1.65.35-2.37.18-.71-.17-.88-.37-1.19-1.02-.32-.66-.47-1.16-.37-2.25.09-1.09.43-1.82.84-3.22.41-1.39.97-2.32,1.21-3.77.24-1.46.23-2.36,0-3.51-.23-1.16-.45-1.8-1.14-2.27-.7-.47-1.25-.59-2.34-.1-1.09.49-1.75,1.2-3.11,2.55-1.35,1.36-2.09,2.52-3.68,4.21-1.59,1.7-2.53,2.67-4.27,4.27-1.75,1.59-2.7,2.4-4.45,3.71s-2.69,1.9-4.3,2.83c-1.61.93-2.47,1.3-3.76,1.82-1.29.51-1.82.68-2.69.77-.88.09-1.18,0-1.69-.32-.51-.32-.71-.55-.87-1.29s-.13-1.25.09-2.42c.22-1.17.42-1.97,1.01-3.44.58-1.46,1.01-2.34,1.91-3.87s1.44-2.36,2.59-3.79c1.14-1.42,1.84-2.16,3.13-3.34,1.28-1.18,1.95-1.68,3.3-2.57,1.36-.88,2.17-1.22,3.47-1.84,1.29-.63,1.99-.81,3.01-1.27,1.02-.47,1.5-.54,2.08-1.05.59-.51.76-.99.84-1.5.07-.51-.1-.91-.46-1.07-.36-.15-.6-.07-1.33.28-.74.35-1.15.71-2.34,1.48-1.19.77-1.98,1.28-3.63,2.37s-2.6,1.77-4.61,3.08c-2.01,1.31-3.12,1.97-5.43,3.46-2.3,1.5-3.64,2.43-6.1,4.01-2.45,1.57-3.71,2.46-6.17,3.86-2.46,1.41-3.71,2.04-6.13,3.17s-3.65,1.68-5.97,2.48c-2.32.8-3.48,1.13-5.62,1.53-2.14.39-3.22.5-5.09.43-1.87-.07-2.65-.27-4.26-.79-1.61-.51-2.37-.92-3.78-1.78-1.42-.87-2.08-1.43-3.32-2.53-1.24-1.11-1.84-1.77-2.88-3-1.04-1.22-1.55-1.88-2.32-3.12-.78-1.23-1.06-1.92-1.55-3.06-.49-1.15-.55-1.76-.91-2.66-.36-.91-.49-1.29-.89-1.87-.39-.59-.52-.8-1.07-1.04-.55-.23-1.09-.37-1.68-.13"/>
  <path class="st0" d="M208.24,51.97c.1.76.57,1.39,1.54,2.13.97.73,1.69,1.16,3.3,1.56,1.61.39,2.67.51,4.75.42,2.08-.09,3.25-.23,5.65-.88,2.41-.64,3.73-1.13,6.38-2.34,2.64-1.21,4.05-2.06,6.85-3.7,2.81-1.64,4.27-2.56,7.18-4.5s4.48-3.05,7.39-5.18c2.91-2.13,4.45-3.31,7.15-5.49,2.7-2.18,4.04-3.36,6.36-5.43,2.31-2.07,3.43-3.1,5.21-4.93,1.78-1.84,2.64-2.72,3.7-4.24,1.05-1.52,1.45-2.31,1.57-3.38.12-1.08-.26-1.6-.97-1.98-.72-.38-1.45-.47-2.61.08-1.17.55-1.93,1.11-3.22,2.67s-1.95,2.81-3.22,5.14c-1.27,2.34-1.84,3.76-3.14,6.53-1.29,2.78-2.09,4.4-3.34,7.35-1.26,2.95-1.96,4.54-2.93,7.4-.97,2.85-1.39,4.33-1.92,6.87-.53,2.54-.82,3.76-.73,5.82.09,2.05.34,3.1,1.18,4.46.85,1.36,1.57,1.84,3.04,2.33,1.47.5,2.46.49,4.3.15,1.84-.34,2.91-.85,4.89-1.84,1.99-.99,3-1.77,5.04-3.1,2.04-1.32,3.12-2.15,5.16-3.52,2.03-1.37,3.17-2.12,5.02-3.32,1.85-1.21,2.87-1.85,4.22-2.69,1.36-.85,1.91-1.21,2.54-1.54.63-.32.62-.36.59-.06-.02.29-.4.64-.72,1.54-.32.9-.64,1.61-.88,2.94-.23,1.33-.35,2.24-.29,3.71s.14,2.31.59,3.62c.45,1.32.73,1.97,1.65,2.95.92.98,1.56,1.52,2.96,1.94,1.4.42,2.31.43,4.03.16,1.71-.27,2.62-.66,4.54-1.5,1.91-.85,3-1.48,5.03-2.71s3.09-2.05,5.12-3.44c2.02-1.39,3.08-2.18,5.02-3.51,1.93-1.33,2.99-2.03,4.65-3.14,1.66-1.1,2.47-1.57,3.63-2.37,1.16-.81,1.73-1.23,2.17-1.63.43-.4.22-.56,0-.39-.22.17-.61.44-1.1,1.25-.5.82-.9,1.46-1.37,2.84-.47,1.39-.75,2.41-.99,4.08-.23,1.67-.31,2.64-.2,4.27.1,1.63.13,2.5.71,3.88.59,1.38,1.05,2.07,2.2,3.02,1.15.95,1.91,1.36,3.53,1.72,1.62.35,2.6.38,4.58.05,1.98-.33,3.13-.76,5.31-1.69,2.19-.94,3.29-1.55,5.63-2.98,2.33-1.43,3.59-2.33,6.04-4.17,2.44-1.84,3.73-2.94,6.19-5.05,2.45-2.11,3.68-3.28,6.08-5.51,2.41-2.24,3.72-3.4,5.96-5.67,2.23-2.26,3.32-3.42,5.21-5.64,1.89-2.22,2.78-3.35,4.24-5.45,1.47-2.09,2.14-3.12,3.1-5.02.95-1.89,1.26-2.82,1.67-4.44.4-1.63.61-2.4.35-3.7-.25-1.31-.68-2.12-1.64-2.83-.95-.72-1.81-.92-3.14-.75-1.33.18-2.1.54-3.5,1.64-1.39,1.09-2.12,1.96-3.47,3.84s-1.99,3.06-3.29,5.55c-1.29,2.49-1.96,4.01-3.2,6.89s-1.89,4.55-3.01,7.52c-1.13,2.96-1.72,4.52-2.59,7.32-.88,2.8-1.31,4.25-1.79,6.67-.47,2.42-.6,3.6-.58,5.44.01,1.84.05,2.64.65,3.78.6,1.13,1.19,1.55,2.34,1.89,1.15.34,2.04.3,3.42-.2s2.09-1.16,3.47-2.28c1.39-1.12,2.03-1.91,3.45-3.32,1.43-1.42,2.22-2.28,3.69-3.75,1.47-1.48,2.24-2.29,3.67-3.64,1.43-1.35,2.2-2,3.49-3.1,1.28-1.11,1.92-1.66,2.92-2.44,1-.79,1.43-1.05,2.07-1.49.65-.44.92-.54,1.15-.71.23-.18.11-.23,0-.15-.11.08-.33.2-.55.56-.21.36-.3.59-.52,1.24-.22.64-.3,1.1-.58,1.97-.29.86-.45,1.41-.84,2.35s-.69,1.46-1.13,2.36c-.43.9-.66,1.4-1.02,2.14-.36.74-.49,1.01-.78,1.58-.29.56-.53.69-.67,1.25-.13.57-.15.93-.02,1.57.13.64.27,1.04.69,1.65.41.6.7,1.04,1.39,1.38.68.35,1.17.34,2.04.35.87,0,1.24-.18,2.31-.32,1.07-.13,1.71-.16,3.04-.36,1.34-.21,2.1-.34,3.64-.66,1.54-.31,2.35-.5,4.06-.92,1.71-.42,2.7-.64,4.49-1.19,1.78-.55,2.74-.68,4.41-1.56,1.67-.89,3.3-1.88,3.91-2.88.61-1,.24-1.83-.87-2.14-1.11-.3-2.91.24-4.67.62-1.77.39-2.45.86-4.14,1.32s-2.67.61-4.3.99c-1.63.39-2.42.65-3.84.93-1.43.27-2.05.33-3.29.43-1.25.11-1.9.02-2.95.09s-1.6.1-2.3.25-.92.24-1.2.51c-.28.27-.21.52-.2.85,0,.34.06.63.22.82.16.19.28.28.59.13.3-.16.53-.43.95-.92.42-.5.62-.85,1.13-1.55.52-.7.84-1.07,1.46-1.96.62-.89,1.04-1.41,1.65-2.49.6-1.08.99-1.73,1.39-2.93.39-1.2.59-1.95.58-3.07-.02-1.12-.24-1.66-.67-2.52-.43-.86-.75-1.24-1.46-1.77-.72-.54-1.18-.79-2.1-.9-.93-.12-1.45-.02-2.52.32-1.08.35-1.61.66-2.87,1.41s-1.97,1.26-3.42,2.34c-1.45,1.08-2.29,1.76-3.84,3.08-1.56,1.33-2.38,2.14-3.94,3.55-1.57,1.41-2.42,2.18-3.89,3.51-1.48,1.32-2.35,1.93-3.5,3.11-1.15,1.17-1.63,1.89-2.24,2.75-.61.86-.67,1.28-.81,1.54-.14.25-.04.32.11-.29.16-.6.34-1.23.66-2.75.33-1.52.4-2.62.96-4.84s1-3.59,1.85-6.27c.84-2.67,1.27-4.26,2.37-7.1,1.11-2.85,1.8-4.43,3.14-7.12,1.34-2.69,2.24-4.05,3.57-6.32,1.33-2.27,1.95-3.35,3.08-5.04,1.12-1.69,1.77-2.35,2.54-3.43.77-1.07.99-1.45,1.29-1.93.3-.48.17-.58.2-.46.03.12.09.36-.06,1.05-.14.68-.2,1.18-.66,2.38-.47,1.2-.72,2.01-1.65,3.63-.92,1.61-1.55,2.52-2.97,4.44-1.41,1.91-2.31,2.98-4.09,5.13-1.79,2.15-2.71,3.37-4.82,5.59-2.12,2.23-3.4,3.38-5.76,5.54-2.36,2.15-3.59,3.28-6.03,5.25-2.45,1.96-3.76,2.91-6.17,4.55-2.42,1.64-3.69,2.39-5.89,3.65-2.19,1.26-3.2,1.81-5.08,2.64-1.88.84-2.87,1.12-4.34,1.54s-2.04.53-3.01.56c-.96.02-1.29-.09-1.81-.44-.52-.34-.69-.54-.8-1.29-.1-.76.05-1.33.28-2.5.23-1.16.45-1.92.88-3.34.42-1.42.96-2.27,1.24-3.77.27-1.5.35-2.41.14-3.72-.22-1.32-.48-2.01-1.23-2.86-.74-.85-1.27-1.26-2.49-1.38-1.22-.13-2.06.15-3.6.74s-2.31,1.17-4.12,2.21c-1.8,1.04-2.91,1.7-4.92,2.97-2.01,1.27-3.1,2.07-5.13,3.37-2.03,1.3-3.09,2.01-5.01,3.13-1.92,1.12-2.98,1.65-4.59,2.46-1.62.82-2.36,1.19-3.48,1.64-1.13.45-1.52.57-2.16.61-.64.04-.79-.06-1.04-.42-.25-.36-.27-.6-.21-1.39.07-.79.29-1.36.51-2.56.23-1.2.56-2.02.62-3.43.07-1.42.07-2.31-.3-3.63-.37-1.32-.64-2.08-1.53-2.96-.89-.89-1.5-1.3-2.9-1.46-1.41-.15-2.32.04-4.12.66-1.8.63-2.86,1.33-4.89,2.48s-3.16,1.95-5.25,3.26c-2.09,1.32-3.21,2.1-5.2,3.33-2,1.22-3.06,1.8-4.78,2.8-1.71.99-2.59,1.51-3.82,2.18-1.23.66-1.67,1.06-2.32,1.17-.64.1-.72.09-.89-.63-.17-.73-.18-1.42.05-3.01.22-1.59.48-2.68,1.08-4.95.61-2.27.99-3.72,1.92-6.42.93-2.69,1.47-4.27,2.74-7.06,1.27-2.8,2.17-4.34,3.61-6.91,1.45-2.57,2.28-3.81,3.62-5.94,1.33-2.14,2.16-3.12,3.07-4.74.9-1.61,1.21-2.29,1.45-3.34.24-1.05.05-1.52-.28-1.91-.32-.4-.61-.49-1.35-.08-.74.42-1.14.97-2.35,2.15-1.21,1.19-1.97,2.04-3.7,3.78-1.73,1.74-2.75,2.84-4.94,4.92-2.19,2.08-3.41,3.32-6,5.5-2.59,2.18-4.09,3.33-6.94,5.38-2.85,2.06-4.42,3.13-7.3,4.91-2.88,1.79-4.34,2.62-7.12,4-2.77,1.39-4.28,1.92-6.77,2.94-2.49,1.01-3.62,1.59-5.67,2.16-2.06.56-2.97.56-4.61.65-1.64.09-2.36-.05-3.59-.2-1.22-.14-1.58-.39-2.52-.52-.95-.12-1.57-.42-2.21-.1-.65.32-1.13.95-1.02,1.72"/>
  <path class="st0" d="M490.72,14.28c-.62.25-.75.64-1.24,1.46-.49.81-.77,1.31-1.21,2.61-.44,1.3-.5,2.14-.98,3.87-.48,1.74-.87,2.73-1.43,4.79-.57,2.06-.85,3.24-1.4,5.52-.55,2.27-.93,3.51-1.36,5.85-.43,2.34-.65,3.56-.79,5.83-.14,2.26-.21,3.39.1,5.5.31,2.1.52,3.21,1.44,5.05.92,1.83,1.59,2.74,3.17,4.13,1.58,1.39,2.56,1.97,4.74,2.81,2.19.84,3.46,1.18,6.2,1.38,2.73.21,4.31.05,7.49-.37,3.18-.42,4.94-.9,8.4-1.72,3.47-.82,5.3-1.33,8.93-2.38,3.64-1.05,5.59-1.67,9.23-2.85,3.64-1.17,5.53-1.84,8.99-3.02,3.46-1.19,5.13-1.81,8.31-2.9s4.81-1.6,7.57-2.55c2.75-.95,4.03-1.36,6.2-2.2,2.18-.83,3.08-1.18,4.66-1.96,1.58-.79,2.32-1.09,3.25-1.94.93-.86,1.2-1.34,1.39-2.33.19-1,.1-1.69-.44-2.65-.55-.96-1.08-1.55-2.26-2.16-1.18-.6-2.04-.75-3.65-.86-1.6-.1-2.55.02-4.37.34-1.82.31-2.81.55-4.73,1.24-1.92.7-3,1.11-4.87,2.22-1.87,1.11-2.87,1.86-4.48,3.35-1.61,1.5-2.37,2.4-3.57,4.13-1.2,1.72-1.76,2.68-2.42,4.49-.67,1.81-.91,2.84-.92,4.57,0,1.72.18,2.62.87,4.05.7,1.42,1.27,2.15,2.62,3.06,1.35.92,2.3,1.28,4.13,1.49,1.83.22,2.94.08,5.02-.42,2.07-.49,3.17-.99,5.35-2.05,2.18-1.06,3.41-1.79,5.55-3.26,2.14-1.46,3.3-2.4,5.14-4.06,1.85-1.65,2.92-2.72,4.09-4.21s1.58-2.36,1.75-3.26c.18-.9-.25-1.23-.86-1.24-.61-.02-1.34.29-2.2,1.15s-1.61,1.67-2.11,3.19c-.49,1.51-.51,2.71-.37,4.38.14,1.67.34,2.61,1.06,3.96.72,1.35,1.22,1.99,2.54,2.79,1.32.8,2.19,1.19,4.06,1.23,1.88.04,3.04-.17,5.32-1.02,2.28-.84,3.61-1.56,6.09-3.22,2.48-1.65,3.72-2.85,6.32-5.06,2.6-2.22,4.02-3.51,6.68-6.01,2.65-2.5,4.04-3.88,6.59-6.5,2.55-2.61,3.86-4.02,6.15-6.56,2.3-2.54,3.51-3.78,5.33-6.16,1.82-2.38,2.61-3.62,3.77-5.74,1.16-2.13,1.68-3.14,2-4.9.33-1.76.26-2.77-.4-3.9-.65-1.14-1.47-1.67-2.88-1.79-1.41-.12-2.44.15-4.17,1.18-1.73,1.02-2.74,1.91-4.46,3.94-1.73,2.03-2.54,3.5-4.14,6.21-1.61,2.7-2.5,4.28-3.9,7.3-1.41,3.02-2.17,4.66-3.13,7.78-.95,3.12-1.4,4.81-1.64,7.84-.23,3.02-.15,4.61.48,7.3s1.19,4,2.68,6.14c1.48,2.14,2.49,3.12,4.77,4.55,2.28,1.42,3.71,2.04,6.61,2.59,2.9.55,4.63.41,7.88.15,3.25-.27,5-.68,8.37-1.45,3.38-.77,5.43-1.35,8.5-2.4,3.08-1.05,4.71-1.71,6.86-2.85,2.15-1.14,3.24-2,3.9-2.86.66-.85.45-1.28-.6-1.42-1.05-.13-2.36.17-4.67.76-2.3.59-3.87,1.24-6.86,2.18-2.98.93-4.91,1.75-8.07,2.48-3.16.73-4.84.99-7.75,1.17-2.9.18-4.36.13-6.76-.26-2.41-.4-3.49-.71-5.27-1.7-1.77-.98-2.52-1.64-3.62-3.23-1.11-1.59-1.49-2.57-1.9-4.73-.42-2.15-.4-3.46-.16-6.06.23-2.61.45-4.15,1.32-6.95.86-2.81,1.57-4.36,3-7.09,1.43-2.72,2.46-4.17,4.13-6.55s2.73-3.52,4.23-5.34c1.49-1.82,2.26-2.58,3.24-3.77.99-1.19,1.32-1.7,1.68-2.17.36-.48.28-.59.14-.22-.15.38-.28.89-.88,2.09-.6,1.2-.98,2.06-2.12,3.9-1.14,1.83-1.9,2.99-3.58,5.28-1.67,2.29-2.66,3.64-4.81,6.17-2.15,2.54-3.44,3.94-5.93,6.49-2.49,2.55-3.88,3.9-6.54,6.25-2.65,2.34-4.11,3.56-6.74,5.48-2.62,1.91-4.06,2.7-6.4,4.09-2.34,1.39-3.5,2.01-5.3,2.86-1.8.85-2.55,1.11-3.7,1.39-1.15.29-1.51.22-2.06.02-.54-.2-.64-.37-.66-1.01-.02-.65.2-1.17.56-2.22.37-1.05.92-1.74,1.26-3.02.33-1.28.51-2.17.41-3.39-.1-1.22-.31-2.04-.91-2.73-.61-.69-1.03-.97-2.12-.74-1.09.22-1.86.73-3.35,1.86-1.48,1.13-2.32,2.3-4.07,3.79-1.75,1.49-2.75,2.36-4.67,3.67-1.93,1.31-3.1,1.93-4.97,2.88-1.87.95-2.81,1.37-4.39,1.88-1.58.51-2.33.6-3.5.67-1.17.08-1.65.01-2.36-.31-.72-.33-.94-.59-1.22-1.31-.28-.71-.33-1.19-.18-2.28.15-1.08.33-1.82.92-3.14.6-1.32,1.04-2.1,2.07-3.45,1.02-1.35,1.69-2.1,3.05-3.29,1.36-1.2,2.18-1.81,3.73-2.7,1.55-.89,2.46-1.22,4.04-1.75,1.58-.52,2.43-.69,3.87-.87,1.45-.18,2.18-.07,3.35-.04,1.17.04,1.69.21,2.51.21.83-.01,1.2-.12,1.61-.22.41-.11.59-.31.45-.32-.14-.02-.31-.04-1.14.24s-1.49.61-3,1.17-2.38.9-4.53,1.64c-2.15.75-3.48,1.07-6.21,2.09-2.73,1.02-4.31,1.78-7.44,3-3.12,1.21-4.77,1.86-8.19,3.08-3.41,1.22-5.29,1.88-8.89,3.02-3.6,1.14-5.54,1.74-9.12,2.67-3.58.94-5.42,1.38-8.79,2s-5.12.86-8.07,1.11c-2.95.24-4.34.25-6.68.11-2.35-.14-3.34-.29-5.06-.8-1.72-.52-2.39-.88-3.53-1.79s-1.56-1.45-2.17-2.76c-.61-1.3-.75-2.08-.89-3.75-.14-1.68-.05-2.63.19-4.6.23-1.98.5-3.1.99-5.27.49-2.17.86-3.4,1.46-5.57.59-2.18.88-3.28,1.52-5.3.63-2.02,1.17-3.02,1.67-4.82.49-1.79.61-2.72.8-4.15s.29-2,.15-3c-.14-1-.3-1.56-.84-2s-1.23-.47-1.85-.22"/>
</svg>