<svg xmlns="http://www.w3.org/2000/svg" id="canvas" viewBox="236.656 365.217 1129.156 196.092"><path d="M 311.52,379.89 C 310.06 380.59, 309.50 381.49, 308.18 384.69 C 306.86 387.90, 306.90 390.13, 304.93 395.90 C 302.97 401.68, 301.70 405.56, 298.36 413.58 C 295.02 421.59, 292.78 426.36, 288.24 435.96 C 283.70 445.57, 280.83 451.11, 275.66 461.61 C 270.50 472.11, 267.37 478.09, 262.43 488.46 C 257.49 498.83, 254.88 504.33, 250.98 513.45 C 247.09 522.58, 245.21 527.01, 242.95 534.06 C 240.69 541.11, 239.51 544.04, 239.67 548.69 C 239.82 553.33, 240.93 555.67, 243.72 557.27 C 246.51 558.88, 249.18 558.56, 253.60 556.71 C 258.02 554.86, 260.26 552.69, 265.82 548.03 C 271.38 543.37, 274.54 540.17, 281.41 533.42 C 288.28 526.68, 292.24 522.38, 300.18 514.29 C 308.11 506.20, 312.60 501.58, 321.08 492.98 C 329.55 484.38, 334.03 479.71, 342.56 471.30 C 351.09 462.89, 355.59 458.56, 363.73 450.92 C 371.88 443.28, 376.02 439.65, 383.28 433.10 C 390.54 426.56, 393.92 423.47, 400.02 418.18 C 406.13 412.90, 408.95 410.58, 413.79 406.68 C 418.63 402.78, 420.85 401.31, 424.21 398.69 C 427.56 396.07, 428.96 395.42, 430.57 393.58 C 432.17 391.73, 432.27 390.67, 432.25 389.46 C 432.22 388.25, 431.60 387.68, 430.43 387.55 C 429.27 387.43, 428.46 387.52, 426.44 388.83 C 424.41 390.14, 423.42 391.21, 420.30 394.10 C 417.18 397.00, 415.38 399.02, 410.85 403.30 C 406.31 407.58, 403.55 409.99, 397.62 415.49 C 391.68 420.99, 388.34 424.14, 381.17 430.81 C 374.01 437.48, 369.89 441.14, 361.78 448.85 C 353.67 456.55, 349.17 460.91, 340.62 469.33 C 332.07 477.75, 327.59 482.42, 319.04 490.96 C 310.50 499.49, 305.97 504.10, 297.90 512.01 C 289.83 519.93, 285.74 524.14, 278.68 530.54 C 271.63 536.93, 268.16 539.87, 262.62 543.99 C 257.08 548.11, 254.31 549.36, 250.99 551.14 C 247.66 552.92, 247.25 553.38, 246.00 552.89 C 244.74 552.40, 244.58 552.22, 244.73 548.68 C 244.87 545.14, 244.87 541.98, 246.72 535.18 C 248.57 528.38, 250.29 523.79, 253.97 514.70 C 257.65 505.61, 260.24 500.08, 265.12 489.73 C 270.01 479.39, 273.15 473.41, 278.40 462.96 C 283.64 452.51, 286.56 447.00, 291.36 437.48 C 296.16 427.97, 298.56 423.26, 302.38 415.38 C 306.19 407.51, 307.86 403.73, 310.43 398.09 C 313.01 392.45, 314.25 390.57, 315.26 387.19 C 316.27 383.81, 316.22 382.65, 315.47 381.19 C 314.72 379.73, 312.97 379.19, 311.52 379.89" style="stroke: black; fill: black;"/><path d="M 357.76,447.61 C 356.10 447.86, 354.69 448.43, 353.37 450.66 C 352.05 452.89, 351.84 454.79, 351.14 458.77 C 350.45 462.74, 350.41 465.45, 349.88 470.54 C 349.35 475.62, 349.07 478.64, 348.51 484.20 C 347.96 489.75, 347.62 492.73, 347.11 498.30 C 346.60 503.86, 346.19 506.77, 345.96 512.01 C 345.73 517.25, 345.56 519.83, 345.97 524.49 C 346.37 529.15, 346.49 531.44, 347.97 535.30 C 349.45 539.17, 350.45 541.35, 353.37 543.83 C 356.30 546.30, 358.59 547.24, 362.59 547.68 C 366.59 548.13, 368.81 547.53, 373.38 546.06 C 377.95 544.59, 380.32 543.28, 385.43 540.32 C 390.54 537.37, 393.29 535.39, 398.92 531.28 C 404.56 527.18, 407.62 524.67, 413.61 519.80 C 419.61 514.93, 422.85 512.10, 428.90 506.92 C 434.95 501.73, 438.13 498.90, 443.85 493.87 C 449.58 488.84, 452.46 486.22, 457.53 481.76 C 462.59 477.31, 465.02 475.18, 469.18 471.60 C 473.35 468.03, 475.24 466.55, 478.35 463.88 C 481.46 461.21, 483.01 460.44, 484.72 458.23 C 486.42 456.02, 486.77 454.88, 486.88 452.82 C 486.99 450.76, 486.63 449.41, 485.27 447.92 C 483.90 446.43, 482.38 445.61, 480.05 445.38 C 477.72 445.14, 476.19 444.96, 473.61 446.74 C 471.03 448.51, 470.25 450.72, 467.15 454.24 C 464.06 457.76, 462.13 459.77, 458.15 464.36 C 454.17 468.95, 451.72 471.71, 447.24 477.19 C 442.77 482.67, 440.05 485.93, 435.77 491.75 C 431.48 497.57, 429.27 500.80, 425.82 506.29 C 422.37 511.77, 420.70 514.52, 418.52 519.18 C 416.34 523.84, 414.99 525.94, 414.91 529.57 C 414.82 533.19, 415.90 535.13, 418.11 537.32 C 420.31 539.51, 422.56 540.77, 425.92 540.52 C 429.27 540.27, 431.15 538.72, 434.88 536.09 C 438.60 533.45, 440.43 531.44, 444.54 527.33 C 448.64 523.23, 450.95 520.63, 455.40 515.58 C 459.86 510.53, 462.41 507.52, 466.82 502.10 C 471.22 496.67, 473.56 493.59, 477.44 488.47 C 481.32 483.34, 483.78 480.51, 486.22 476.47 C 488.65 472.42, 489.86 470.45, 489.59 468.25 C 489.32 466.05, 487.05 464.90, 484.87 465.45 C 482.69 465.99, 481.10 467.54, 478.69 470.97 C 476.27 474.40, 474.92 477.61, 472.78 482.60 C 470.64 487.59, 469.52 490.81, 467.97 495.91 C 466.42 501.01, 465.40 503.58, 465.02 508.09 C 464.65 512.61, 464.37 515.04, 466.09 518.50 C 467.81 521.95, 469.90 523.97, 473.64 525.36 C 477.38 526.76, 479.94 526.44, 484.78 525.46 C 489.61 524.48, 492.27 523.12, 497.81 520.45 C 503.36 517.77, 506.49 515.97, 512.50 512.08 C 518.50 508.18, 521.84 505.53, 527.82 500.97 C 533.80 496.42, 537.03 493.57, 542.39 489.30 C 547.76 485.03, 550.54 482.69, 554.66 479.62 C 558.79 476.54, 561.22 475.80, 563.02 473.92 C 564.82 472.05, 564.31 470.85, 563.68 470.25 C 563.06 469.65, 561.48 469.46, 559.89 470.91 C 558.30 472.35, 557.65 474.09, 555.75 477.47 C 553.85 480.86, 552.68 483.57, 550.38 487.83 C 548.07 492.09, 546.75 494.74, 544.23 498.76 C 541.70 502.77, 539.76 504.71, 537.75 507.91 C 535.75 511.11, 534.38 512.47, 534.19 514.76 C 534.00 517.04, 535.07 518.42, 536.80 519.33 C 538.52 520.23, 540.58 520.62, 542.82 519.27 C 545.06 517.91, 545.67 515.90, 548.01 512.56 C 550.34 509.22, 551.60 506.73, 554.48 502.56 C 557.35 498.38, 559.06 495.97, 562.38 491.68 C 565.70 487.39, 567.61 485.04, 571.08 481.11 C 574.54 477.17, 576.39 475.26, 579.70 471.99 C 583.01 468.73, 584.55 467.41, 587.63 464.79 C 590.71 462.18, 592.11 461.08, 595.10 458.93 C 598.09 456.78, 599.51 455.95, 602.60 454.03 C 605.68 452.11, 607.17 451.27, 610.50 449.33 C 613.84 447.39, 615.46 446.53, 619.27 444.34 C 623.08 442.14, 625.19 441.06, 629.56 438.37 C 633.93 435.68, 636.28 434.19, 641.12 430.89 C 645.95 427.60, 648.56 425.78, 653.74 421.88 C 658.91 417.97, 661.66 415.71, 666.99 411.37 C 672.33 407.04, 675.19 404.56, 680.43 400.20 C 685.67 395.85, 688.47 393.51, 693.19 389.61 C 697.91 385.72, 700.40 383.74, 704.04 380.72 C 707.69 377.70, 710.08 376.59, 711.41 374.51 C 712.74 372.43, 711.74 370.65, 710.68 370.33 C 709.63 370.00, 708.22 370.17, 706.15 372.88 C 704.07 375.58, 703.44 378.28, 700.31 383.86 C 697.19 389.44, 694.95 393.31, 690.51 400.75 C 686.07 408.20, 683.33 412.61, 678.12 421.10 C 672.91 429.59, 669.89 434.43, 664.45 443.21 C 659.02 451.98, 656.03 456.69, 650.94 464.98 C 645.85 473.27, 643.32 477.72, 639.01 484.67 C 634.69 491.62, 632.62 494.90, 629.37 499.74 C 626.12 504.59, 624.65 506.31, 622.76 508.89 C 620.86 511.46, 620.16 511.46, 619.88 512.62 C 619.60 513.77, 619.92 514.71, 621.33 514.68 C 622.74 514.64, 624.51 514.92, 626.92 512.43 C 629.33 509.95, 630.31 507.43, 633.38 502.27 C 636.44 497.11, 638.17 493.72, 642.26 486.61 C 646.35 479.51, 648.83 475.07, 653.84 466.74 C 658.84 458.42, 661.82 453.72, 667.29 444.98 C 672.77 436.24, 675.82 431.42, 681.23 423.06 C 686.64 414.70, 689.48 410.37, 694.34 403.19 C 699.20 396.01, 701.79 392.43, 705.52 387.15 C 709.25 381.87, 711.56 380.22, 712.99 376.79 C 714.43 373.36, 713.97 371.59, 712.70 369.99 C 711.44 368.39, 709.27 367.60, 706.67 368.79 C 704.06 369.97, 703.06 372.54, 699.67 375.91 C 696.28 379.27, 694.20 381.51, 689.71 385.61 C 685.23 389.72, 682.42 392.05, 677.26 396.43 C 672.09 400.81, 669.22 403.27, 663.89 407.51 C 658.56 411.75, 655.81 413.93, 650.62 417.63 C 645.43 421.33, 642.80 422.99, 637.94 426.00 C 633.07 429.02, 630.71 430.32, 626.29 432.70 C 621.86 435.08, 619.74 435.96, 615.82 437.92 C 611.90 439.88, 610.18 440.62, 606.69 442.49 C 603.19 444.37, 601.56 445.22, 598.33 447.30 C 595.10 449.38, 593.59 450.44, 590.52 452.90 C 587.44 455.36, 586.06 456.68, 582.97 459.58 C 579.88 462.49, 578.39 463.96, 575.06 467.43 C 571.74 470.90, 569.91 472.93, 566.36 476.95 C 562.81 480.97, 560.90 483.38, 557.31 487.54 C 553.72 491.70, 551.86 493.97, 548.42 497.74 C 544.98 501.51, 542.79 503.34, 540.12 506.39 C 537.45 509.43, 535.83 510.65, 535.08 512.97 C 534.33 515.29, 535.28 516.89, 536.39 517.99 C 537.49 519.08, 538.85 519.52, 540.60 518.44 C 542.34 517.36, 543.07 515.72, 545.10 512.59 C 547.13 509.46, 548.26 506.88, 550.75 502.79 C 553.23 498.70, 554.81 496.23, 557.53 492.14 C 560.25 488.06, 562.28 485.99, 564.37 482.37 C 566.45 478.75, 567.84 476.90, 567.94 474.05 C 568.03 471.20, 566.69 469.41, 564.82 468.14 C 562.95 466.86, 561.37 466.30, 558.59 467.69 C 555.80 469.08, 554.77 471.53, 550.90 475.09 C 547.03 478.64, 544.44 481.06, 539.25 485.48 C 534.05 489.89, 530.83 492.72, 524.93 497.16 C 519.03 501.60, 515.67 504.13, 509.75 507.67 C 503.83 511.22, 500.58 512.74, 495.33 514.87 C 490.07 517.00, 487.29 517.72, 483.47 518.32 C 479.66 518.92, 478.33 518.49, 476.27 517.85 C 474.22 517.21, 473.99 516.94, 473.20 515.12 C 472.42 513.30, 472.02 512.14, 472.36 508.76 C 472.70 505.38, 473.28 502.71, 474.91 498.21 C 476.54 493.71, 478.17 490.77, 480.51 486.25 C 482.86 481.73, 484.98 479.15, 486.63 475.59 C 488.28 472.03, 489.07 470.32, 488.75 468.45 C 488.44 466.57, 486.73 465.32, 485.07 466.22 C 483.41 467.11, 482.85 469.10, 480.44 472.92 C 478.04 476.74, 476.58 480.14, 473.07 485.33 C 469.55 490.52, 467.21 493.57, 462.86 498.87 C 458.52 504.17, 455.89 507.11, 451.33 511.81 C 446.76 516.52, 444.25 518.92, 440.04 522.38 C 435.82 525.83, 433.44 527.15, 430.25 529.09 C 427.06 531.03, 425.68 531.25, 424.10 532.07 C 422.51 532.89, 422.65 533.58, 422.32 533.19 C 421.99 532.80, 422.11 532.45, 422.46 530.11 C 422.81 527.78, 422.51 525.74, 424.07 521.51 C 425.62 517.28, 427.09 514.32, 430.23 508.96 C 433.36 503.59, 435.53 500.36, 439.74 494.69 C 443.94 489.02, 446.68 485.80, 451.27 480.61 C 455.87 475.43, 458.41 472.76, 462.71 468.76 C 467.02 464.77, 469.20 463.00, 472.79 460.63 C 476.38 458.27, 478.64 458.35, 480.66 456.94 C 482.68 455.54, 482.50 454.79, 482.89 453.61 C 483.28 452.44, 482.98 451.71, 482.61 451.07 C 482.23 450.42, 481.93 450.01, 481.02 450.37 C 480.12 450.73, 479.59 451.13, 478.10 452.88 C 476.60 454.62, 476.07 456.14, 473.55 459.09 C 471.04 462.05, 469.35 463.81, 465.52 467.66 C 461.69 471.51, 459.32 473.74, 454.41 478.33 C 449.51 482.93, 446.66 485.58, 441.00 490.65 C 435.34 495.72, 432.17 498.54, 426.13 503.66 C 420.08 508.78, 416.81 511.56, 410.78 516.23 C 404.75 520.91, 401.62 523.30, 395.97 527.03 C 390.32 530.76, 387.44 532.48, 382.52 534.87 C 377.60 537.26, 375.15 538.06, 371.36 538.98 C 367.56 539.90, 366.07 539.77, 363.55 539.46 C 361.03 539.15, 360.47 538.83, 358.78 537.41 C 357.09 536.00, 356.30 535.14, 355.10 532.41 C 353.90 529.67, 353.34 527.76, 352.76 523.72 C 352.18 519.68, 352.12 517.17, 352.21 512.20 C 352.29 507.24, 352.63 504.32, 353.18 498.88 C 353.73 493.45, 354.11 490.45, 354.97 485.03 C 355.84 479.61, 356.39 476.62, 357.49 471.79 C 358.60 466.96, 359.46 464.47, 360.48 460.89 C 361.50 457.30, 362.36 456.14, 362.60 453.85 C 362.84 451.56, 362.65 450.69, 361.68 449.44 C 360.71 448.19, 359.43 447.37, 357.76 447.61" style="stroke: black; fill: black;"/><path d="M 616.29,488.39 C 616.35 489.99, 616.83 491.28, 618.73 492.63 C 620.63 493.97, 622.24 494.85, 625.79 495.12 C 629.33 495.38, 631.74 494.90, 636.43 493.95 C 641.13 493.00, 643.78 492.35, 649.25 490.39 C 654.72 488.42, 657.64 487.23, 663.80 484.12 C 669.95 481.01, 673.37 479.10, 680.03 474.84 C 686.68 470.59, 690.24 468.14, 697.07 462.84 C 703.89 457.55, 707.46 454.45, 714.15 448.38 C 720.84 442.30, 724.34 438.86, 730.52 432.47 C 736.69 426.08, 739.76 422.56, 745.03 416.43 C 750.29 410.30, 752.79 407.06, 756.85 401.82 C 760.92 396.57, 763.00 394.22, 765.36 390.20 C 767.71 386.18, 768.99 384.18, 768.61 381.73 C 768.24 379.28, 765.86 377.46, 763.47 377.96 C 761.09 378.47, 759.64 380.21, 756.68 384.25 C 753.72 388.28, 752.35 391.60, 748.67 398.15 C 745.00 404.69, 742.64 409.04, 738.31 416.98 C 733.98 424.91, 731.36 429.57, 727.03 437.82 C 722.70 446.07, 720.39 450.57, 716.64 458.21 C 712.89 465.85, 711.06 469.73, 708.26 476.02 C 705.46 482.31, 703.92 485.00, 702.63 489.68 C 701.35 494.35, 700.65 496.47, 701.84 499.40 C 703.03 502.33, 705.35 504.00, 708.59 504.33 C 711.82 504.65, 713.82 503.26, 718.02 501.03 C 722.22 498.80, 724.58 496.65, 729.58 493.18 C 734.58 489.71, 737.92 487.13, 743.03 483.68 C 748.15 480.24, 751.26 478.12, 755.14 475.96 C 759.02 473.80, 760.78 473.53, 762.42 472.88 C 764.05 472.22, 763.64 471.84, 763.30 472.67 C 762.96 473.49, 761.71 474.47, 760.73 477.00 C 759.75 479.52, 759.17 481.77, 758.40 485.29 C 757.62 488.81, 756.75 491.05, 756.84 494.59 C 756.94 498.13, 757.18 500.17, 758.85 503.00 C 760.53 505.83, 762.09 507.68, 765.23 508.75 C 768.38 509.81, 770.62 509.59, 774.58 508.32 C 778.54 507.05, 780.43 505.36, 785.04 502.41 C 789.64 499.46, 792.34 497.42, 797.59 493.56 C 802.83 489.70, 805.92 487.22, 811.27 483.12 C 816.63 479.02, 819.78 476.36, 824.37 473.07 C 828.96 469.78, 831.75 468.55, 834.21 466.65 C 836.66 464.75, 836.81 463.89, 836.63 463.57 C 836.45 463.24, 834.74 463.15, 833.32 465.03 C 831.91 466.91, 831.19 469.18, 829.55 472.97 C 827.92 476.76, 826.66 479.61, 825.14 483.98 C 823.62 488.35, 822.61 490.75, 821.96 494.84 C 821.32 498.93, 820.83 501.10, 821.91 504.41 C 822.99 507.73, 824.41 509.66, 827.37 511.42 C 830.32 513.19, 832.60 513.71, 836.70 513.22 C 840.80 512.72, 843.04 511.40, 847.87 508.94 C 852.70 506.48, 855.28 504.79, 860.84 500.91 C 866.39 497.03, 869.54 494.63, 875.63 489.52 C 881.72 484.42, 885.18 481.33, 891.26 475.38 C 897.34 469.42, 900.36 466.17, 906.03 459.75 C 911.71 453.34, 914.60 449.81, 919.63 443.30 C 924.66 436.80, 927.06 433.40, 931.19 427.24 C 935.31 421.08, 937.09 417.94, 940.27 412.50 C 943.44 407.05, 944.80 404.51, 947.07 400.02 C 949.34 395.53, 950.91 393.62, 951.61 390.06 C 952.30 386.49, 952.09 384.27, 950.54 382.21 C 949.00 380.15, 946.57 379.00, 943.89 379.75 C 941.20 380.50, 939.97 382.13, 937.13 385.95 C 934.29 389.76, 932.96 392.76, 929.68 398.84 C 926.40 404.91, 924.44 408.93, 920.72 416.32 C 917.00 423.71, 914.84 427.99, 911.07 435.80 C 907.31 443.61, 905.30 447.88, 901.90 455.36 C 898.49 462.83, 896.87 466.85, 894.02 473.18 C 891.17 479.51, 889.81 482.46, 887.64 487.01 C 885.47 491.57, 883.63 493.13, 883.18 495.97 C 882.72 498.81, 883.74 500.12, 885.37 501.21 C 887.00 502.30, 889.01 502.79, 891.33 501.41 C 893.64 500.04, 894.25 497.87, 896.96 494.33 C 899.67 490.79, 901.27 488.03, 904.88 483.70 C 908.49 479.37, 910.79 476.71, 915.01 472.68 C 919.23 468.66, 921.80 466.56, 925.98 463.59 C 930.15 460.63, 932.45 459.43, 935.88 457.85 C 939.32 456.27, 941.12 456.50, 943.16 455.70 C 945.19 454.90, 945.76 454.29, 946.05 453.87 C 946.33 453.45, 945.58 452.95, 944.57 453.61 C 943.57 454.27, 942.60 454.87, 941.02 457.17 C 939.44 459.47, 938.92 461.64, 936.69 465.12 C 934.45 468.59, 932.71 470.84, 929.82 474.55 C 926.93 478.27, 925.07 480.27, 922.23 483.69 C 919.39 487.12, 917.55 488.55, 915.61 491.68 C 913.67 494.80, 912.73 496.33, 912.52 499.31 C 912.31 502.29, 912.85 504.14, 914.56 506.58 C 916.27 509.02, 917.82 510.71, 921.07 511.53 C 924.32 512.35, 926.45 511.48, 930.82 510.69 C 935.19 509.89, 937.76 509.10, 942.90 507.56 C 948.04 506.01, 950.96 505.07, 956.51 502.96 C 962.06 500.85, 968.25 499.28, 970.65 497.02 C 973.06 494.76, 971.78 491.68, 968.53 491.67 C 965.28 491.66, 959.87 495.19, 954.40 496.96 C 948.92 498.74, 946.09 499.60, 941.16 500.56 C 936.23 501.52, 933.49 501.59, 929.76 501.75 C 926.03 501.92, 924.51 501.32, 922.51 501.40 C 920.50 501.48, 920.19 502.23, 919.73 502.14 C 919.26 502.05, 919.51 502.08, 920.18 500.94 C 920.84 499.80, 921.40 498.92, 923.05 496.45 C 924.69 493.99, 925.81 491.99, 928.40 488.63 C 930.99 485.26, 932.84 483.23, 935.98 479.64 C 939.12 476.04, 941.18 474.07, 944.10 470.68 C 947.01 467.28, 948.96 465.84, 950.55 462.67 C 952.13 459.50, 952.46 457.57, 952.00 454.80 C 951.55 452.03, 950.47 450.34, 948.27 448.83 C 946.06 447.31, 944.11 446.68, 940.96 447.23 C 937.81 447.78, 936.24 449.29, 932.51 451.57 C 928.77 453.84, 926.62 455.29, 922.29 458.60 C 917.96 461.92, 915.37 464.11, 910.84 468.16 C 906.30 472.22, 903.78 474.76, 899.63 478.86 C 895.48 482.97, 893.09 485.27, 890.08 488.67 C 887.08 492.07, 885.35 493.54, 884.61 495.87 C 883.87 498.20, 885.27 499.81, 886.38 500.31 C 887.49 500.82, 888.88 500.63, 890.18 498.40 C 891.48 496.17, 891.29 493.85, 892.89 489.16 C 894.49 484.46, 895.63 481.36, 898.18 474.94 C 900.72 468.51, 902.28 464.49, 905.60 457.02 C 908.91 449.55, 910.90 445.31, 914.74 437.60 C 918.59 429.90, 920.80 425.64, 924.81 418.50 C 928.82 411.36, 931.09 407.48, 934.79 401.90 C 938.50 396.33, 940.79 393.97, 943.34 390.62 C 945.89 387.28, 947.00 386.59, 947.53 385.19 C 948.05 383.80, 946.68 383.04, 945.97 383.64 C 945.26 384.24, 944.82 385.38, 943.96 388.19 C 943.11 391.00, 943.26 393.29, 941.68 397.68 C 940.10 402.08, 938.87 404.74, 936.06 410.18 C 933.25 415.63, 931.55 418.78, 927.64 424.92 C 923.73 431.07, 921.41 434.46, 916.51 440.91 C 911.60 447.36, 908.74 450.87, 903.12 457.17 C 897.51 463.48, 894.50 466.67, 888.43 472.43 C 882.35 478.19, 878.86 481.19, 872.75 485.96 C 866.63 490.74, 863.39 492.98, 857.84 496.30 C 852.30 499.62, 849.47 500.88, 845.02 502.55 C 840.57 504.23, 838.37 504.28, 835.59 504.68 C 832.80 505.08, 832.19 505.01, 831.09 504.56 C 829.99 504.12, 830.19 504.08, 830.09 502.46 C 829.99 500.84, 829.88 499.54, 830.59 496.47 C 831.30 493.41, 832.08 491.09, 833.64 487.13 C 835.21 483.18, 836.80 480.68, 838.43 476.71 C 840.07 472.74, 841.86 470.54, 841.81 467.29 C 841.76 464.05, 840.42 461.86, 838.18 460.49 C 835.94 459.13, 834.08 458.90, 830.60 460.46 C 827.11 462.03, 825.28 464.65, 820.74 468.31 C 816.21 471.97, 813.24 474.68, 807.93 478.76 C 802.63 482.84, 799.50 485.23, 794.21 488.72 C 788.92 492.20, 785.96 493.96, 781.48 496.19 C 777.01 498.43, 774.70 498.93, 771.83 499.90 C 768.96 500.86, 768.19 500.97, 767.13 501.00 C 766.07 501.03, 766.36 501.15, 766.53 500.05 C 766.70 498.95, 767.40 498.01, 767.98 495.50 C 768.57 493.00, 768.84 490.95, 769.47 487.53 C 770.09 484.11, 771.27 481.90, 771.11 478.41 C 770.95 474.93, 770.58 472.60, 768.66 470.11 C 766.75 467.62, 764.89 465.98, 761.52 465.97 C 758.15 465.96, 756.23 467.57, 751.83 470.06 C 747.43 472.56, 744.71 474.95, 739.51 478.44 C 734.31 481.92, 730.84 484.30, 725.80 487.47 C 720.76 490.65, 717.87 492.26, 714.31 494.30 C 710.76 496.34, 709.43 496.96, 708.02 497.68 C 706.61 498.40, 707.23 499.22, 707.25 497.91 C 707.27 496.60, 707.10 495.17, 708.12 491.13 C 709.15 487.10, 709.97 483.97, 712.37 477.73 C 714.78 471.48, 716.53 467.52, 720.13 459.90 C 723.74 452.27, 726.03 447.78, 730.41 439.62 C 734.79 431.46, 737.44 426.82, 742.04 419.10 C 746.64 411.39, 749.33 407.20, 753.42 401.05 C 757.51 394.90, 759.86 392.19, 762.47 388.35 C 765.09 384.50, 766.25 383.41, 766.51 381.83 C 766.77 380.25, 765.08 379.41, 763.78 380.46 C 762.49 381.52, 762.18 383.39, 760.04 387.12 C 757.90 390.85, 756.71 393.75, 753.10 399.10 C 749.49 404.45, 747.03 407.72, 741.98 413.87 C 736.92 420.03, 733.89 423.53, 727.82 429.88 C 721.75 436.22, 718.27 439.64, 711.64 445.60 C 705.01 451.56, 701.45 454.59, 694.66 459.68 C 687.87 464.78, 684.31 467.13, 677.70 471.08 C 671.09 475.04, 667.65 476.81, 661.60 479.46 C 655.55 482.11, 652.63 483.08, 647.43 484.32 C 642.23 485.55, 639.70 485.70, 635.61 485.63 C 631.52 485.55, 629.74 484.35, 626.97 483.94 C 624.20 483.54, 623.48 483.48, 621.77 483.61 C 620.06 483.74, 619.51 483.64, 618.42 484.59 C 617.32 485.55, 616.22 486.78, 616.29 488.39" style="stroke: black; fill: black;"/><path d="M 1134.71,392.45 C 1133.16 392.66, 1132.11 392.98, 1130.69 395.17 C 1129.27 397.35, 1129.35 399.08, 1127.60 403.38 C 1125.85 407.68, 1124.80 410.68, 1121.94 416.67 C 1119.09 422.66, 1117.26 426.37, 1113.33 433.34 C 1109.40 440.32, 1106.80 444.36, 1102.31 451.55 C 1097.82 458.74, 1095.16 462.65, 1090.88 469.29 C 1086.59 475.93, 1084.28 479.32, 1080.91 484.76 C 1077.54 490.20, 1075.74 492.33, 1074.04 496.51 C 1072.33 500.70, 1071.54 502.53, 1072.38 505.71 C 1073.22 508.88, 1074.92 511.08, 1078.24 512.37 C 1081.56 513.66, 1083.98 512.86, 1088.98 512.15 C 1093.97 511.45, 1096.79 510.50, 1103.21 508.84 C 1109.63 507.18, 1113.52 505.99, 1121.07 503.87 C 1128.62 501.75, 1132.87 500.43, 1140.97 498.23 C 1149.07 496.02, 1153.46 494.82, 1161.57 492.84 C 1169.67 490.85, 1174.00 489.94, 1181.48 488.32 C 1188.97 486.71, 1192.54 486.04, 1198.99 484.76 C 1205.44 483.47, 1208.44 482.92, 1213.74 481.88 C 1219.04 480.84, 1221.43 480.48, 1225.47 479.55 C 1229.52 478.61, 1231.25 478.58, 1233.96 477.21 C 1236.67 475.84, 1237.65 474.83, 1239.03 472.68 C 1240.41 470.53, 1241.00 469.02, 1240.88 466.46 C 1240.75 463.90, 1240.21 462.11, 1238.42 459.88 C 1236.63 457.65, 1235.14 456.28, 1231.95 455.29 C 1228.76 454.30, 1226.53 454.42, 1222.48 454.93 C 1218.43 455.45, 1216.22 456.13, 1211.69 457.88 C 1207.17 459.64, 1204.65 460.86, 1199.85 463.71 C 1195.06 466.57, 1192.37 468.47, 1187.70 472.14 C 1183.03 475.81, 1180.51 478.06, 1176.49 482.05 C 1172.47 486.05, 1170.49 488.27, 1167.60 492.12 C 1164.70 495.97, 1162.98 497.79, 1162.00 501.31 C 1161.02 504.84, 1161.32 506.93, 1162.71 509.75 C 1164.09 512.57, 1165.73 514.44, 1168.92 515.42 C 1172.11 516.41, 1174.51 515.93, 1178.65 514.69 C 1182.80 513.44, 1184.89 511.94, 1189.63 509.21 C 1194.38 506.49, 1197.13 504.60, 1202.37 501.07 C 1207.61 497.55, 1210.64 495.39, 1215.83 491.59 C 1221.02 487.79, 1223.82 485.46, 1228.32 482.05 C 1232.83 478.65, 1235.88 477.14, 1238.35 474.57 C 1240.83 472.00, 1241.15 470.41, 1240.71 469.21 C 1240.27 468.02, 1238.14 467.38, 1236.13 468.58 C 1234.12 469.78, 1232.82 471.76, 1230.65 475.22 C 1228.49 478.68, 1227.04 481.52, 1225.31 485.89 C 1223.57 490.26, 1222.32 492.86, 1222.00 497.08 C 1221.67 501.29, 1221.73 503.84, 1223.68 506.95 C 1225.63 510.07, 1227.83 511.84, 1231.74 512.66 C 1235.65 513.48, 1238.05 512.71, 1243.23 511.06 C 1248.40 509.41, 1251.29 507.93, 1257.64 504.41 C 1263.98 500.90, 1267.66 498.59, 1274.95 493.49 C 1282.24 488.40, 1286.45 485.22, 1294.08 478.95 C 1301.71 472.69, 1305.94 469.00, 1313.10 462.16 C 1320.25 455.33, 1323.81 451.50, 1329.85 444.76 C 1335.89 438.02, 1338.73 434.53, 1343.30 428.47 C 1347.87 422.41, 1349.87 419.46, 1352.69 414.46 C 1355.50 409.46, 1356.94 407.37, 1357.36 403.47 C 1357.78 399.58, 1357.07 397.21, 1354.80 395.00 C 1352.52 392.78, 1349.96 391.75, 1346.00 392.41 C 1342.04 393.07, 1339.90 394.76, 1334.98 398.28 C 1330.06 401.79, 1327.14 404.32, 1321.39 409.98 C 1315.64 415.65, 1312.17 419.33, 1306.23 426.62 C 1300.28 433.91, 1296.77 438.40, 1291.65 446.44 C 1286.54 454.48, 1283.85 458.93, 1280.66 466.80 C 1277.46 474.68, 1276.14 478.77, 1275.68 485.81 C 1275.22 492.86, 1275.66 496.49, 1278.36 502.03 C 1281.05 507.58, 1283.55 510.21, 1289.16 513.54 C 1294.78 516.87, 1298.71 517.64, 1306.43 518.69 C 1314.16 519.73, 1319.53 519.27, 1327.77 518.77 C 1336.00 518.26, 1340.90 517.31, 1347.59 516.16 C 1354.28 515.01, 1358.68 514.49, 1361.22 513.03 C 1363.75 511.56, 1363.14 509.08, 1360.27 508.83 C 1357.40 508.59, 1353.42 510.74, 1346.87 511.81 C 1340.31 512.88, 1335.45 513.71, 1327.49 514.19 C 1319.52 514.67, 1314.23 515.13, 1307.02 514.22 C 1299.82 513.30, 1296.39 512.44, 1291.45 509.61 C 1286.52 506.79, 1284.69 504.78, 1282.35 500.07 C 1280.02 495.36, 1279.42 492.44, 1279.78 486.07 C 1280.15 479.70, 1281.19 475.75, 1284.19 468.23 C 1287.19 460.70, 1289.77 456.26, 1294.80 448.45 C 1299.82 440.65, 1303.34 436.18, 1309.32 429.20 C 1315.30 422.21, 1318.88 418.67, 1324.70 413.53 C 1330.52 408.39, 1333.80 406.25, 1338.41 403.51 C 1343.03 400.77, 1345.26 400.72, 1347.78 399.82 C 1350.29 398.92, 1350.36 398.48, 1350.98 399.01 C 1351.61 399.55, 1351.47 399.88, 1350.91 402.51 C 1350.36 405.14, 1350.39 407.44, 1348.21 412.16 C 1346.03 416.88, 1344.23 420.05, 1340.02 426.10 C 1335.82 432.15, 1333.04 435.68, 1327.17 442.39 C 1321.31 449.11, 1317.78 452.92, 1310.71 459.66 C 1303.63 466.41, 1299.41 470.05, 1291.79 476.12 C 1284.17 482.20, 1279.92 485.30, 1272.61 490.02 C 1265.31 494.75, 1261.49 496.85, 1255.26 499.77 C 1249.03 502.69, 1245.86 503.62, 1241.44 504.63 C 1237.02 505.64, 1235.36 505.10, 1233.16 504.81 C 1230.96 504.53, 1230.91 504.49, 1230.44 503.22 C 1229.97 501.95, 1230.03 501.16, 1230.80 498.48 C 1231.57 495.79, 1232.54 493.46, 1234.30 489.81 C 1236.07 486.15, 1237.91 483.71, 1239.62 480.18 C 1241.32 476.66, 1242.77 474.82, 1242.82 472.18 C 1242.88 469.54, 1241.75 467.66, 1239.89 466.98 C 1238.03 466.30, 1236.61 466.71, 1233.52 468.78 C 1230.44 470.85, 1228.68 473.65, 1224.48 477.32 C 1220.28 480.98, 1217.58 483.34, 1212.51 487.08 C 1207.45 490.82, 1204.38 492.87, 1199.15 496.03 C 1193.93 499.18, 1190.96 500.80, 1186.38 502.84 C 1181.80 504.87, 1179.46 505.36, 1176.25 506.20 C 1173.04 507.04, 1171.84 506.84, 1170.32 507.04 C 1168.79 507.24, 1168.72 507.84, 1168.63 507.21 C 1168.54 506.59, 1168.93 506.14, 1169.85 503.91 C 1170.78 501.68, 1171.05 499.56, 1173.26 496.06 C 1175.47 492.55, 1177.27 490.19, 1180.91 486.39 C 1184.55 482.58, 1187.02 480.38, 1191.46 477.02 C 1195.91 473.66, 1198.59 471.91, 1203.11 469.59 C 1207.64 467.27, 1210.15 466.35, 1214.09 465.41 C 1218.03 464.48, 1219.97 464.62, 1222.82 464.90 C 1225.68 465.17, 1226.54 466.23, 1228.35 466.80 C 1230.16 467.38, 1230.76 467.59, 1231.87 467.77 C 1232.99 467.94, 1233.59 467.63, 1233.93 467.68 C 1234.26 467.73, 1234.32 467.64, 1233.55 468.02 C 1232.79 468.39, 1232.13 468.54, 1230.11 469.54 C 1228.09 470.54, 1226.98 471.62, 1223.45 473.03 C 1219.92 474.45, 1217.57 475.18, 1212.48 476.63 C 1207.39 478.08, 1204.39 478.76, 1198.01 480.29 C 1191.63 481.82, 1188.06 482.54, 1180.58 484.28 C 1173.10 486.01, 1168.75 486.96, 1160.62 488.95 C 1152.48 490.94, 1148.06 492.14, 1139.91 494.21 C 1131.77 496.28, 1127.48 497.53, 1119.90 499.32 C 1112.31 501.11, 1108.31 502.03, 1101.97 503.17 C 1095.63 504.30, 1092.53 504.68, 1088.19 505.01 C 1083.84 505.34, 1082.24 504.92, 1080.23 504.81 C 1078.22 504.70, 1078.25 505.65, 1078.13 504.44 C 1078.00 503.24, 1078.23 502.23, 1079.62 498.78 C 1081.02 495.33, 1082.12 492.64, 1085.09 487.20 C 1088.06 481.75, 1090.32 478.25, 1094.47 471.57 C 1098.62 464.89, 1101.28 460.96, 1105.86 453.79 C 1110.44 446.62, 1113.10 442.59, 1117.35 435.71 C 1121.59 428.84, 1123.63 425.19, 1127.08 419.42 C 1130.53 413.65, 1132.19 410.91, 1134.59 406.85 C 1136.99 402.78, 1138.32 401.62, 1139.10 399.07 C 1139.87 396.53, 1139.36 395.44, 1138.48 394.12 C 1137.60 392.79, 1136.27 392.24, 1134.71 392.45" style="stroke: black; fill: black;"/></svg>