<svg xmlns="http://www.w3.org/2000/svg" xmlns:xlink="http://www.w3.org/1999/xlink" width="903.561" height="474.122" viewBox="0 0 903.561 474.122">
  <defs>
    <linearGradient id="linear-gradient" x1="0.5" y1="1" x2="0.5" gradientUnits="objectBoundingBox">
      <stop offset="0" stop-color="gray" stop-opacity="0.251"/>
      <stop offset="0.54" stop-color="gray" stop-opacity="0.122"/>
      <stop offset="1" stop-color="gray" stop-opacity="0.102"/>
    </linearGradient>
    <linearGradient id="linear-gradient-2" x1="0.5" y1="1" x2="0.5" y2="-0.001" xlink:href="#linear-gradient"/>
  </defs>
  <g id="illustartion_contatc" transform="translate(0 0.359)">
    <g id="Group_12" data-name="Group 12" transform="translate(350.5 32.618)" opacity="0.1">
      <ellipse id="Ellipse_47" data-name="Ellipse 47" cx="9.382" cy="12.284" rx="9.382" ry="12.284" transform="translate(35.36 253.573)" fill="#3f3d56"/>
      <path id="Path_164" data-name="Path 164" d="M536.843,456.784a14.839,14.839,0,0,0,1.962-7.51c0-6.785-4.2-12.284-9.39-12.284S520,442.505,520,449.29a14.841,14.841,0,0,0,1.962,7.51,15.342,15.342,0,0,0,0,15.013,15.342,15.342,0,0,0,0,15.013,14.79,14.79,0,0,0-1.962,7.51c0,6.777,4.2,12.284,9.382,12.284s9.39-5.507,9.39-12.284a14.791,14.791,0,0,0-1.962-7.51,15.343,15.343,0,0,0,0-15.013,15.343,15.343,0,0,0,0-15.013Z" transform="translate(-484.673 -243.484)" fill="#3f3d56"/>
      <ellipse id="Ellipse_48" data-name="Ellipse 48" cx="9.382" cy="12.284" rx="9.382" ry="12.284" transform="translate(35.36 178.51)" fill="#3f3d56"/>
      <ellipse id="Ellipse_49" data-name="Ellipse 49" cx="9.382" cy="12.284" rx="9.382" ry="12.284" transform="translate(35.36 163.497)" fill="#3f3d56"/>
      <path id="Path_165" data-name="Path 165" d="M486.771,275.305a43.757,43.757,0,0,1-3.5-5.144l24.65-4.048-26.662.2a45.03,45.03,0,0,1-.824-35.615l35.771,18.558L483.234,225a44.955,44.955,0,1,1,74.2,50.289,44.961,44.961,0,0,1,5.128,8.195l-32.012,16.67L564.67,288.7a44.955,44.955,0,0,1-7.247,42.21,44.947,44.947,0,1,1-70.652,0,44.947,44.947,0,0,1,0-55.582Z" transform="translate(-477.149 -202.271)" fill="#6c63ff"/>
      <path id="Path_166" data-name="Path 166" d="M567.044,324.429a44.741,44.741,0,0,1-9.621,27.791,44.947,44.947,0,1,1-70.653,0C480.744,344.569,567.044,319.383,567.044,324.429Z" transform="translate(-477.149 -223.604)" opacity="0.1"/>
    </g>
    <g id="Group_13" data-name="Group 13" transform="translate(471.336 73.7)" opacity="0.1">
      <ellipse id="Ellipse_50" data-name="Ellipse 50" cx="7.016" cy="9.176" rx="7.016" ry="9.176" transform="translate(26.422 189.333)" fill="#3f3d56"/>
      <path id="Path_167" data-name="Path 167" d="M668.324,442.11a11.071,11.071,0,0,0,1.459-5.606c0-5.07-3.141-9.184-7.008-9.184s-7.016,4.122-7.016,9.184a10.99,10.99,0,0,0,1.467,5.606,11.459,11.459,0,0,0,0,11.22,11.459,11.459,0,0,0,0,11.22,10.99,10.99,0,0,0-1.467,5.606c0,5.07,3.141,9.184,7.016,9.184s7.008-4.122,7.008-9.184a11.071,11.071,0,0,0-1.459-5.606,11.542,11.542,0,0,0,0-11.22,11.542,11.542,0,0,0,0-11.22Z" transform="translate(-629.346 -282.868)" fill="#3f3d56"/>
      <ellipse id="Ellipse_51" data-name="Ellipse 51" cx="7.016" cy="9.176" rx="7.016" ry="9.176" transform="translate(26.422 133.24)" fill="#3f3d56"/>
      <ellipse id="Ellipse_52" data-name="Ellipse 52" cx="7.016" cy="9.176" rx="7.016" ry="9.176" transform="translate(26.422 122.019)" fill="#3f3d56"/>
      <path id="Path_168" data-name="Path 168" d="M630.909,306.52a32.149,32.149,0,0,1-2.613-3.842l18.426-3.026L626.8,299.8a33.669,33.669,0,0,1-.643-26.62l26.736,13.875L628.23,268.919A33.595,33.595,0,1,1,683.7,306.512a33.968,33.968,0,0,1,3.833,6.125L663.63,325.061l25.5-8.557a33.6,33.6,0,0,1-5.416,31.542,33.587,33.587,0,1,1-52.763,0,33.587,33.587,0,0,1,0-41.534Z" transform="translate(-623.72 -252.103)" fill="#6c63ff"/>
      <path id="Path_169" data-name="Path 169" d="M690.9,343.195a33.446,33.446,0,0,1-7.189,20.767,33.587,33.587,0,1,1-52.763,0C626.427,358.249,690.9,339.427,690.9,343.195Z" transform="translate(-623.724 -268.01)" opacity="0.1"/>
    </g>
    <g id="Group_14" data-name="Group 14" transform="translate(810.848 -0.359)" opacity="0.1">
      <ellipse id="Ellipse_53" data-name="Ellipse 53" cx="9.382" cy="12.284" rx="9.382" ry="12.284" transform="translate(35.993 253.573)" fill="#3f3d56"/>
      <path id="Path_170" data-name="Path 170" d="M1081.152,416.784a14.841,14.841,0,0,1-1.962-7.51c0-6.785,4.2-12.284,9.39-12.284s9.382,5.5,9.382,12.284a14.839,14.839,0,0,1-1.962,7.51,15.342,15.342,0,0,1,0,15.013,15.342,15.342,0,0,1,0,15.013,14.789,14.789,0,0,1,1.962,7.51c0,6.777-4.2,12.284-9.382,12.284s-9.39-5.507-9.39-12.284a14.79,14.79,0,0,1,1.962-7.51,15.343,15.343,0,0,1,0-15.013A15.343,15.343,0,0,1,1081.152,416.784Z" transform="translate(-1043.205 -203.484)" fill="#3f3d56"/>
      <ellipse id="Ellipse_54" data-name="Ellipse 54" cx="9.382" cy="12.284" rx="9.382" ry="12.284" transform="translate(35.993 178.51)" fill="#3f3d56"/>
      <ellipse id="Ellipse_55" data-name="Ellipse 55" cx="9.382" cy="12.284" rx="9.382" ry="12.284" transform="translate(35.993 163.497)" fill="#3f3d56"/>
      <path id="Path_171" data-name="Path 171" d="M1116.036,235.305a43.762,43.762,0,0,0,3.5-5.144l-24.65-4.048,26.662.2a45.03,45.03,0,0,0,.824-35.615L1086.6,209.254,1119.573,185a44.955,44.955,0,1,0-74.2,50.289,44.962,44.962,0,0,0-5.128,8.195l32.012,16.67L1038.137,248.7a44.955,44.955,0,0,0,7.247,42.21,44.947,44.947,0,1,0,70.653,0,44.947,44.947,0,0,0,0-55.582Z" transform="translate(-1035.541 -162.271)" fill="#6c63ff"/>
      <path id="Path_172" data-name="Path 172" d="M1035.81,284.429a44.742,44.742,0,0,0,9.621,27.791,44.947,44.947,0,1,0,70.652,0C1122.11,304.569,1035.81,279.383,1035.81,284.429Z" transform="translate(-1035.588 -183.604)" opacity="0.1"/>
    </g>
    <g id="Group_15" data-name="Group 15" transform="translate(731.881 68.754)" opacity="0.1">
      <ellipse id="Ellipse_56" data-name="Ellipse 56" cx="7.016" cy="9.176" rx="7.016" ry="9.176" transform="translate(26.755 189.333)" fill="#3f3d56"/>
      <path id="Path_173" data-name="Path 173" d="M973.689,436.11a11.072,11.072,0,0,1-1.459-5.606c0-5.07,3.141-9.184,7.008-9.184s7.016,4.122,7.016,9.184a10.989,10.989,0,0,1-1.467,5.606,11.459,11.459,0,0,1,0,11.22,11.459,11.459,0,0,1,0,11.22,10.989,10.989,0,0,1,1.467,5.606c0,5.07-3.141,9.184-7.016,9.184s-7.008-4.122-7.008-9.184a11.072,11.072,0,0,1,1.459-5.606,11.542,11.542,0,0,1,0-11.22,11.542,11.542,0,0,1,0-11.22Z" transform="translate(-945.458 -276.868)" fill="#3f3d56"/>
      <ellipse id="Ellipse_57" data-name="Ellipse 57" cx="7.016" cy="9.176" rx="7.016" ry="9.176" transform="translate(26.755 133.24)" fill="#3f3d56"/>
      <ellipse id="Ellipse_58" data-name="Ellipse 58" cx="7.016" cy="9.176" rx="7.016" ry="9.176" transform="translate(26.755 122.019)" fill="#3f3d56"/>
      <path id="Path_174" data-name="Path 174" d="M999.777,300.52a32.138,32.138,0,0,0,2.614-3.842l-18.426-3.026,19.926.148a33.669,33.669,0,0,0,.643-26.62L977.8,281.056l24.658-18.137a33.6,33.6,0,1,0-55.475,37.593,33.971,33.971,0,0,0-3.833,6.125l23.908,12.424-25.45-8.549a33.6,33.6,0,0,0,5.417,31.542,33.587,33.587,0,1,0,52.763,0,33.586,33.586,0,0,0,0-41.534Z" transform="translate(-939.756 -246.103)" fill="#6c63ff"/>
      <path id="Path_175" data-name="Path 175" d="M939.8,337.195a33.447,33.447,0,0,0,7.189,20.767,33.587,33.587,0,1,0,52.763,0C1004.266,352.249,939.8,333.427,939.8,337.195Z" transform="translate(-939.76 -262.01)" opacity="0.1"/>
    </g>
    <g id="Group_16" data-name="Group 16" transform="translate(6.026 -0.221)" opacity="0.1">
      <ellipse id="Ellipse_59" data-name="Ellipse 59" cx="9.382" cy="12.284" rx="9.382" ry="12.284" transform="translate(35.368 253.435)" fill="#3f3d56"/>
      <path id="Path_176" data-name="Path 176" d="M119.011,416.784a14.84,14.84,0,0,0,1.962-7.51c0-6.785-4.2-12.284-9.382-12.284s-9.382,5.5-9.382,12.284a14.84,14.84,0,0,0,1.954,7.51,15.392,15.392,0,0,0,0,15.013,15.392,15.392,0,0,0,0,15.013,14.782,14.782,0,0,0-1.954,7.51c0,6.777,4.2,12.284,9.382,12.284S121,461.113,121,454.336a14.79,14.79,0,0,0-1.962-7.51,15.342,15.342,0,0,0,0-15.013,15.342,15.342,0,0,0,0-15.013Z" transform="translate(-66.842 -203.622)" fill="#3f3d56"/>
      <ellipse id="Ellipse_60" data-name="Ellipse 60" cx="9.382" cy="12.284" rx="9.382" ry="12.284" transform="translate(35.368 178.372)" fill="#3f3d56"/>
      <ellipse id="Ellipse_61" data-name="Ellipse 61" cx="9.382" cy="12.284" rx="9.382" ry="12.284" transform="translate(35.368 163.359)" fill="#3f3d56"/>
      <path id="Path_177" data-name="Path 177" d="M68.947,235.335a44.787,44.787,0,0,1-3.5-5.144l24.658-4.048-26.686.239a45.03,45.03,0,0,1-.824-35.615l35.78,18.558L65.4,185.07a44.947,44.947,0,1,1,74.2,50.289,44.963,44.963,0,0,1,5.128,8.195l-32.02,16.628,34.131-11.451a45.005,45.005,0,0,1-7.255,42.21,44.947,44.947,0,1,1-70.652,0,44.947,44.947,0,0,1,0-55.582Z" transform="translate(-59.309 -162.439)" fill="#6c63ff"/>
      <path id="Path_178" data-name="Path 178" d="M149.2,284.429a44.741,44.741,0,0,1-9.621,27.791,44.947,44.947,0,1,1-70.653,0C62.9,304.569,149.2,279.383,149.2,284.429Z" transform="translate(-59.309 -183.742)" opacity="0.1"/>
    </g>
    <g id="Group_17" data-name="Group 17" transform="translate(107.9 68.753)" opacity="0.1">
      <ellipse id="Ellipse_62" data-name="Ellipse 62" cx="7.016" cy="9.176" rx="7.016" ry="9.176" transform="translate(26.422 189.333)" fill="#3f3d56"/>
      <path id="Path_179" data-name="Path 179" d="M227.494,436.11a11.072,11.072,0,0,0,1.459-5.606c0-5.07-3.133-9.184-7.008-9.184s-7.016,4.122-7.016,9.184a11.072,11.072,0,0,0,1.467,5.606,11.459,11.459,0,0,0,0,11.22,11.459,11.459,0,0,0,0,11.22,11.072,11.072,0,0,0-1.467,5.606c0,5.07,3.141,9.184,7.016,9.184s7.008-4.122,7.008-9.184a11.072,11.072,0,0,0-1.459-5.606,11.542,11.542,0,0,0,0-11.22,11.542,11.542,0,0,0,0-11.22Z" transform="translate(-188.508 -276.868)" fill="#3f3d56"/>
      <ellipse id="Ellipse_63" data-name="Ellipse 63" cx="7.016" cy="9.176" rx="7.016" ry="9.176" transform="translate(26.422 133.24)" fill="#3f3d56"/>
      <ellipse id="Ellipse_64" data-name="Ellipse 64" cx="7.016" cy="9.176" rx="7.016" ry="9.176" transform="translate(26.422 122.02)" fill="#3f3d56"/>
      <path id="Path_180" data-name="Path 180" d="M190.069,300.52a33.145,33.145,0,0,1-2.613-3.842l18.426-3.026-19.926.148a33.669,33.669,0,0,1-.643-26.62l26.736,13.875L187.39,262.919a33.595,33.595,0,1,1,55.475,37.593,33.076,33.076,0,0,1,3.834,6.125L222.79,319.061l25.5-8.557a33.6,33.6,0,0,1-5.416,31.542,33.587,33.587,0,1,1-52.763,0,33.587,33.587,0,0,1,0-41.534Z" transform="translate(-182.88 -246.103)" fill="#6c63ff"/>
      <path id="Path_181" data-name="Path 181" d="M250.057,337.195a33.447,33.447,0,0,1-7.189,20.767,33.587,33.587,0,1,1-52.763,0C185.571,352.249,250.057,333.427,250.057,337.195Z" transform="translate(-182.884 -262.01)" opacity="0.1"/>
    </g>
    <ellipse id="Ellipse_65" data-name="Ellipse 65" cx="451.78" cy="7.304" rx="451.78" ry="7.304" transform="translate(0 399.177)" fill="#6c63ff" opacity="0.1"/>
    <ellipse id="Ellipse_66" data-name="Ellipse 66" cx="451.78" cy="7.304" rx="451.78" ry="7.304" transform="translate(0 459.154)" fill="#6c63ff" opacity="0.1"/>
    <ellipse id="Ellipse_67" data-name="Ellipse 67" cx="451.78" cy="7.304" rx="451.78" ry="7.304" transform="translate(0 274.006)" fill="#6c63ff" opacity="0.1"/>
    <ellipse id="Ellipse_68" data-name="Ellipse 68" cx="451.78" cy="7.304" rx="451.78" ry="7.304" transform="translate(0 336.588)" fill="#6c63ff" opacity="0.1"/>
    <path id="Path_182" data-name="Path 182" d="M851.163,268.723a15.087,15.087,0,0,0-8.739.956,12.9,12.9,0,0,1-10.5,0,14.741,14.741,0,0,0-12.366.239,7.618,7.618,0,0,1-3.553.89c-5.012,0-9.176-5.045-10.041-11.7a9.793,9.793,0,0,0,2.473-2.7c2.935-4.732,7.477-7.774,12.589-7.774s9.6,3,12.531,7.684a9.629,9.629,0,0,0,8.318,4.567H842C846.035,260.85,849.489,264.048,851.163,268.723Z" transform="translate(-184.383 -177.795)" fill="#6c63ff" opacity="0.1"/>
    <path id="Path_183" data-name="Path 183" d="M866.419,243.859l-8.1,5.128,4.947-8.937a8,8,0,0,0-4.9-1.74h-.132a9.357,9.357,0,0,1-1.649-.124l-2.787,1.74,1.179-2.143a9.72,9.72,0,0,1-4.806-3.644l-4.946,3.116,3.1-5.639a14.366,14.366,0,0,0-11-5.557c-5.111,0-9.654,3.034-12.6,7.766a9.406,9.406,0,0,1-8.318,4.485h-.272c-5.639,0-10.206,6.389-10.206,14.271s4.567,14.279,10.206,14.279a7.741,7.741,0,0,0,3.553-.89,14.724,14.724,0,0,1,12.366-.247,12.82,12.82,0,0,0,10.5,0,14.774,14.774,0,0,1,12.251.239,7.667,7.667,0,0,0,3.512.874c5.639,0,10.206-6.4,10.206-14.279a18.081,18.081,0,0,0-2.119-8.7Z" transform="translate(-184.379 -173.83)" fill="#6c63ff" opacity="0.1"/>
    <path id="Path_184" data-name="Path 184" d="M436.525,264.6a10.585,10.585,0,0,0-6.125.668,9,9,0,0,1-7.346,0,10.289,10.289,0,0,0-8.648.173,5.457,5.457,0,0,1-2.473.618c-3.5,0-6.422-3.529-7.032-8.186a6.86,6.86,0,0,0,1.756-1.888c2.053-3.3,5.235-5.441,8.813-5.441s6.719,2.1,8.772,5.375a6.752,6.752,0,0,0,5.829,3.2h.091C432.93,259.1,435.346,261.34,436.525,264.6Z" transform="translate(-113.963 -178.129)" fill="#6c63ff" opacity="0.1"/>
    <path id="Path_185" data-name="Path 185" d="M447.2,247.205l-5.664,3.594,3.438-6.257a5.565,5.565,0,0,0-3.421-1.22h-.1a6.176,6.176,0,0,1-1.171-.091l-1.921,1.22.824-1.5a6.843,6.843,0,0,1-3.364-2.547l-3.438,2.176,2.176-3.941a10.066,10.066,0,0,0-7.7-3.9c-3.578,0-6.76,2.127-8.813,5.441a6.6,6.6,0,0,1-5.829,3.141h-.19c-3.949,0-7.148,4.468-7.148,9.992s3.2,9.992,7.148,9.992a5.359,5.359,0,0,0,2.473-.627,10.305,10.305,0,0,1,8.64-.165,8.855,8.855,0,0,0,7.354.049,10.338,10.338,0,0,1,8.574.165,5.343,5.343,0,0,0,2.473.61c3.941,0,7.139-4.477,7.139-9.992a12.638,12.638,0,0,0-1.484-6.142Z" transform="translate(-113.96 -175.354)" fill="#6c63ff" opacity="0.1"/>
    <path id="Path_186" data-name="Path 186" d="M321.59,343.006a10.569,10.569,0,0,1,6.117.668,9.019,9.019,0,0,0,7.354,0,10.322,10.322,0,0,1,8.648.165,5.334,5.334,0,0,0,2.473.627c3.5,0,6.422-3.537,7.024-8.195a6.719,6.719,0,0,1-1.748-1.888c-2.061-3.3-5.243-5.433-8.813-5.433s-6.719,2.094-8.78,5.375a6.752,6.752,0,0,1-5.82,3.2h-.091C325.176,337.54,322.752,339.775,321.59,343.006Z" transform="translate(-99.336 -191.896)" fill="#6c63ff" opacity="0.1"/>
    <path id="Path_187" data-name="Path 187" d="M308.319,325.647l5.672,3.594-3.446-6.249a5.6,5.6,0,0,1,3.43-1.228h.091a7.022,7.022,0,0,0,1.179-.082l1.921,1.212-.824-1.492a6.835,6.835,0,0,0,3.355-2.547l3.438,2.177-2.143-3.949a10.058,10.058,0,0,1,7.7-3.891c3.57,0,6.76,2.127,8.813,5.441a6.6,6.6,0,0,0,5.82,3.141h.2c3.941,0,7.139,4.477,7.139,9.992s-3.2,9.992-7.139,9.992a5.351,5.351,0,0,1-2.473-.618,10.288,10.288,0,0,0-8.648-.173,8.953,8.953,0,0,1-3.693.824,9.068,9.068,0,0,1-3.66-.775,10.322,10.322,0,0,0-8.566.165,5.342,5.342,0,0,1-2.473.61c-3.949,0-7.148-4.468-7.148-9.992A12.73,12.73,0,0,1,308.319,325.647Z" transform="translate(-96.749 -189.129)" fill="#6c63ff" opacity="0.1"/>
    <path id="Path_188" data-name="Path 188" d="M714.34,634.194c2.152-3.99-.289-8.871-3.092-12.424s-6.233-7.255-6.158-11.781c.107-6.5,7.016-10.355,12.531-13.8a61.248,61.248,0,0,0,11.253-9.069,16.6,16.6,0,0,0,3.454-4.633c1.146-2.539,1.113-5.441,1.039-8.244q-.354-13.924-1.377-27.832" transform="translate(-166.672 -230.078)" fill="none" stroke="#3f3d56" stroke-miterlimit="10" stroke-width="4"/>
    <path id="Path_189" data-name="Path 189" d="M746.129,543.788a10.148,10.148,0,0,0-5.07-8.318l-2.275,4.493.074-5.441a10.149,10.149,0,1,0,7.271,9.266Z" transform="translate(-170.316 -227.918)" fill="#6c63ff"/>
    <path id="Path_190" data-name="Path 190" d="M724.406,626.038a10.149,10.149,0,0,1-19.159-4.122,9.892,9.892,0,0,1,.659-4.122,10.157,10.157,0,0,1,18.962.107l-6.34,5.161,6.975-1.649A10.091,10.091,0,0,1,724.406,626.038Z" transform="translate(-166.697 -241.478)" fill="#6c63ff"/>
    <path id="Path_191" data-name="Path 191" d="M720.147,600.948a10.149,10.149,0,0,1-3.215-19.91l-.058,4.18,2.3-4.551h0a10.151,10.151,0,1,1,.948,20.281Z" transform="translate(-167.45 -236.091)" fill="#6c63ff"/>
    <path id="Path_192" data-name="Path 192" d="M750.027,581.06a10.149,10.149,0,1,1,4.485-18.962l-1.789,4.946,3.652-3.611a10.149,10.149,0,0,1-6.381,17.618Z" transform="translate(-172.688 -232.601)" fill="#6c63ff"/>
    <path id="Path_193" data-name="Path 193" d="M744.758,547.678c-2.341.256-4.617.981-6.975,1.129s-4.946-.42-6.414-2.242a32.527,32.527,0,0,1-1.88-3.3,7.223,7.223,0,0,0-2.556-2.407A10.149,10.149,0,1,0,745.9,547.6C745.524,547.612,745.137,547.637,744.758,547.678Z" transform="translate(-170.312 -229.104)" opacity="0.1"/>
    <path id="Path_194" data-name="Path 194" d="M750.036,582.3a10.149,10.149,0,0,1-9.654-14.477,7.509,7.509,0,0,1,2.036,2.044,34.4,34.4,0,0,0,2.011,3.355c1.583,1.855,4.287,2.473,6.735,2.349s4.815-.824,7.255-1.031c.338,0,.676-.049,1.022-.058a10.149,10.149,0,0,1-9.407,7.815Z" transform="translate(-172.697 -233.838)" opacity="0.1"/>
    <path id="Path_195" data-name="Path 195" d="M720.147,602.227a10.149,10.149,0,0,1-9.736-14.287A8.244,8.244,0,0,1,712.563,590a33.989,33.989,0,0,0,2.2,3.421c1.706,1.9,4.592,2.58,7.181,2.473s4.947-.668,7.42-.824a10.165,10.165,0,0,1-9.217,7.156Z" transform="translate(-167.45 -237.37)" opacity="0.1"/>
    <path id="Path_196" data-name="Path 196" d="M724.406,627.414a10.149,10.149,0,0,1-19.159-4.122,9.893,9.893,0,0,1,.659-4.122,10.133,10.133,0,0,1,2.226,1.987c.964,1.171,1.6,2.473,2.721,3.6,2.069,2.036,5.425,2.877,8.4,2.951a42.629,42.629,0,0,0,5.153-.3Z" transform="translate(-166.697 -242.854)" opacity="0.1"/>
    <path id="Path_197" data-name="Path 197" d="M104.34,562.194c2.152-3.99-.289-8.871-3.092-12.424s-6.233-7.271-6.158-11.781c.107-6.5,7.016-10.355,12.531-13.8a61.255,61.255,0,0,0,11.253-9.069,16.6,16.6,0,0,0,3.454-4.633c1.146-2.539,1.113-5.441,1.039-8.244Q123,488.318,121.99,474.41" transform="translate(-59.566 -217.436)" fill="none" stroke="#3f3d56" stroke-miterlimit="10" stroke-width="4"/>
    <path id="Path_198" data-name="Path 198" d="M136.129,471.788a10.149,10.149,0,0,0-5.07-8.318l-2.275,4.493.074-5.441a10.149,10.149,0,1,0,7.271,9.266Z" transform="translate(-63.21 -215.276)" fill="#6c63ff"/>
    <path id="Path_199" data-name="Path 199" d="M114.406,554.038a10.149,10.149,0,0,1-19.159-4.122,9.893,9.893,0,0,1,.66-4.122,10.157,10.157,0,0,1,18.962.107l-6.34,5.161,6.975-1.649a10.091,10.091,0,0,1-1.1,4.625Z" transform="translate(-59.591 -228.836)" fill="#6c63ff"/>
    <path id="Path_200" data-name="Path 200" d="M110.147,528.948a10.149,10.149,0,0,1-3.215-19.91l-.058,4.18,2.3-4.551h0a10.151,10.151,0,1,1,.948,20.281Z" transform="translate(-60.344 -223.449)" fill="#6c63ff"/>
    <path id="Path_201" data-name="Path 201" d="M140.027,509.06a10.149,10.149,0,1,1,4.485-18.962l-1.789,4.946,3.652-3.611a10.149,10.149,0,0,1-6.381,17.618Z" transform="translate(-65.582 -219.959)" fill="#6c63ff"/>
    <path id="Path_202" data-name="Path 202" d="M134.758,475.678c-2.341.256-4.617.981-6.975,1.129s-4.947-.42-6.414-2.242a32.545,32.545,0,0,1-1.88-3.3,7.222,7.222,0,0,0-2.556-2.407A10.149,10.149,0,1,0,135.9,475.6C135.524,475.612,135.137,475.637,134.758,475.678Z" transform="translate(-63.206 -216.462)" opacity="0.1"/>
    <path id="Path_203" data-name="Path 203" d="M140.036,510.3a10.149,10.149,0,0,1-9.654-14.477,7.51,7.51,0,0,1,2.036,2.044,34.393,34.393,0,0,0,2.012,3.355c1.583,1.855,4.287,2.473,6.735,2.35s4.815-.824,7.255-1.031c.338,0,.676-.049,1.022-.058A10.148,10.148,0,0,1,140.036,510.3Z" transform="translate(-65.592 -221.196)" opacity="0.1"/>
    <path id="Path_204" data-name="Path 204" d="M110.147,530.227a10.149,10.149,0,0,1-9.736-14.287A8.244,8.244,0,0,1,102.563,518a33.992,33.992,0,0,0,2.2,3.421c1.707,1.9,4.592,2.581,7.181,2.473s4.946-.668,7.42-.824A10.165,10.165,0,0,1,110.147,530.227Z" transform="translate(-60.344 -224.728)" opacity="0.1"/>
    <path id="Path_205" data-name="Path 205" d="M114.406,555.414a10.149,10.149,0,0,1-19.159-4.122,9.893,9.893,0,0,1,.66-4.122,10.133,10.133,0,0,1,2.226,1.987c.965,1.171,1.6,2.473,2.721,3.6,2.069,2.036,5.425,2.877,8.4,2.951a42.63,42.63,0,0,0,5.153-.3Z" transform="translate(-59.591 -230.212)" opacity="0.1"/>
    <path id="Path_206" data-name="Path 206" d="M508.462,479.827c-2.152-3.982.289-8.862,3.1-12.416s6.224-7.255,6.15-11.781c-.1-6.513-7.008-10.355-12.531-13.8a61.006,61.006,0,0,1-11.245-9.069,16.306,16.306,0,0,1-3.463-4.625c-1.138-2.547-1.1-5.441-1.039-8.244q.371-13.924,1.377-27.832" transform="translate(-128.802 -202.977)" fill="none" stroke="#3f3d56" stroke-miterlimit="10" stroke-width="4"/>
    <path id="Path_207" data-name="Path 207" d="M478.388,389.428a10.14,10.14,0,0,1,5.062-8.318l2.275,4.493-.066-5.441a10.4,10.4,0,0,1,3.339-.4,10.149,10.149,0,1,1-10.61,9.67Z" transform="translate(-126.865 -200.815)" fill="#6c63ff"/>
    <path id="Path_208" data-name="Path 208" d="M500.1,471.661a10.149,10.149,0,1,0-.486-8.17l6.34,5.161L498.98,467a10.091,10.091,0,0,0,1.121,4.658Z" transform="translate(-130.482 -214.357)" fill="#6c63ff"/>
    <path id="Path_209" data-name="Path 209" d="M504.36,446.588a10.149,10.149,0,0,0,3.223-19.91l.049,4.18-2.3-4.551h0a10.149,10.149,0,0,0-10.635,9.637,10.025,10.025,0,0,0,.437,3.463A10.14,10.14,0,0,0,504.36,446.588Z" transform="translate(-129.728 -208.988)" fill="#6c63ff"/>
    <path id="Path_210" data-name="Path 210" d="M474.474,426.68a10.149,10.149,0,1,0-4.493-18.962l1.8,4.947-3.693-3.537a10.066,10.066,0,0,0-3.3,7.008,9.818,9.818,0,0,0,.256,2.795,10.14,10.14,0,0,0,9.431,7.75Z" transform="translate(-124.476 -205.494)" fill="#6c63ff"/>
    <path id="Path_211" data-name="Path 211" d="M479.808,393.318c2.341.256,4.617.981,6.966,1.129s4.947-.42,6.422-2.242a32.468,32.468,0,0,0,1.871-3.3,7.247,7.247,0,0,1,2.564-2.407,10.149,10.149,0,1,1-18.962,6.736C479.041,393.244,479.42,393.277,479.808,393.318Z" transform="translate(-126.916 -202.001)" opacity="0.1"/>
    <path id="Path_212" data-name="Path 212" d="M474.537,427.917a10.157,10.157,0,0,0,9.654-14.477,7.545,7.545,0,0,0-2.045,2.045,34.4,34.4,0,0,1-2.012,3.355c-1.575,1.855-4.279,2.473-6.727,2.35s-4.815-.824-7.255-1.031c-.338,0-.684-.049-1.022-.058a10.14,10.14,0,0,0,9.407,7.815Z" transform="translate(-124.539 -206.731)" opacity="0.1"/>
    <path id="Path_213" data-name="Path 213" d="M504.457,447.867a10.14,10.14,0,0,0,9.736-14.287,8.1,8.1,0,0,0-2.143,2.061,34,34,0,0,1-2.2,3.421c-1.715,1.9-4.592,2.58-7.189,2.473s-4.947-.668-7.42-.824a10.14,10.14,0,0,0,9.217,7.156Z" transform="translate(-129.826 -210.267)" opacity="0.1"/>
    <path id="Path_214" data-name="Path 214" d="M500.34,473.054a10.149,10.149,0,0,0,18.508-8.244,9.743,9.743,0,0,0-2.226,1.987c-.965,1.171-1.649,2.473-2.721,3.6-2.078,2.036-5.425,2.877-8.409,2.951A44.479,44.479,0,0,1,500.34,473.054Z" transform="translate(-130.721 -215.751)" opacity="0.1"/>
    <circle id="Ellipse_69" data-name="Ellipse 69" cx="82.409" cy="82.409" r="82.409" transform="translate(560.414 113.888)" fill="#3f3d56"/>
    <path id="Path_215" data-name="Path 215" d="M859.106,414.064c-2.869-2.869-9.769-7.2-13.191-8.813-3.949-1.9-5.4-1.863-8.195.157-2.325,1.649-3.834,3.24-6.5,2.655s-7.964-4.576-13.083-9.679-9.093-10.363-9.662-13.075,1-4.188,2.663-6.513c2.012-2.795,2.069-4.246.157-8.195-1.649-3.421-5.927-10.305-8.821-13.191s-3.52-2.251-5.1-1.649a29.514,29.514,0,0,0-4.674,2.473c-2.869,1.921-4.477,3.52-5.606,5.927s-2.407,6.876,4.163,18.574a103.621,103.621,0,0,0,18.22,24.3h0a103.772,103.772,0,0,0,24.378,18.253c11.69,6.6,16.167,5.285,18.574,4.163s4.007-2.712,5.919-5.606a29.124,29.124,0,0,0,2.473-4.674C861.357,417.584,862,416.941,859.106,414.064Z" transform="translate(-180.908 -196.514)" fill="#6c63ff"/>
    <path id="Path_216" data-name="Path 216" d="M814.163,300.86a82.442,82.442,0,1,0,82.4,82.414A82.442,82.442,0,0,0,814.163,300.86Zm0,153.853a71.452,71.452,0,1,1,71.452-71.452,71.452,71.452,0,0,1-71.452,71.452Z" transform="translate(-171.341 -186.964)" opacity="0.1"/>
    <circle id="Ellipse_70" data-name="Ellipse 70" cx="82.409" cy="82.409" r="82.409" transform="translate(371.086 239.059)" fill="#3f3d56"/>
    <path id="Path_217" data-name="Path 217" d="M638.792,522.4l-24.675,25.1a.445.445,0,0,0,0,.643l17.313,18.409a2.979,2.979,0,1,1-4.213,4.213L610,552.428a.47.47,0,0,0-.66,0l-4.2,4.237a18.442,18.442,0,0,1-13.191,5.548,18.846,18.846,0,0,1-13.422-5.7l-4.031-4.122a.47.47,0,0,0-.66,0l-17.181,18.3a2.979,2.979,0,1,1-4.213-4.213l17.247-18.368a.5.5,0,0,0,0-.643l-24.675-25.1a.453.453,0,0,0-.775.322v50.232a7.354,7.354,0,0,0,7.329,7.329h80.686a7.354,7.354,0,0,0,7.329-7.329v-50.19a.453.453,0,0,0-.792-.322Z" transform="translate(-138.429 -225.832)" fill="#6c63ff"/>
    <path id="Path_218" data-name="Path 218" d="M592.523,554.568a12.482,12.482,0,0,0,9-3.71l35.936-36.579a7.173,7.173,0,0,0-4.534-1.649H552.184a7.123,7.123,0,0,0-4.534,1.649l35.945,36.579A12.432,12.432,0,0,0,592.523,554.568Z" transform="translate(-139.028 -224.147)" fill="#6c63ff"/>
    <path id="Path_219" data-name="Path 219" d="M583.253,452.69a82.442,82.442,0,1,0,82.4,82.414A82.442,82.442,0,0,0,583.253,452.69Zm0,153.853a71.452,71.452,0,1,1,71.452-71.452,71.452,71.452,0,0,1-71.452,71.452Z" transform="translate(-130.797 -213.623)" opacity="0.1"/>
    <circle id="Ellipse_71" data-name="Ellipse 71" cx="82.409" cy="82.409" r="82.409" transform="translate(175.51 177.516)" fill="#3f3d56"/>
    <path id="Path_220" data-name="Path 220" d="M357.853,430.16,325,505.957l3.067,3.067,29.794-13.141,29.794,13.141,3.067-3.067Z" transform="translate(-99.934 -209.667)" fill="#6c63ff"/>
    <path id="Path_221" data-name="Path 221" d="M347.283,378a82.394,82.394,0,1,0,.014,0Zm0,153.853a58.812,58.812,0,1,1,.008.033Z" transform="translate(-89.364 -200.508)" opacity="0.1"/>
    <path id="Path_222" data-name="Path 222" d="M832.549,596.256q-1.121-2.737-2.3-5.458a16.2,16.2,0,0,0-2.811-4.856,5.144,5.144,0,0,0-1.649-1.237,7.031,7.031,0,0,0-2.152-.429,17.176,17.176,0,0,0-3.38-.091c-.437-.132-.932-.305-1.418-.5a11.773,11.773,0,0,0,8.772-10.924v-.5a11.748,11.748,0,0,0-11.7-11.8,11.541,11.541,0,0,0-6.142,1.756,11.022,11.022,0,0,0-12.366,5.961,13.628,13.628,0,0,0-4.2,10.14v.519c.214,6.406,4.353,11.542,9.58,12.061a5.491,5.491,0,0,0-1.517,1.014c-1.6,1.542-1.863,3.99-2.036,6.216l-.124,1.649-2.77.989a.511.511,0,0,0-.124.9l2.646,1.888v.47a2.059,2.059,0,0,0,.049.536,3.784,3.784,0,0,0-1.022,1.459,6.743,6.743,0,0,0-.239,2.671l.1,2.3a18.061,18.061,0,0,0,.7,5.12c.346,1.022,1.847,3.487,2.927,3.5-1,4.534-1.261,14.1-1.261,14.1-.124.124.223.239.824.338.594,4.551,2.531,17.313,5.969,22.927a48.344,48.344,0,0,1,1.294,5.573s.981,12.127,2.275,15.73c1.1,3.067,1.979,10.635,2.218,12.828a1.261,1.261,0,0,0-.915.94c-.651,1.962-4.872,4.947-4.872,4.947a20.411,20.411,0,0,0-3.644,2.333c-1.327,1.2-1.278,2.275,4.617,1.6,11.377-1.311,13.323-4.947,13.323-4.947s-.181-.61-.453-1.4a15.217,15.217,0,0,0-1.492-3.52c-.165-.157-.33.107-.528.519a70.587,70.587,0,0,1-.775-15.919s.322-5.573-1.3-9.506a18,18,0,0,1,0-6.224c.651-2.622-2.6-15.408-2.6-15.408l-1.863-9.415a2.7,2.7,0,0,1,.519,1.1l.049.19.049.272a.511.511,0,0,0,.132.256c1.27,5.276,4.749,19.893,4.749,22.037,0,2.622,3.248,9.176,3.248,9.176s1.294,10.816,3.57,15.07c1.731,3.24,1.773,7.989,1.69,10.083h0s-.387,2.7-1.039,3.347a7.962,7.962,0,0,0-1.228,2.135l-.074.157s-.973,1.97-.322,2.3a15.969,15.969,0,0,0,7.8.981s1.3-1.649,1.3-2.292a10.329,10.329,0,0,0-.148-1.171c-.239-1.55-.684-3.99-.693-4.015.272-1.055-.824-3.99-.824-3.99l-.33-9.176a42.359,42.359,0,0,0-2.275-18.36s-1.649-5.895-1.294-7.535-.651-19.011-.651-19.011l-.1-.247a18.776,18.776,0,0,1,.1-3.685c.322-3.932-.973-12.127-1.3-12.449a10.8,10.8,0,0,1-.462-2.712c.074-.684.3-2.688.6-5.177a93.047,93.047,0,0,0,9.58-.824,1.2,1.2,0,0,0,.824-.33,1.154,1.154,0,0,0,.19-.668C836.226,605.622,834.42,600.823,832.549,596.256Zm-6.538,10.4c.338-2.35.7-4.625,1.063-6.315l.049.148a45.864,45.864,0,0,1,1.566,5.194A17.671,17.671,0,0,1,826.011,606.652Z" transform="translate(-182.142 -232.545)" fill="url(#linear-gradient)"/>
    <path id="Path_223" data-name="Path 223" d="M802.37,648.543s1.946,17.5,6.158,24.3a47.179,47.179,0,0,1,1.294,5.507s.973,11.987,2.267,15.548,2.267,13.29,2.267,13.29,4.534,5.177,6.158.973a68.279,68.279,0,0,1-.973-16.851s.322-5.507-1.294-9.4a17.575,17.575,0,0,1,0-6.15c.643-2.6-2.6-15.227-2.6-15.227L813.063,647.9Z" transform="translate(-183.753 -247.898)" fill="#be6f72"/>
    <path id="Path_224" data-name="Path 224" d="M823.171,723.884s-1.946,3.562-13.281,4.856c-5.886.668-5.928-.4-4.6-1.583a20.525,20.525,0,0,1,3.628-2.308s4.213-2.91,4.856-4.856,2.918-.322,2.918-.322c3.24,4.856,3.891-1.3,4.534-.651a14.622,14.622,0,0,1,1.492,3.471C822.99,723.274,823.171,723.884,823.171,723.884Z" transform="translate(-184.141 -260.377)" fill="#ff6f61"/>
    <path id="Path_225" data-name="Path 225" d="M823.171,724.633s-1.946,3.562-13.281,4.856c-5.886.668-5.928-.4-4.6-1.583.923.585,2.787.824,6.538-.684,5.4-2.209,9.316-3.487,10.891-3.982C822.99,724.023,823.171,724.633,823.171,724.633Z" transform="translate(-184.141 -261.127)" opacity="0.1"/>
    <path id="Path_226" data-name="Path 226" d="M821.342,691.314s.322-5.507-1.294-9.4a17.577,17.577,0,0,1,0-6.15c.643-2.6-2.6-15.227-2.6-15.227L814.862,647.9l-2.242.132,2.564,12.506s3.24,12.63,2.6,15.227a17.57,17.57,0,0,0,0,6.15c1.649,3.891,1.294,9.4,1.294,9.4a68.273,68.273,0,0,0,.973,16.851,2.837,2.837,0,0,1-.94,1.336c1.2.544,2.473.519,3.207-1.336A68.279,68.279,0,0,1,821.342,691.314Z" transform="translate(-185.552 -247.898)" opacity="0.1"/>
    <path id="Path_227" data-name="Path 227" d="M815.809,562.42a11.542,11.542,0,0,0-6.117,1.74,11.006,11.006,0,0,0-12.366,5.895,13.421,13.421,0,0,0-4.2,10.025c0,6.892,4.641,12.473,10.363,12.473,4.122,0,7.733-2.935,9.39-7.181a11.374,11.374,0,0,0,2.918.379,11.665,11.665,0,0,0,0-23.331Z" transform="translate(-182.13 -232.889)" fill="#3f3d56"/>
    <path id="Path_228" data-name="Path 228" d="M829.469,650.65l.973,2.589s.973,17.173.643,18.8,1.3,7.42,1.3,7.42a41.475,41.475,0,0,1,2.267,18.137l.322,9.069s1.294,3.561.651,4.213-5.532-.577-5.532-.577.651-6.8-1.649-11.014-3.561-14.905-3.561-14.905-3.24-6.48-3.24-9.069-5.186-23.653-5.186-23.653Z" transform="translate(-186.226 -248.381)" fill="#be6f72"/>
    <path id="Path_229" data-name="Path 229" d="M801.575,645.916s.33-11.666,1.649-15.227a24.179,24.179,0,0,0,1.443-5.169s19.613,3.545,21.237,2.251c0,0,.322,4.534.651,4.856s1.649,8.426,1.294,12.317,0,3.883,0,3.883-13.29,1.946-13.611,0-1.294-1.937-1.294-1.937S800.932,646.526,801.575,645.916Z" transform="translate(-183.609 -243.969)" fill="#3f3d56"/>
    <g id="Group_18" data-name="Group 18" transform="translate(617.966 383.802)" opacity="0.1">
      <path id="Path_230" data-name="Path 230" d="M812.273,650.118s-8.195-.223-10.668-.668v.668c-.643.643,11.344.973,11.344.973a.824.824,0,0,1,.445.181C812.957,650.118,812.273,650.118,812.273,650.118Z" transform="translate(-801.58 -631.972)"/>
      <path id="Path_231" data-name="Path 231" d="M829.206,633.106c-.33-.322-.651-4.856-.651-4.856a1.4,1.4,0,0,1-.552.2,16.38,16.38,0,0,0,.552,3.685c.214.214,1.649,8.426,1.294,12.317s0,3.883,0,3.883-10.511,1.542-13.059.511a3.9,3.9,0,0,0,.1.462c.322,1.946,13.611,0,13.611,0s-.33,0,0-3.883S829.527,633.436,829.206,633.106Z" transform="translate(-804.25 -628.25)"/>
      <path id="Path_232" data-name="Path 232" d="M812.273,650.118s-8.195-.223-10.668-.668v.668c-.643.643,11.344.973,11.344.973a.824.824,0,0,1,.445.181C812.957,650.118,812.273,650.118,812.273,650.118Z" transform="translate(-801.58 -631.972)"/>
      <path id="Path_233" data-name="Path 233" d="M829.206,633.106c-.33-.322-.651-4.856-.651-4.856a1.4,1.4,0,0,1-.552.2,16.38,16.38,0,0,0,.552,3.685c.214.214,1.649,8.426,1.294,12.317s0,3.883,0,3.883-10.511,1.542-13.059.511a3.9,3.9,0,0,0,.1.462c.322,1.946,13.611,0,13.611,0s-.33,0,0-3.883S829.527,633.436,829.206,633.106Z" transform="translate(-804.25 -628.25)"/>
    </g>
    <path id="Path_234" data-name="Path 234" d="M817.415,586.471a4.3,4.3,0,0,0,1.237,1.6,2.771,2.771,0,0,0,1.162.5c-.725.42-1.517.734-2.242,1.154a39.867,39.867,0,0,0-3.3,2.473,6.71,6.71,0,0,1-3.784,1.468,4.633,4.633,0,0,0,.528-4.609,4.3,4.3,0,0,1-.577-1.6,2.873,2.873,0,0,1,1.591-2.143c.618-.42,1.253-.824,1.9-1.228.5-.313,1.261-.973,1.9-.948s.709.585.824,1.162A9.14,9.14,0,0,0,817.415,586.471Z" transform="translate(-185.169 -236.527)" fill="#be6f72"/>
    <path id="Path_235" data-name="Path 235" d="M817.415,586.471a4.3,4.3,0,0,0,1.237,1.6,2.771,2.771,0,0,0,1.162.5c-.725.42-1.517.734-2.242,1.154a39.867,39.867,0,0,0-3.3,2.473,6.71,6.71,0,0,1-3.784,1.468,4.633,4.633,0,0,0,.528-4.609,4.3,4.3,0,0,1-.577-1.6,2.873,2.873,0,0,1,1.591-2.143c.618-.42,1.253-.824,1.9-1.228.5-.313,1.261-.973,1.9-.948s.709.585.824,1.162A9.14,9.14,0,0,0,817.415,586.471Z" transform="translate(-185.169 -236.527)" opacity="0.1"/>
    <circle id="Ellipse_72" data-name="Ellipse 72" cx="7.453" cy="7.453" r="7.453" transform="translate(632.385 354.156)" fill="#be6f72"/>
    <path id="Path_236" data-name="Path 236" d="M838.9,728c0,.651-1.294,2.267-1.294,2.267a16.044,16.044,0,0,1-7.774-.973c-.651-.321.322-2.267.322-2.267l.074-.157a7.869,7.869,0,0,1,1.228-2.111c.643-.643,1.031-3.3,1.031-3.3,2.012-3.3,5.581,1.426,5.581,1.426s.453,2.473.693,3.974A11.305,11.305,0,0,1,838.9,728Z" transform="translate(-188.535 -260.609)" fill="#ff6f61"/>
    <path id="Path_237" data-name="Path 237" d="M838.9,729.394c0,.651-1.294,2.267-1.294,2.267a16.044,16.044,0,0,1-7.774-.973c-.651-.321.322-2.267.322-2.267l.074-.157a15.665,15.665,0,0,0,7.057,1.451l1.476-1.476C838.843,728.792,838.9,729.229,838.9,729.394Z" transform="translate(-188.535 -262.005)" opacity="0.1"/>
    <circle id="Ellipse_73" data-name="Ellipse 73" cx="7.288" cy="7.288" r="7.288" transform="translate(617.645 338.764)" fill="#be6f72"/>
    <path id="Path_238" data-name="Path 238" d="M802.4,599.725c-1.6,1.525-1.863,3.941-2.028,6.142l-.247,3.223a16.276,16.276,0,0,0-.058,2.613c0,.536.132,1.08.181,1.649s.066,1.286.074,1.937v4.765a5.622,5.622,0,0,0,.528,2.861,1.946,1.946,0,0,0,2.473.891,2.819,2.819,0,0,0,1.022-1.583,24.608,24.608,0,0,0,1.649-6.035c.066-.717.074-1.434.14-2.152s.19-1.468.3-2.193c.462-3.034.668-6.1.874-9.159.058-.907.874-4.477-.313-4.872-.577-.19-1.773.4-2.325.6a6.546,6.546,0,0,0-2.267,1.311Z" transform="translate(-183.343 -239.097)" fill="#be6f72"/>
    <path id="Path_239" data-name="Path 239" d="M802.4,599.725c-1.6,1.525-1.863,3.941-2.028,6.142l-.247,3.223a16.276,16.276,0,0,0-.058,2.613c0,.536.132,1.08.181,1.649s.066,1.286.074,1.937v4.765a5.622,5.622,0,0,0,.528,2.861,1.946,1.946,0,0,0,2.473.891,2.819,2.819,0,0,0,1.022-1.583,24.608,24.608,0,0,0,1.649-6.035c.066-.717.074-1.434.14-2.152s.19-1.468.3-2.193c.462-3.034.668-6.1.874-9.159.058-.907.874-4.477-.313-4.872-.577-.19-1.773.4-2.325.6a6.546,6.546,0,0,0-2.267,1.311Z" transform="translate(-183.343 -239.097)" opacity="0.1"/>
    <path id="Path_240" data-name="Path 240" d="M818.287,588.16s-5.507,4.213-8.747,5.186c0,0-1.921,2.193-2.251,2.721s-.989,6.348-1.649,7.651-2.267,4.213,0,7.123c0,0,.643,2.918.322,3.891s-1.5,4.534-.429,4.7,4.32,2.424,7.23,1.781,13.776,2.473,13.776,2.473,1.8-16.694,3.1-19.646l-2.918-.973s-8.1-4.856-3.24-12.309C823.473,590.757,818.922,589.784,818.287,588.16Z" transform="translate(-184.121 -237.409)" fill="#ff6f61"/>
    <path id="Path_241" data-name="Path 241" d="M796.8,611.383l6.694,4.74a.494.494,0,0,0,.585,0l1.814-1.36a.511.511,0,0,0,0-.775l-5.153-4.576a.494.494,0,0,0-.5-.1l-3.306,1.187a.5.5,0,0,0-.132.882Z" transform="translate(-182.737 -241.118)" fill="#3f3d56"/>
    <path id="Path_242" data-name="Path 242" d="M799.391,626.433a17.941,17.941,0,0,1-.7-5.054l-.1-2.284a6.6,6.6,0,0,1,.239-2.638,4.312,4.312,0,0,1,2.778-2.432,9.6,9.6,0,0,1,3.784-.272.973.973,0,0,1,.487.132.907.907,0,0,1,.264.445,2.984,2.984,0,0,1,.148,2.383,2.473,2.473,0,0,1-.758.783c-.9.643-1.946,1.072-2.795,1.772a1.013,1.013,0,0,0-.379.478,1.112,1.112,0,0,0,0,.519,8.3,8.3,0,0,0,.429,1.327,1.31,1.31,0,0,0,.371.561c.157.132.363.181.528.305.354.289,1.1.668,1.055,1.121-.124,1.649-1.113,3.5-1.5,5.128C802.5,631.9,799.869,627.826,799.391,626.433Z" transform="translate(-183.082 -241.889)" fill="#be6f72"/>
    <g id="Group_19" data-name="Group 19" transform="translate(626.54 366.143)" opacity="0.1">
      <path id="Path_243" data-name="Path 243" d="M812.161,628.233h-.181a5.548,5.548,0,0,0,2.119,0h.206a7.422,7.422,0,0,0-2.144,0Z" transform="translate(-811.98 -610.574)"/>
      <path id="Path_244" data-name="Path 244" d="M832.152,606.83c-1.162,2.613-2.877,16.769-3.182,19.58,1.138.3,1.888.511,1.888.511s1.781-16.653,3.083-19.6Z" transform="translate(-814.963 -606.83)"/>
    </g>
    <path id="Path_245" data-name="Path 245" d="M825.521,599.717a2.474,2.474,0,0,0,1.063,1.608,14.269,14.269,0,0,1,1.888,1.913,13.545,13.545,0,0,1,1.871,3.751,45.967,45.967,0,0,1,1.558,5.128c-4.122,1.913-8.8,1.822-13.191,3.083a10.529,10.529,0,0,0-4.947,2.927,6.818,6.818,0,0,0-1.822,5.367.561.561,0,0,0,.676.552,4.947,4.947,0,0,0,3.026-1.039,14.4,14.4,0,0,0,2.317-2.275,3.727,3.727,0,0,1,1.649-1.22,26.984,26.984,0,0,1,7.42-.725,93.51,93.51,0,0,0,11.055-.874.891.891,0,0,0,.989-.989c.363-4.864-1.443-9.613-3.3-14.122q-1.113-2.712-2.292-5.4a15.994,15.994,0,0,0-2.8-4.8,4.947,4.947,0,0,0-1.649-1.22,6.972,6.972,0,0,0-2.209-.412,15.667,15.667,0,0,0-3.619-.066,7.711,7.711,0,0,0-.346,1.871,16.211,16.211,0,0,0,2,6.323C824.977,599.4,825.331,599.42,825.521,599.717Z" transform="translate(-185.427 -237.878)" fill="#be6f72"/>
    <path id="Path_246" data-name="Path 246" d="M812.234,606.67a6.044,6.044,0,0,0-.824,3.149,4.238,4.238,0,0,0,.206,1.286,4.171,4.171,0,0,0,2.63,2.473" transform="translate(-185.34 -240.659)" fill="none" stroke="#000" stroke-miterlimit="10" stroke-width="1" opacity="0.1"/>
    <path id="Path_247" data-name="Path 247" d="M814.322,573.267a3.784,3.784,0,0,0-1.2.19c-1.08-1.649-3.619-2.786-6.6-2.786-3.941,0-7.131,2.036-7.131,4.543s3.19,4.534,7.131,4.534a10.032,10.032,0,0,0,4.279-.907,3.883,3.883,0,1,0,3.5-5.573Z" transform="translate(-183.231 -234.338)" fill="#3f3d56"/>
    <path id="Path_248" data-name="Path 248" d="M814.64,580.732a3.875,3.875,0,0,1-3.5-2.2,10.034,10.034,0,0,1-4.278.907c-3.932,0-7.123-2.028-7.123-4.534a2.723,2.723,0,0,1,0-.453,3.075,3.075,0,0,0-.363,1.426c0,2.473,3.191,4.534,7.131,4.534a10.032,10.032,0,0,0,4.279-.907,3.883,3.883,0,0,0,7.313-.965,3.866,3.866,0,0,1-3.462,2.193Z" transform="translate(-183.228 -235.002)" opacity="0.1"/>
    <path id="Path_249" data-name="Path 249" d="M797.327,571.967a11.006,11.006,0,0,1,12.366-5.895,11.657,11.657,0,0,1,17.741,8.953v-.973a11.657,11.657,0,0,0-17.783-9.893,11.006,11.006,0,0,0-12.366,5.895,13.421,13.421,0,0,0-4.2,10.025v.973A13.19,13.19,0,0,1,797.327,571.967Z" transform="translate(-182.122 -232.89)" opacity="0.1"/>
    <path id="Path_250" data-name="Path 250" d="M886.42,558.306c2.152-3.982-.289-8.871-3.1-12.424s-6.224-7.247-6.15-11.781c.1-6.5,7.008-10.346,12.531-13.8a60.927,60.927,0,0,0,11.245-9.069,16.43,16.43,0,0,0,3.463-4.625c1.138-2.547,1.1-5.441,1.039-8.244q-.363-13.933-1.377-27.832" transform="translate(-196.886 -216.755)" fill="none" stroke="#3f3d56" stroke-miterlimit="10" stroke-width="4"/>
    <path id="Path_251" data-name="Path 251" d="M918.2,467.87a10.132,10.132,0,0,0-5.062-8.31l-2.275,4.493.066-5.441a9.959,9.959,0,0,0-3.339-.4,10.149,10.149,0,1,0,10.61,9.662Z" transform="translate(-200.528 -214.589)" fill="#6c63ff"/>
    <path id="Path_252" data-name="Path 252" d="M896.486,550.11a10.149,10.149,0,1,1,.487-8.178l-6.34,5.161,6.975-1.649a10.091,10.091,0,0,1-1.121,4.666Z" transform="translate(-196.911 -228.131)" fill="#6c63ff"/>
    <path id="Path_253" data-name="Path 253" d="M892.224,525.03A10.149,10.149,0,0,1,889,505.12l-.049,4.18,2.3-4.543h0a10.151,10.151,0,1,1,.948,20.281Z" transform="translate(-197.662 -222.763)" fill="#6c63ff"/>
    <path id="Path_254" data-name="Path 254" d="M922.1,505.15a10.149,10.149,0,1,1,4.493-18.962l-1.8,4.947,3.693-3.545a10.091,10.091,0,0,1,3.3,7.008,9.8,9.8,0,0,1-.256,2.795A10.149,10.149,0,0,1,922.1,505.15Z" transform="translate(-202.902 -219.272)" fill="#6c63ff"/>
    <path id="Path_255" data-name="Path 255" d="M916.837,471.758c-2.341.264-4.625.989-6.975,1.138s-4.947-.42-6.422-2.251a31.494,31.494,0,0,1-1.871-3.3,7.3,7.3,0,0,0-2.556-2.407,10.149,10.149,0,1,0,18.962,6.735C917.6,471.692,917.216,471.717,916.837,471.758Z" transform="translate(-200.526 -215.774)" opacity="0.1"/>
    <path id="Path_256" data-name="Path 256" d="M922.107,506.387a10.157,10.157,0,0,1-9.654-14.477,7.51,7.51,0,0,1,2.045,2.036,32.521,32.521,0,0,0,2.012,3.355c1.575,1.863,4.279,2.473,6.727,2.358s4.815-.824,7.255-1.031c.338,0,.684-.058,1.022-.066a10.149,10.149,0,0,1-9.407,7.824Z" transform="translate(-202.911 -220.509)" opacity="0.1"/>
    <path id="Path_257" data-name="Path 257" d="M892.225,526.3a10.14,10.14,0,0,1-9.736-14.3,8.368,8.368,0,0,1,2.144,2.061c.824,1.113,1.278,2.4,2.2,3.421,1.715,1.913,4.592,2.58,7.189,2.523s4.946-.676,7.42-.866a10.149,10.149,0,0,1-9.217,7.164Z" transform="translate(-197.662 -224.037)" opacity="0.1"/>
    <path id="Path_258" data-name="Path 258" d="M896.5,551.5a10.157,10.157,0,0,1-18.508-8.244,9.942,9.942,0,0,1,2.226,1.987c.973,1.179,1.608,2.473,2.721,3.611,2.078,2.036,5.425,2.869,8.409,2.951a44.471,44.471,0,0,0,5.153-.305Z" transform="translate(-196.923 -229.525)" opacity="0.1"/>
    <path id="Path_259" data-name="Path 259" d="M1045.42,710.306c2.152-3.982-.289-8.871-3.1-12.424s-6.224-7.247-6.15-11.781c.1-6.5,7.007-10.346,12.531-13.8a60.928,60.928,0,0,0,11.245-9.069,16.433,16.433,0,0,0,3.463-4.625c1.138-2.547,1.1-5.441,1.039-8.244q-.354-13.933-1.377-27.832" transform="translate(-224.804 -243.444)" fill="none" stroke="#3f3d56" stroke-miterlimit="10" stroke-width="4"/>
    <path id="Path_260" data-name="Path 260" d="M1077.208,619.87a10.132,10.132,0,0,0-5.062-8.31l-2.275,4.493.066-5.441a9.959,9.959,0,0,0-3.3-.4,10.149,10.149,0,1,0,10.61,9.662Z" transform="translate(-228.455 -241.278)" fill="#6c63ff"/>
    <path id="Path_261" data-name="Path 261" d="M1055.486,702.11a10.148,10.148,0,1,1,.486-8.178l-6.34,5.161,6.975-1.649a10.087,10.087,0,0,1-1.121,4.666Z" transform="translate(-224.829 -254.82)" fill="#6c63ff"/>
    <path id="Path_262" data-name="Path 262" d="M1051.224,677.03A10.149,10.149,0,0,1,1048,657.12l-.05,4.18,2.3-4.543h0a10.151,10.151,0,1,1,.948,20.281Z" transform="translate(-225.58 -249.452)" fill="#6c63ff"/>
    <path id="Path_263" data-name="Path 263" d="M1081.1,657.15a10.149,10.149,0,1,1,4.493-18.962l-1.8,4.946,3.693-3.545a10.091,10.091,0,0,1,3.3,7.008,9.8,9.8,0,0,1-.256,2.795A10.149,10.149,0,0,1,1081.1,657.15Z" transform="translate(-230.82 -245.961)" fill="#6c63ff"/>
    <path id="Path_264" data-name="Path 264" d="M1075.837,623.758c-2.341.264-4.625.989-6.974,1.138s-4.947-.42-6.422-2.251a31.465,31.465,0,0,1-1.871-3.3,7.3,7.3,0,0,0-2.556-2.407,10.149,10.149,0,1,0,18.962,6.736C1076.6,623.692,1076.216,623.717,1075.837,623.758Z" transform="translate(-228.444 -242.462)" opacity="0.1"/>
    <path id="Path_265" data-name="Path 265" d="M1081.107,658.387a10.157,10.157,0,0,1-9.654-14.477,7.511,7.511,0,0,1,2.044,2.036,32.566,32.566,0,0,0,2.012,3.355c1.574,1.863,4.279,2.473,6.727,2.358s4.815-.824,7.255-1.031c.338,0,.684-.058,1.022-.066A10.148,10.148,0,0,1,1081.107,658.387Z" transform="translate(-230.829 -247.198)" opacity="0.1"/>
    <path id="Path_266" data-name="Path 266" d="M1051.225,678.3a10.14,10.14,0,0,1-9.736-14.3,8.371,8.371,0,0,1,2.143,2.061c.824,1.113,1.278,2.4,2.2,3.421,1.715,1.913,4.592,2.58,7.189,2.523s4.947-.676,7.42-.866A10.148,10.148,0,0,1,1051.225,678.3Z" transform="translate(-225.58 -250.725)" opacity="0.1"/>
    <path id="Path_267" data-name="Path 267" d="M1055.5,703.5a10.157,10.157,0,0,1-18.508-8.244,9.943,9.943,0,0,1,2.226,1.987c.973,1.179,1.649,2.473,2.721,3.611,2.078,2.036,5.425,2.869,8.409,2.951a44.482,44.482,0,0,0,5.153-.3Z" transform="translate(-224.841 -256.214)" opacity="0.1"/>
    <path id="Path_268" data-name="Path 268" d="M506.459,582.98a8.088,8.088,0,0,0-3.223-6.529,9.481,9.481,0,0,0-7.923-9.3,9.464,9.464,0,0,0-6.307-7.049h0a8.048,8.048,0,0,0-1.171-.272h-1.393a9.283,9.283,0,0,0-8.97,7.931c-2.894-.668-5.54.2-6.026,2.028a2.473,2.473,0,0,0,.082,1.468,6.38,6.38,0,0,0,4.254,3.446l.28.082.42.107h.091a7.289,7.289,0,0,0-.693,3.125,7.205,7.205,0,0,0,3.883,6.43l-.19.115a2.572,2.572,0,0,0-.627.874,13.076,13.076,0,0,0-1.212,2.918c-.206.874-.239,1.781-.495,2.646-.478,1.591-1.7,2.935-1.838,4.592-.066.742.058,1.649-.47,2.127a2.563,2.563,0,0,1-.42.3,3.4,3.4,0,0,0-.915.965,3.2,3.2,0,0,1-.643.923c-.478.355-1.261.322-1.492.874s.371,1.2.231,1.805-.651.717-1.022,1.055a3.669,3.669,0,0,0-.882,1.649,5.408,5.408,0,0,1-4.452-1.138,8.319,8.319,0,0,1,.462,1.649,7.222,7.222,0,0,0-2.4-1.2,7.575,7.575,0,0,1-2.556-1.9l1.369-.19-6.043-9.225-1.789-.371,1.6,3.075a.981.981,0,0,0-.544.651,2.794,2.794,0,0,0-.058,1.047,18.738,18.738,0,0,0,.412,2.473l.462,2.16c.041.2.091.4.148.6a5.681,5.681,0,0,0-1.789.2,15.566,15.566,0,0,0-3.718-.882,2.059,2.059,0,0,0-.824,0,2.134,2.134,0,0,0-.783.635,25.356,25.356,0,0,0-2.762,3.891c-3.3,5.656-7.593,10.594-11.657,15.705-2.8,1.138-5.631,2.218-8.459,3.3l-6.084,2.325a9.226,9.226,0,0,1-3.776.824c-.577,0-1.294-.124-1.649.371a3.469,3.469,0,0,0-.371.824l-.627.066h0a7.2,7.2,0,0,0-1.459-2.688.923.923,0,0,0-.684.528c-.148.272-.239.569-.412.824-.322.478-.89.709-1.294,1.113s-.66,1.031-1.1,1.443a4.369,4.369,0,0,1-2.069.824,13.061,13.061,0,0,0-3.24,1.228,5.222,5.222,0,0,1-1.2.552,4.493,4.493,0,0,1-1.41.049l-3.215-.239a2.541,2.541,0,0,0-.866.041,1.649,1.649,0,0,0-1.022,1.649,2.6,2.6,0,0,0,1.022,1.773,6.544,6.544,0,0,0,1.83.948,53.712,53.712,0,0,0,8.574,2.539v.651a14.633,14.633,0,0,0,6.6,1.566,1.023,1.023,0,0,0,.495-.091,1.088,1.088,0,0,0,.412-.643,26.52,26.52,0,0,0,1.286-6.315h0a3.3,3.3,0,0,0,1.162-.3c1.1-.305,2.209.453,3.355.577,1.41.157,2.712-.668,4.048-1.171l.577-.19a6.33,6.33,0,0,1-1.336,1.278c-.552.4-1.171.693-1.707,1.1a11.756,11.756,0,0,1-1.451,1.121,9.1,9.1,0,0,1-1.113.429,7.344,7.344,0,0,0-1.591.824,3.223,3.223,0,0,0-1.08,1.055,1.583,1.583,0,0,0-.091,1.484,1.566,1.566,0,0,0,1.063.742,4.361,4.361,0,0,0,1.311,0c1.748-.132,3.487-.289,5.227-.445a13.941,13.941,0,0,0,2.185-.313c.379-.091.758-.214,1.138-.322a10.15,10.15,0,0,1,1.987-.3,1.651,1.651,0,0,1,.577.058c.4.132.693.544,1.1.627a1.649,1.649,0,0,0,.824-.107,18.388,18.388,0,0,1,3.867-.412,1.6,1.6,0,0,0,1.5-.668c.264-.528-.214-1.377-.429-2.078a6.358,6.358,0,0,1-.181-1.369,8.566,8.566,0,0,0-.956-3.248,8.482,8.482,0,0,1-.717-1.484,37.489,37.489,0,0,0,7.115-3.611,12.721,12.721,0,0,1,4.056-1.954,11.03,11.03,0,0,1,5.095.594,115.914,115.914,0,0,1,11.682,4.073c1.822.75,3.636,1.542,5.515,2.111a8.6,8.6,0,0,0,1.962,1.9,9.07,9.07,0,0,0,4.246,1.162,55.649,55.649,0,0,0,5.977.223,10.082,10.082,0,0,0,4.452-.824,4.575,4.575,0,0,0,.932-.618,3.693,3.693,0,0,0,2.935-1.08,7.115,7.115,0,0,0,2.234-3.529c.486-1.88.115-4.122,1.27-5.622.305-.412.709-.742,1.014-1.154a3.248,3.248,0,0,0,.528-1.9.382.382,0,0,1,.049-.074,6.984,6.984,0,0,0,.495-1.9,10.842,10.842,0,0,1,.536-1.5,46.314,46.314,0,0,0,1.533-4.444,25.965,25.965,0,0,0,.709-3.05c.124-.824.2-1.649.264-2.473a15.362,15.362,0,0,1,.75-3.817,31.063,31.063,0,0,0,1.731-9.135v-.181a6.125,6.125,0,0,0,5.425-6.233,6.5,6.5,0,0,0-.569-2.663,8.243,8.243,0,0,0,1.1-4.155Zm-29.5,35.837c.091.322.2.635.305.948-.486-.47-.956-.956-1.443-1.435.19.066.387.124.569.2a3.072,3.072,0,0,1,.544.288Zm-2.333-1.583c-2.852-2.473-6.15-4.394-9.069-6.793,1.591.783,3.141,1.7,4.674,2.572q2.729,1.558,5.532,2.993a4.526,4.526,0,0,1-1.162,1.228ZM475.84,611l.14-.14v.981l-.767-.264a6.832,6.832,0,0,0,.6-.577Zm-25.087,6.678a23.6,23.6,0,0,0,3.034-4.328c1.129,1.97,2.968,3.4,4.526,5.054C455.8,618.083,453.275,617.811,450.753,617.679Z" transform="translate(-112.387 -232.435)" fill="url(#linear-gradient-2)"/>
    <path id="Path_269" data-name="Path 269" d="M415.35,438.25l1.8.363,6.125,9.06-2.7.363Z" transform="translate(-72.929 -77.012)" fill="#2f2e41"/>
    <path id="Path_270" data-name="Path 270" d="M414.49,645.441a35.265,35.265,0,0,0,1.8,4.675,44.513,44.513,0,0,0,5.977-1.707,18.831,18.831,0,0,0-1.245-1.649,6.149,6.149,0,0,0-1.69-1.294,4.651,4.651,0,0,0-2.053,0C416.353,645.441,415.422,645.457,414.49,645.441Z" transform="translate(-115.647 -247.451)" fill="#fbbebe"/>
    <path id="Path_271" data-name="Path 271" d="M416.057,647.3a3.726,3.726,0,0,1-2.045-2.325,7.486,7.486,0,0,0-1.558-2.778.89.89,0,0,0-.693.519c-.148.264-.239.561-.4.824-.33.47-.907.7-1.319,1.1s-.66,1.014-1.1,1.418a4.385,4.385,0,0,1-2.086.824,13.523,13.523,0,0,0-3.3,1.212,5.689,5.689,0,0,1-1.212.544,4.8,4.8,0,0,1-1.418,0l-3.248-.231a2.538,2.538,0,0,0-.824,0,1.575,1.575,0,0,0-1.031,1.649,2.473,2.473,0,0,0,1.031,1.748,6.844,6.844,0,0,0,1.847.94,54.33,54.33,0,0,0,8.706,2.473v.643a15.07,15.07,0,0,0,6.637,1.542,1.12,1.12,0,0,0,.495-.082,1.088,1.088,0,0,0,.412-.643,25.722,25.722,0,0,0,1.36-7.057,5.623,5.623,0,0,0-.14-1.822c-.181-.585.429-.338-.132-.569" transform="translate(-112.367 -246.897)" fill="#2f2e41"/>
    <path id="Path_272" data-name="Path 272" d="M482.312,632.993c-9.629.577-19.143-2.242-28.789-2.539a14.056,14.056,0,0,0-3.578.223,18.026,18.026,0,0,0-3.545,1.377c-5.169,2.407-10.52,4.4-15.862,6.389l-6.142,2.284a9.3,9.3,0,0,1-3.8.824c-.585,0-1.3-.124-1.649.363-1,1.484-.528,3.652.132,5.318.214.536.577,1.121,1.154,1.179a3.354,3.354,0,0,0,1.171-.3c1.113-.3,2.226.453,3.38.577,1.418.148,2.737-.66,4.081-1.154,2.226-.824,4.65-.824,6.991-1.187a31.323,31.323,0,0,0,10.948-4.543,12.778,12.778,0,0,1,4.081-1.929,11.294,11.294,0,0,1,5.136.585,117.887,117.887,0,0,1,11.781,4.007,54.906,54.906,0,0,0,6.15,2.251,22.258,22.258,0,0,0,13.793-.824c1.542-.61,3.215-1.649,3.3-3.347.058-.948-.684-1.781-1.171-2.6-.313-.519-.635-1.039-.973-1.542C487.25,636.018,485.239,632.82,482.312,632.993Z" transform="translate(-116.329 -244.83)" fill="#2f2e41"/>
    <path id="Path_273" data-name="Path 273" d="M482.312,632.993c-9.629.577-19.143-2.242-28.789-2.539a14.056,14.056,0,0,0-3.578.223,18.026,18.026,0,0,0-3.545,1.377c-5.169,2.407-10.52,4.4-15.862,6.389l-6.142,2.284a9.3,9.3,0,0,1-3.8.824c-.585,0-1.3-.124-1.649.363-1,1.484-.528,3.652.132,5.318.214.536.577,1.121,1.154,1.179a3.354,3.354,0,0,0,1.171-.3c1.113-.3,2.226.453,3.38.577,1.418.148,2.737-.66,4.081-1.154,2.226-.824,4.65-.824,6.991-1.187a31.323,31.323,0,0,0,10.948-4.543,12.778,12.778,0,0,1,4.081-1.929,11.294,11.294,0,0,1,5.136.585,117.887,117.887,0,0,1,11.781,4.007,54.906,54.906,0,0,0,6.15,2.251,22.258,22.258,0,0,0,13.793-.824c1.542-.61,3.215-1.649,3.3-3.347.058-.948-.684-1.781-1.171-2.6-.313-.519-.635-1.039-.973-1.542C487.25,636.018,485.239,632.82,482.312,632.993Z" transform="translate(-116.329 -244.83)" opacity="0.1"/>
    <path id="Path_274" data-name="Path 274" d="M436.92,645.146q2.259.767,4.559,1.418c.824-1.41,2.473-2.391,2.828-4.007a.379.379,0,0,0,0-.214.4.4,0,0,0-.173-.157,8.639,8.639,0,0,0-3.578-1.047c-.989-.058-1.443.973-1.888,1.7C438.495,643.159,437.324,645.3,436.92,645.146Z" transform="translate(-119.586 -246.711)" fill="#fbbebe"/>
    <path id="Path_275" data-name="Path 275" d="M436.309,644.293a3.3,3.3,0,0,1-2.218-1.459c-.206-.371-.437-.874-.866-.824s-.569.495-.66.882a24.732,24.732,0,0,1-1.245,4.279,8.029,8.029,0,0,1-2.663,3.5c-.561.387-1.179.676-1.731,1.088a11.9,11.9,0,0,1-1.459,1.1,8.666,8.666,0,0,1-1.121.412,7.769,7.769,0,0,0-1.6.824,3.174,3.174,0,0,0-1.1,1.047,1.509,1.509,0,0,0-.082,1.459,1.558,1.558,0,0,0,1.064.726,4.487,4.487,0,0,0,1.327,0c1.756-.124,3.512-.28,5.268-.437a15.208,15.208,0,0,0,2.2-.305l1.146-.313a9.12,9.12,0,0,1,2-.3,1.559,1.559,0,0,1,.585.058c.4.132.693.536,1.113.618a1.864,1.864,0,0,0,.824-.107,18.207,18.207,0,0,1,3.9-.4,1.646,1.646,0,0,0,1.517-.659c.33-.643-.214-1.36-.437-2.053a6.6,6.6,0,0,1-.181-1.344,8.2,8.2,0,0,0-.965-3.2c-.445-.824-1.055-1.731-.742-2.605a2.473,2.473,0,0,0,.3-.9C440.365,643.971,437.117,644.474,436.309,644.293Z" transform="translate(-116.864 -246.863)" fill="#2f2e41"/>
    <path id="Path_276" data-name="Path 276" d="M476.692,613a7.519,7.519,0,0,1-3.842-3.809c-.157-.363-.289-.75-.445-1.113a8.459,8.459,0,0,0-2.292-3.19,1.129,1.129,0,0,0-.824-.355.9.9,0,0,0-.618.668,2.547,2.547,0,0,0-.066,1.031,18.355,18.355,0,0,0,.412,2.407l.47,2.127a4.665,4.665,0,0,0,.289.948,3.3,3.3,0,0,0,.783.932c.429.4.866.775,1.3,1.154a4.476,4.476,0,0,0,.824.569,4.792,4.792,0,0,0,1.459.429,12.417,12.417,0,0,1,5.474,2.11v-1.583a2.094,2.094,0,0,0-.412-1.146A7.313,7.313,0,0,0,476.692,613Z" transform="translate(-125.144 -240.283)" fill="#fbbebe"/>
    <path id="Path_277" data-name="Path 277" d="M476.692,613a7.519,7.519,0,0,1-3.842-3.809c-.157-.363-.289-.75-.445-1.113a8.459,8.459,0,0,0-2.292-3.19,1.129,1.129,0,0,0-.824-.355.9.9,0,0,0-.618.668,2.547,2.547,0,0,0-.066,1.031,18.355,18.355,0,0,0,.412,2.407l.47,2.127a4.665,4.665,0,0,0,.289.948,3.3,3.3,0,0,0,.783.932c.429.4.866.775,1.3,1.154a4.476,4.476,0,0,0,.824.569,4.792,4.792,0,0,0,1.459.429,12.417,12.417,0,0,1,5.474,2.11v-1.583a2.094,2.094,0,0,0-.412-1.146A7.313,7.313,0,0,0,476.692,613Z" transform="translate(-125.144 -240.283)" opacity="0.1"/>
    <ellipse id="Ellipse_74" data-name="Ellipse 74" cx="2.341" cy="2.358" rx="2.341" ry="2.358" transform="translate(368.811 351.724)" fill="#2f2e41"/>
    <path id="Path_278" data-name="Path 278" d="M496.99,590.465a2.531,2.531,0,0,0-1.847.264,2.565,2.565,0,0,0-.635.866,12.574,12.574,0,0,0-1.22,2.869c-.206.824-.239,1.756-.5,2.605-.478,1.566-1.707,2.894-1.847,4.526-.066.734.058,1.591-.478,2.086a3.031,3.031,0,0,1-.42.305,3.167,3.167,0,0,0-.923.948,3.109,3.109,0,0,1-.651.9c-.478.354-1.27.322-1.5.824s.371,1.187.231,1.781-.66.709-1.031,1.039a3.6,3.6,0,0,0-.89,1.649,5.5,5.5,0,0,1-4.485-1.113,14.279,14.279,0,0,1,.7,5.128,2.094,2.094,0,0,1-.412,1.583,28.55,28.55,0,0,1,5.5.956,3.793,3.793,0,0,0,2.4,0,4.006,4.006,0,0,0,1.1-.874,7.043,7.043,0,0,0,2.267-3.5,20.539,20.539,0,0,0,.041-2.366,13.34,13.34,0,0,1,.6-2.877,34.235,34.235,0,0,0,1.047-5.919c.107-1.237,1.179-2.226,1.739-3.3,1.055-2.086,2.143-4.254,2.218-6.6C498.029,591.5,497.765,590.548,496.99,590.465Z" transform="translate(-127.288 -237.801)" fill="#2f2e41"/>
    <path id="Path_279" data-name="Path 279" d="M496.99,590.465a2.531,2.531,0,0,0-1.847.264,2.565,2.565,0,0,0-.635.866,12.574,12.574,0,0,0-1.22,2.869c-.206.824-.239,1.756-.5,2.605-.478,1.566-1.707,2.894-1.847,4.526-.066.734.058,1.591-.478,2.086a3.031,3.031,0,0,1-.42.305,3.167,3.167,0,0,0-.923.948,3.109,3.109,0,0,1-.651.9c-.478.354-1.27.322-1.5.824s.371,1.187.231,1.781-.66.709-1.031,1.039a3.6,3.6,0,0,0-.89,1.649,5.5,5.5,0,0,1-4.485-1.113,14.279,14.279,0,0,1,.7,5.128,2.094,2.094,0,0,1-.412,1.583,28.55,28.55,0,0,1,5.5.956,3.793,3.793,0,0,0,2.4,0,4.006,4.006,0,0,0,1.1-.874,7.043,7.043,0,0,0,2.267-3.5,20.539,20.539,0,0,0,.041-2.366,13.34,13.34,0,0,1,.6-2.877,34.235,34.235,0,0,0,1.047-5.919c.107-1.237,1.179-2.226,1.739-3.3,1.055-2.086,2.143-4.254,2.218-6.6C498.029,591.5,497.765,590.548,496.99,590.465Z" transform="translate(-127.288 -237.801)" opacity="0.1"/>
    <path id="Path_280" data-name="Path 280" d="M487.539,631.776c-2-.956-3.471-2.729-5.095-4.254-3.092-2.91-6.876-4.946-10.132-7.692-2.16-1.806-4.122-3.908-6.455-5.425a16.133,16.133,0,0,0-6.917-2.416,1.84,1.84,0,0,0-.824,0,1.9,1.9,0,0,0-.783.618,24.913,24.913,0,0,0-2.795,3.834c-4.122,7.008-9.984,12.894-14.84,19.407a1.237,1.237,0,0,0-.239.462,1.146,1.146,0,0,0,.181.717l.989,1.929c.552,1.088,1.443,2.35,2.63,2.135a2.877,2.877,0,0,0,1.377-.882l4.435-4.246,4.65-4.444c2.721-2.6,5.491-5.26,7.271-8.59,1.385,2.407,3.85,3.982,5.532,6.183.643.824,1.171,1.756,1.748,2.646.915,1.418,1.962,2.754,3,4.122l5.334,6.8a10.205,10.205,0,0,0,2.473,2.473,9.439,9.439,0,0,0,4.279,1.146,56.521,56.521,0,0,0,6.026.214,10.389,10.389,0,0,0,4.493-.825,4.072,4.072,0,0,0,2.432-3.619,5.309,5.309,0,0,0-.767-2.251A18.373,18.373,0,0,0,487.539,631.776Z" transform="translate(-120.031 -241.585)" fill="#2f2e41"/>
    <ellipse id="Ellipse_75" data-name="Ellipse 75" cx="1.805" cy="1.814" rx="1.805" ry="1.814" transform="translate(370.79 353.9)" fill="#e8e8f0"/>
    <path id="Path_281" data-name="Path 281" d="M502.943,591.324a3.471,3.471,0,0,1,.2,2.605,10.568,10.568,0,0,1-1.162,2.4,11.417,11.417,0,0,1-1.509,2.143A15.529,15.529,0,0,0,508.4,596.2a11.517,11.517,0,0,0,5-4.361,2.308,2.308,0,0,1-1.847-.346,6.6,6.6,0,0,1-1.41-1.311l-1.393-1.566a6.271,6.271,0,0,1-.824-1.129,3.117,3.117,0,0,1-.371-1.822,10.61,10.61,0,0,1-1.847,1.533c-1,.651-2.094,1.121-3.1,1.764-.346.231-1.138.594-.932,1.055S502.663,590.829,502.943,591.324Z" transform="translate(-130.744 -236.97)" fill="#fbbebe"/>
    <path id="Path_282" data-name="Path 282" d="M502.943,591.324a3.471,3.471,0,0,1,.2,2.605,10.568,10.568,0,0,1-1.162,2.4,11.417,11.417,0,0,1-1.509,2.143A15.529,15.529,0,0,0,508.4,596.2a11.517,11.517,0,0,0,5-4.361,2.308,2.308,0,0,1-1.847-.346,6.6,6.6,0,0,1-1.41-1.311l-1.393-1.566a6.271,6.271,0,0,1-.824-1.129,3.117,3.117,0,0,1-.371-1.822,10.61,10.61,0,0,1-1.847,1.533c-1,.651-2.094,1.121-3.1,1.764-.346.231-1.138.594-.932,1.055S502.663,590.829,502.943,591.324Z" transform="translate(-130.744 -236.97)" opacity="0.1"/>
    <path id="Path_283" data-name="Path 283" d="M501.173,592.8a2.35,2.35,0,0,0,0,2.721c.082.1.379.717.5.726a.453.453,0,0,0,.313-.165,20.691,20.691,0,0,0,1.764-2.1A3.924,3.924,0,0,1,506,592.509a4.847,4.847,0,0,1,3.092.965,2.935,2.935,0,0,1,1.063.824,2.878,2.878,0,0,1,.346,1.179,56.8,56.8,0,0,1,.313,7.494,29.528,29.528,0,0,1-.354,5.4c-.181.915-.445,1.814-.569,2.745a17.513,17.513,0,0,0-.115,2.473v3.446a9.069,9.069,0,0,0,.132,1.888c.165.75.519,1.451.758,2.185a14.29,14.29,0,0,1,.5,2.58l.47,3.561a4.5,4.5,0,0,1-.42,3.3c-.305.4-.709.734-1.022,1.138-1.162,1.517-.824,3.685-1.278,5.54a6.908,6.908,0,0,1-2.259,3.463,3.735,3.735,0,0,1-2.976,1.063c-1.451-.272-2.317-1.781-2.712-3.207s-.536-2.976-1.393-4.18a11.086,11.086,0,0,0-2.754-2.3,4.757,4.757,0,0,1-2.152-2.795c-.091-.519,0-1.055-.091-1.583a3.735,3.735,0,0,0-2.3-3.026c-.742-.288-1.649-.4-2.078-1.072a5,5,0,0,0,2.168-2.91A14.947,14.947,0,0,0,492.9,617l.247-4.122a13.769,13.769,0,0,1,.981-5.35c.363-.742.824-1.443,1.2-2.176a23.631,23.631,0,0,0,1.278-3.19c.594-1.7,1.187-3.4,1.715-5.111a9.631,9.631,0,0,1,.94-2.383C499.7,593.894,500.34,592.963,501.173,592.8Z" transform="translate(-128.941 -238.172)" fill="#e8e8f0"/>
    <path id="Path_284" data-name="Path 284" d="M492.335,619.548h1.1l.231-1.649a3.437,3.437,0,0,1,.231-.965,5.772,5.772,0,0,1,.635-.923c1.072-1.525,1-3.545,1.261-5.4a27.478,27.478,0,0,1,2.407-7.057l2.127-4.74a6.547,6.547,0,0,0,.462-1.212,7.267,7.267,0,0,0,.132-1.4c0-.734.231-3.4.256-4.122,0-.272-.6-.124-.725-.363-.264-.528-.627.9-1.129,1.212a2.77,2.77,0,0,0-.981,1.434c-.462,1.187-.742,2.473-1.171,3.652a7.461,7.461,0,0,1-1.987,3.232c-.437.379-.94.684-1.352,1.1-1.319,1.3-1.451,3.372-1.492,5.235C492.3,608.715,492.088,619.548,492.335,619.548Z" transform="translate(-129.295 -238.013)" fill="#2f2e41"/>
    <path id="Path_285" data-name="Path 285" d="M509.37,590.446a3.743,3.743,0,0,0-1.954,2.679,13.556,13.556,0,0,1-.989,3.3c-1.336,2.325-4.74,3-5.688,5.515a10.14,10.14,0,0,0-.379,2.6c-.165,1.805-.758,3.545-.94,5.342a23.8,23.8,0,0,0,.1,4.2l1.2,14.2a18.962,18.962,0,0,1-.354,6.249,6.018,6.018,0,0,0,3.578-.594c1.113-.511,2.135-1.212,3.215-1.806,1.847-1.022,3.891-1.74,5.515-3.1a3.372,3.372,0,0,0,.742-.824,7.126,7.126,0,0,0,.495-1.863,10.064,10.064,0,0,1,.536-1.468,43.237,43.237,0,0,0,1.55-4.386,25.188,25.188,0,0,0,.709-3c.132-.824.206-1.649.272-2.473a14.509,14.509,0,0,1,.758-3.751,30.213,30.213,0,0,0,1.74-9,4.705,4.705,0,0,0-.091-1.319,7.058,7.058,0,0,0-.726-1.509c-.495-.932-.824-1.954-1.253-2.9a14.27,14.27,0,0,0-4.872-5.12C511.571,590.751,510.45,590.059,509.37,590.446Z" transform="translate(-130.551 -237.791)" fill="#2f2e41"/>
    <path id="Path_286" data-name="Path 286" d="M478.541,617.551a8.6,8.6,0,0,1-2.267-1.723c-.3-.346-.544-.734-.824-1.08A5.615,5.615,0,0,0,472.6,613.1a13.932,13.932,0,0,0-3.3-.322,5.982,5.982,0,0,0-2.2.264,2.242,2.242,0,0,0-1.459,1.566,2.6,2.6,0,0,0,1.113,2.308,5.245,5.245,0,0,0,2.218,1.072,17.73,17.73,0,0,0,2,.239c3.941.412,7.461,2.556,10.915,4.51q4.551,2.589,9.283,4.815a19.289,19.289,0,0,0,.157-2.844c0-.709-.058-1.8-.726-2.218a14.558,14.558,0,0,0-2.951-.882,46.453,46.453,0,0,1-5.944-2.407A29.567,29.567,0,0,1,478.541,617.551Z" transform="translate(-124.627 -241.729)" fill="#fbbebe"/>
    <ellipse id="Ellipse_76" data-name="Ellipse 76" cx="7.024" cy="7.065" rx="7.024" ry="7.065" transform="translate(364.128 339.415)" fill="#fbbebe"/>
    <path id="Path_287" data-name="Path 287" d="M510.241,599.989a11.261,11.261,0,0,0-1.36,2.547c-.824,1.781-2.226,3.3-2.91,5.186s-.693,4.312-2.1,5.853a2.052,2.052,0,0,0-.618.89,4.25,4.25,0,0,1-.066.643c-.206.561-1.121.585-1.294,1.162-.049.165,0,.346-.082.511-.14.371-.635.429-.956.651-.684.462-.544,1.533-1.031,2.2a1.855,1.855,0,0,1-1.756.618,6.184,6.184,0,0,1-1.822-.684,1.758,1.758,0,0,0-.66-.206,1.36,1.36,0,0,0-.758.264,4.674,4.674,0,0,0-1.9,4,13.059,13.059,0,0,0,1.088,4.477,1.8,1.8,0,0,0,.354.668,1.575,1.575,0,0,0,1.748.132,8.243,8.243,0,0,1,1.707-.767c1.088-.2,2.152.552,3.256.486a4.526,4.526,0,0,0,2.193-.965,12.118,12.118,0,0,0,2.951-2.473c.478-.635.824-1.352,1.253-2.028a26.01,26.01,0,0,1,1.773-2.366l4.056-4.947a11.387,11.387,0,0,0,1.088-1.5,10.573,10.573,0,0,0,.824-2.267,17.367,17.367,0,0,0,.824-4.031,15.5,15.5,0,0,0-.3-3.38,11.949,11.949,0,0,0-.824-3.224C514.042,599.577,511.9,598.06,510.241,599.989Z" transform="translate(-129.419 -239.329)" fill="#2f2e41"/>
    <path id="Path_288" data-name="Path 288" d="M523.518,584.118a7.914,7.914,0,0,0-3.248-6.43,9.406,9.406,0,0,0-7.989-9.159,9.126,9.126,0,0,0-17.981.486c-2.918-.659-5.59.2-6.076,2s1.575,4.122,4.65,4.946a8.664,8.664,0,0,0,2.984.3,9.135,9.135,0,0,0,6.282,3.916A9.373,9.373,0,0,0,509,587.242a7.873,7.873,0,0,0,2.119,2.927v.684a5.944,5.944,0,1,0,11.888,0,6.348,6.348,0,0,0-.569-2.63A7.947,7.947,0,0,0,523.518,584.118Z" transform="translate(-128.581 -232.674)" fill="#f86d70"/>
    <path id="Path_289" data-name="Path 289" d="M490.2,571.388c.486-1.8,3.158-2.655,6.076-2a9.283,9.283,0,0,1,9.069-7.815h.6a8.933,8.933,0,0,0-2.589-.387,9.283,9.283,0,0,0-9.069,7.815c-2.918-.659-5.59.2-6.076,2s1.575,4.122,4.65,4.947a9.065,9.065,0,0,0,1.764.305C491.686,575.37,489.715,573.226,490.2,571.388Z" transform="translate(-128.58 -232.674)" opacity="0.1"/>
    <path id="Path_290" data-name="Path 290" d="M514.744,594.472a6.2,6.2,0,0,1,0-.676,7.7,7.7,0,0,1-2.119-2.927,9.349,9.349,0,0,1-6.859-7.082,9.11,9.11,0,0,1-6.29-3.908,7.916,7.916,0,0,1-1.756-.049,9.159,9.159,0,0,0,6.059,3.6,9.374,9.374,0,0,0,6.859,7.074,7.873,7.873,0,0,0,2.119,2.927v.684a6.051,6.051,0,0,0,5.911,6.15A6.15,6.15,0,0,1,514.744,594.472Z" transform="translate(-130.261 -235.946)" opacity="0.1"/>
    <ellipse id="Ellipse_77" data-name="Ellipse 77" cx="1.08" cy="1.443" rx="1.08" ry="1.443" transform="translate(371.77 347.429) rotate(-37.22)" fill="#fbbebe"/>
  </g>
</svg>
