<svg id="Bold" enable-background="new 0 0 32 32" height="512" viewBox="0 0 32 32" width="512" xmlns="http://www.w3.org/2000/svg"><path d="m26 32h-20c-3.314 0-6-2.686-6-6v-20c0-3.314 2.686-6 6-6h20c3.314 0 6 2.686 6 6v20c0 3.314-2.686 6-6 6z" fill="#e3f8fa"/><path d="m16 8.333c-4.42 0-8 3.52-8 7.861 0 3.474 2.292 6.42 5.47 7.458.4.074.547-.169.547-.378 0-.187-.007-.681-.01-1.336-2.225.474-2.695-1.055-2.695-1.055-.364-.907-.89-1.15-.89-1.15-.725-.487.056-.478.056-.478.803.055 1.225.81 1.225.81.713 1.202 1.873.855 2.33.654.072-.508.278-.855.507-1.051-1.777-.197-3.644-.873-3.644-3.885 0-.858.31-1.559.823-2.109-.09-.198-.36-.998.07-2.081 0 0 .67-.211 2.2.806.64-.175 1.32-.261 2-.265.68.004 1.36.09 2 .265 1.52-1.017 2.19-.806 2.19-.806.43 1.083.16 1.882.08 2.081.51.55.82 1.251.82 2.109 0 3.02-1.87 3.685-3.65 3.878.28.236.54.718.54 1.454 0 1.052-.01 1.897-.01 2.153 0 .206.14.452.55.373 3.201-1.03 5.491-3.978 5.491-7.446 0-4.342-3.582-7.862-8-7.862z" fill="#26c6da"/></svg>