<svg id="Bold" enable-background="new 0 0 32 32" height="512" viewBox="0 0 32 32" width="512" xmlns="http://www.w3.org/2000/svg"><path d="m26 32h-20c-3.314 0-6-2.686-6-6v-20c0-3.314 2.686-6 6-6h20c3.314 0 6 2.686 6 6v20c0 3.314-2.686 6-6 6z" fill="#ffe6e2"/><path d="m16.003 11.892c-2.269 0-4.105 1.839-4.105 4.105 0 2.268 1.839 4.105 4.105 4.105 2.269 0 4.105-1.839 4.105-4.105 0-2.269-1.839-4.105-4.105-4.105zm0 6.77c-1.472 0-2.665-1.193-2.665-2.665s1.193-2.665 2.665-2.665 2.665 1.192 2.665 2.665c0 1.472-1.193 2.665-2.665 2.665z" fill="#fd907e"/><path d="m19.299 8.05c-1.472-.069-5.118-.066-6.592 0-1.295.061-2.437.374-3.357 1.294-1.539 1.539-1.342 3.612-1.342 6.653 0 3.112-.173 5.138 1.342 6.653 1.544 1.544 3.648 1.342 6.653 1.342 3.683 0 7.713.353 7.947-4.699.069-1.473.066-5.118 0-6.591-.132-2.809-1.64-4.512-4.651-4.652zm2.329 13.582c-1.009 1.009-2.408.919-5.646.919-3.333 0-4.67.049-5.646-.929-1.124-1.118-.92-2.914-.92-5.635 0-6.65.381-6.565 6.556-6.565l.03.02c6.622 0 6.554.429 6.554 6.555.001 3.294.064 4.639-.928 5.635z" fill="#fc573b"/><circle cx="20.271" cy="11.73" fill="#fd907e" r=".959"/></svg>